<?xml version="1.0" encoding="UTF-8" standalone="no"?>
<svg id="svg2" xmlns:rdf="http://www.w3.org/1999/02/22-rdf-syntax-ns#" xmlns="http://www.w3.org/2000/svg" height="689.35" viewBox="0 0 3981.8999 689.34213" width="3982" version="1.1" xmlns:cc="http://creativecommons.org/ns#" xmlns:dc="http://purl.org/dc/elements/1.1/">
 <g id="g6159" transform="translate(-2697.3,2902.1)">
  <g id="g6155">
   <path id="path6128" d="m368.21 0c-15.46 0.034219-26.07 2.6295-42.56 9.8984-33.99 14.984-36.68 15.58-54.51 12.088-10.78-2.109-13.27-2.271-17.15-1.109-6.04 1.809-14.81 10.153-17.17 16.33-2.21 5.779-1.77 9.644 2.23 19.641 4.51 11.26 3.47 16.891-4.51 24.533-6.38 6.099-10.29 7.268-27.17 8.119-16.83 0.848-28.03 2.251-32.62 4.086-2.89 1.153-7.96 9.734-10.24 17.344-1.28 4.26-6.87 7.8-18.15 11.52-14.72 4.84-26.43 10.31-32.19 15.03-9.25 7.58-17.174 25.18-21.08 46.81-0.997 5.52-2.583 11.72-3.526 13.78-1.627 3.55-1.605 7.53 0.061 11.38 0.516 1.19-0.169 2.23-2.168 3.3-3.247 1.74-6.078 6.41-6.078 10.03 0 1.36 1.943 4.11 4.568 6.47 2.513 2.25 6.381 6.61 8.594 9.67 2.213 3.07 6.269 8.24 9.009 11.5 5.52 6.56 5.35 5.54 4 24.93-0.68 9.68-0.5 12.95 0.99 17.49 1.01 3.08 1.83 6.06 1.83 6.62 0 0.57-2.7 1.31-5.99 1.65-12.54 1.29-20.01 6.88-32.788 24.52-33.095 45.7-58.539 96.74-67.887 136.16-3.5219 14.86-4.7427 37.08-2.6269 47.83 2.6187 13.31 19.151 51.18 32.518 74.49 3.024 5.27 9.195 18.66 13.713 29.76 4.517 11.09 8.541 20.7 8.943 21.35s1.866 1.18 3.254 1.18c2.052 0 3.535 1.93 7.916 10.31 9.065 17.35 26.164 40.96 29.666 40.97 0.38 0 1.217 0.63 2.31 1.67h676.98c-0.01-1.08-0.03-2.26-0.06-3.64-0.12-6.09-1-14.78-1.95-19.32-2.09-10.03-2.09-9.92-0.17-9.92 3.23 0 3-4.55-1.03-20.31-5.23-20.51-12.11-39.02-23.1-62.2-3.93-8.28-8.56-18.81-10.29-23.41-12.13-32.19-27.32-67.14-35.86-82.51-3.88-6.98-4.38-8.56-3.07-9.6 2.1-1.66 0.19-7.03-8.05-22.65-10.66-20.19-26.71-42.2-51.49-70.6-6.37-7.3-9.76-11.99-8.68-11.99 1.09 0 1.77-0.96 1.77-2.52 0-3.96-5.61-11.69-21.12-29.12l-2.85-3.2 6.96 0.75c5.96 0.65 6.97 0.5 6.97-1.03 0-0.98-1.87-3.5-4.17-5.61-3.19-2.92-4.1-4.54-3.85-6.91 0.25-2.48-1.41-5.06-8.45-13.13-4.83-5.53-14.38-15.29-21.23-21.69-15.53-14.51-16.45-16.47-15.41-32.69 0.97-15.21-2.28-40.34-6.22-48.01-1.42-2.75-0.47-3.43 2.33-1.68 9.77 6.1 1.23-20.73-19.49-61.23-6.99-13.65-12.7-25.26-12.7-25.79s1-1.23 2.23-1.555c3.02-0.789 2.25-2.537-6.5-14.728-15.26-21.259-33.85-40.82-48.47-51.02-28.36-19.78-68.31-32.407-107.26-33.9-2.44-0.093256-4.75-0.14177-6.96-0.137zm12.99 23.111c2.93 0.147 9.6 2.846 9.6 2.846s2.28-1.402 6.76-1.068c4.49 0.333 19.22 6.049 19.22 6.049s7.13-1.235 14.23 1.068 25.97 16.012 25.97 16.012 6.3-0.459 10.32 1.777c4.02 2.235 11.39 12.809 11.39 12.809s7.33 2.002 11.74 6.048 12.09 19.213 12.09 19.213 6.39 4.335 9.25 8.895c2.87 4.56 6.05 18.5 6.05 18.5s5 3.83 7.47 8.9c2.48 5.06 3.51 13.74 4.63 21.7 1.11 7.96 3 16.82 1.78 25.97-1.22 9.16-9.61 27.76-9.61 27.76s2.65 3.76 1.07 9.96-8.02 18.53-16.19 23.3c-8.17 4.78-28.28 2.67-28.28 2.67s-6.57 12.74-17.08 16.37c-10.52 3.63-27.13 2.28-42.88-4.27-15.74-6.56-35.27-31.93-45.71-37.72h-0.01c-10.44-5.78-11.74-3.91-11.74-3.91s-3.01 2.64-7.83 2.85-13.09-1.06-19.92-5.34-15.7-15.01-18.15-20.99c-2.45-5.99-0.05-6.8-0.71-11.03-0.66-4.24-3.28-9.83-3.56-14.23-0.27-4.41 1.43-11.75 1.43-11.75s-2.61 1.41-6.76 0.72c-4.15-0.7-10.98-3.58-16.73-7.83-5.74-4.26-13.37-10.36-16.36-18.15-2.99-7.78 0-25.613 0-25.613s-1.18-9.494 0.71-15.299 11.74-17.791 11.74-17.791 1.75-6.241 4.63-9.25 12.8-7.117 12.8-7.117 8.34-8.247 13.88-11.029c5.55-2.782 18.86-4.983 18.86-4.983s7.41-3.904 13.87-4.98 24.55 0.355 24.55 0.355 4.54-1.568 7.48-1.422zm-166.2 304.45c1.87 0 10.32 1.02 18.79 2.27 24.19 3.56 35.17 4.46 55.5 4.57 10.42 0.06 20.05 0.53 21.41 1.04 9.72 3.7 28.41 31.38 35.03 51.88 5.09 15.74 2.7 28.86-11.25 61.74-9.97 23.52-12.42 32.43-11.84 43.09 0.29 5.19-0.18 12.21-1.14 17.15-4.03 20.74-5.01 28.37-5.64 43.76-0.48 11.8-1.09 16.8-2.18 17.7-0.83 0.69-1.51 1.79-1.51 2.45 0 0.65-1.32 2.57-2.93 4.25s-2.92 4.34-2.92 5.93c0 2.19-1.66 4.19-7.01 8.44-9.83 7.83-14.22 13.05-13.46 16.05 0.46 1.85-1.61 5.21-8.7 14.11-5.12 6.42-11.37 13.55-13.9 15.84-2.53 2.28-5.48 4.11-6.55 4.06-1.07-0.04-6.02-2.76-10.99-6.03-4.97-3.28-24.79-14.57-44.04-25.11-38.22-20.92-43.99-24.64-57.3-37-29.42-27.31-51.554-54-55.14-66.5-1.271-4.43-0.686-6.2 2.817-8.49 5.226-3.42 7.833-11.48 9.753-30.15 0.81-7.91 5.45-23.37 7.42-24.75 1.05-0.74 3.76-4.02 6.02-7.31 3.9-5.67 4.6-6.13 13.51-9.04 11.12-3.62 18.64-8.39 23.67-15.02 4.09-5.39 4.86-11.36 1.99-15.46-4.73-6.75-24.47-7.87-40.7-2.3-4.6 1.58-8.56 2.68-8.81 2.43-0.25-0.24 0.85-4.58 2.44-9.65s3.04-10.42 3.23-11.89c0.28-2.14 1.36-2.92 5.49-3.97 2.83-0.71 7.28-2.87 9.9-4.8l4.76-3.5 5.16 2.6c6.47 3.27 20.22 7.63 32.18 10.19 5.06 1.09 9.2 2.37 9.2 2.86s-1.13 1.47-2.51 2.18c-3.66 1.88-8.61 6.71-10.41 10.16-4.77 9.12 2.5 20.98 11.73 19.13 3.3-0.66 4.79 0.85 2.34 2.37-2.12 1.31-5.76 15.47-5.02 19.53 1.72 9.45 14.08 15.53 20.69 10.18 2.11-1.71 3.84-1.98 9.64-1.52l7.07 0.57 4.96-5.17c2.73-2.85 6.18-7.59 7.67-10.54 1.5-2.95 4.5-7.49 6.67-10.09 4.21-5.04 5.75-10.14 4.83-16.04-0.3-1.99-1.89-13.91-3.53-26.48-4.03-31.05-4.88-32.47-22.58-37.77-4.41-1.32-8.3-2.86-8.65-3.42-0.76-1.22 10.07-4.53 14.84-4.53z" transform="matrix(.99999 0 0 .99999 2697.3 -2902.1)" fill="#6b295c"/>
   <path id="path6130" d="m3070.8-2693.5c10.257 5.6802 29.43 30.594 44.893 37.033 15.464 6.438 31.775 7.7569 42.099 4.1924 10.324-3.5644 16.77-16.07 16.77-16.07s19.751 2.0689 27.774-2.6202c8.0237-4.689 14.34-16.795 15.896-22.883 1.5557-6.0878-1.0481-9.7821-1.0481-9.7821s8.2356-18.263 9.4328-27.251c1.1973-8.9874-0.6519-17.688-1.7468-25.504-1.0949-7.8158-2.1137-16.339-4.5417-21.311-2.428-4.9715-7.3367-8.7341-7.3367-8.7341s-3.1293-13.69-5.9392-18.167c-2.8099-4.4771-9.0834-8.7342-9.0834-8.7342s-7.5475-14.893-11.878-18.866c-4.331-3.9728-11.529-5.9392-11.529-5.9392s-7.2309-10.382-11.179-12.577c-3.9488-2.1955-10.132-1.7467-10.132-1.7467s-18.532-13.46-25.504-15.722c-6.9714-2.2612-13.975-1.0482-13.975-1.0482s-14.461-5.6118-18.866-5.9392c-4.4043-0.3274-6.6379 1.0481-6.6379 1.0481s-6.552-2.6509-9.4329-2.7949c-2.8808-0.1439-7.3366 1.3975-7.3366 1.3975s-17.762-1.4062-24.107-0.3495c-6.3434 1.0569-13.625 4.8912-13.625 4.8912s-13.07 2.1594-18.516 4.8911c-5.4461 2.7318-13.625 10.831-13.625 10.831s-9.7482 4.0327-12.577 6.9873c-2.829 2.9546-4.5418 9.0835-4.5418 9.0835s-9.6721 11.768-11.529 17.469c-1.8568 5.7-0.6987 15.023-0.6987 15.023s-2.9389 17.508 0 25.154c2.9388 7.6461 10.428 13.64 16.07 17.817 5.6424 4.1777 12.343 7.001 16.42 7.686s6.638-0.6987 6.638-0.6987-1.6669 7.201-1.3975 11.529c0.2698 4.328 2.845 9.8153 3.4937 13.975 0.6486 4.1593-1.7072 4.954 0.6987 10.831 2.406 5.8763 11.11 16.408 17.817 20.613 6.7081 4.2042 14.83 5.4467 19.564 5.2405 4.7343-0.2062 7.686-2.7949 7.686-2.7949s1.272-1.8372 11.529 3.843z" stroke-dashoffset="25.8" stroke="#1e003f" stroke-linecap="square" stroke-miterlimit="0" stroke-dasharray="17.67488379, 17.67488378999999900" stroke-width="5.8916" fill="none"/>
  </g>
  <g id="text6132" stroke="#890935" stroke-width="76.801" fill="#890935">
   <path id="path4145" d="m3544.1-2352.1q-7.3144-17.555-19.749-44.618-11.703-27.063-25.6-58.515t-29.989-64.367q-15.36-33.646-29.258-62.904-13.897-29.989-26.332-53.395-11.703-23.406-19.017-35.84-8.0458 86.31-13.166 187.25-5.1201 100.21-8.7773 202.61h-69.487q2.9258-65.83 6.583-132.39 3.6572-67.292 8.0458-131.66 5.1201-65.098 10.24-126.54 5.8515-61.441 12.434-116.3h62.172q19.749 32.183 42.424 76.07 22.675 43.886 45.349 92.162 22.675 47.544 43.886 95.819 21.212 47.544 38.766 87.041 17.554-39.498 38.766-87.041 21.212-48.275 43.886-95.819 22.675-48.275 45.349-92.162 22.675-43.886 42.424-76.07h62.172q24.869 245.03 37.303 506.89h-69.487q-3.6572-102.4-8.7773-202.61-5.12-100.94-13.166-187.25-7.3144 12.434-19.749 35.84-11.703 23.406-25.6 53.395-13.897 29.258-29.989 62.904-15.36 32.915-29.258 64.367-13.897 31.452-26.332 58.515-11.703 27.063-19.018 44.618h-57.052z"/>
   <path id="path4147" d="m4017.4-2281.8h-68.024v-380.35h68.024v380.35zm-34.378-449.1q-18.286 0-31.452-11.703-12.434-12.434-12.434-32.915 0-20.48 12.434-32.183 13.166-12.434 31.452-12.434t30.72 12.434q13.166 11.703 13.166 32.183t-13.166 32.915q-12.434 11.703-30.72 11.703z"/>
   <path id="path4149" d="m4135.1-2651.2q23.406-5.8515 62.172-12.434 38.766-6.5829 89.236-6.5829 45.349 0 75.338 13.166 29.989 12.434 47.544 35.84 18.286 22.675 25.6 54.858 7.3144 32.183 7.3144 70.95v213.58h-68.024v-198.95q0-35.109-5.1201-59.978-4.3886-24.869-15.36-40.229-10.972-15.36-29.258-21.943-18.286-7.3144-45.349-7.3144-10.972 0-22.675 0.7315-11.703 0.7314-22.675 2.1943-10.24 0.7314-19.017 2.1943-8.0459 1.4629-11.703 2.1943v321.1h-68.024v-369.38z"/>
   <path id="path4151" d="m4800.8-2581.7q-12.434-10.24-35.84-19.749-23.406-9.5087-51.201-9.5087-29.258 0-50.469 10.972-20.48 10.24-33.646 29.258-13.166 18.286-19.018 43.886-5.8515 25.6-5.8515 54.858 0 66.561 32.915 103.13 32.915 35.841 87.773 35.841 27.795 0 46.081-2.1943 19.018-2.9258 29.258-5.8515v-240.64zm0-256 68.024-11.703v556.63q-23.406 6.583-59.978 13.166t-84.116 6.583q-43.886 0-78.996-13.897-35.109-13.897-59.978-39.498-24.869-25.6-38.766-62.172-13.166-37.304-13.166-83.384 0-43.886 10.972-80.458 11.703-36.572 33.646-62.904t53.395-40.961q32.183-14.629 73.144-14.629 32.915 0 57.784 8.7773 25.6 8.7773 38.035 16.823v-192.37z"/>
   <path id="path4153" d="m5075-2330.8q41.692 0 61.441-10.972 20.48-10.972 20.48-35.109 0-24.869-19.749-39.498t-65.098-32.915q-21.943-8.7772-42.424-17.554-19.749-9.5087-34.378-21.943t-23.406-29.989q-8.7773-17.554-8.7773-43.155 0-50.469 37.304-79.727 37.303-29.989 101.67-29.989 16.092 0 32.183 2.1943 16.092 1.4629 29.989 4.3886 13.897 2.1944 24.138 5.1201 10.972 2.9258 16.823 5.1201l-12.434 58.515q-10.972-5.8515-34.378-11.703-23.406-6.583-56.321-6.583-28.526 0-49.738 11.703-21.212 10.972-21.212 35.109 0 12.434 4.3887 21.943 5.1201 9.5087 14.629 17.554 10.24 7.3144 24.869 13.897 14.629 6.5829 35.109 13.897 27.063 10.24 48.275 20.48 21.212 9.5087 35.841 22.675 15.36 13.166 23.406 32.183 8.0459 18.286 8.0459 45.349 0 52.664-39.498 79.727-38.766 27.063-111.18 27.063-50.469 0-78.996-8.7773-28.526-8.0458-38.766-12.434l12.434-58.515q11.703 4.3887 37.303 13.166t68.024 8.7773z"/>
  </g>
  <g id="text6136" stroke="#b4c4ea" stroke-dasharray="32.95405428, 16.47702713" stroke-width="16.477" fill="#890935">
   <g fill-opacity=".30769">
    <path id="path4156" d="m5646.9-2323.5v71.029h-352.61v-585.99h82.021v514.96h270.59z"/>
    <path id="path4158" d="m6046.7-2472.3q0 52.426-15.22 94.705t-43.125 72.72q-27.059 30.441-65.11 47.352-38.051 16.066-82.867 16.066t-82.867-16.066q-38.051-16.912-65.955-47.352-27.059-30.441-42.279-72.72t-15.22-94.705q0-51.58 15.22-93.859 15.22-43.125 42.279-73.565 27.904-30.441 65.955-46.507 38.051-16.912 82.867-16.912t82.867 16.912q38.051 16.066 65.11 46.507 27.904 30.441 43.125 73.565 15.22 42.279 15.22 93.859zm-82.021 0q0-74.411-33.823-117.54-32.978-43.97-90.477-43.97-57.5 0-91.323 43.97-32.978 43.125-32.978 117.54 0 74.411 32.978 118.38 33.823 43.125 91.323 43.125 57.499 0 90.477-43.125 33.823-43.97 33.823-118.38z"/>
    <path id="path4160" d="m6199.7-2309.1q48.198 0 71.029-12.684 23.676-12.684 23.676-40.588 0-28.75-22.831-45.661-22.831-16.912-75.257-38.051-25.367-10.147-49.044-20.294-22.831-10.993-39.742-25.367-16.912-14.375-27.058-34.669-10.147-20.294-10.147-49.889 0-58.345 43.125-92.168 43.125-34.669 117.54-34.669 18.603 0 37.206 2.5367 18.603 1.6912 34.669 5.0735 16.066 2.5367 27.904 5.919 12.684 3.3824 19.448 5.9191l-14.375 67.646q-12.684-6.7646-39.742-13.529-27.059-7.6102-65.11-7.6102-32.978 0-57.499 13.529-24.522 12.684-24.522 40.588 0 14.375 5.0734 25.367 5.9191 10.993 16.912 20.294 11.838 8.4558 28.75 16.066t40.588 16.066q31.286 11.838 55.808 23.676 24.522 10.993 41.433 26.213 17.757 15.22 27.059 37.206 9.3013 21.14 9.3013 52.426 0 60.882-45.661 92.168-44.816 31.286-128.53 31.286-58.345 0-91.323-10.147-32.978-9.3014-44.816-14.375l14.375-67.646q13.529 5.0735 43.125 15.22 29.595 10.147 78.639 10.147z"/>
    <path id="path4162" d="m6487.5-2692.2h166.58v65.955h-166.58v202.94q0 32.978 5.0734 54.963 5.0735 21.14 15.22 33.823 10.147 11.838 25.367 16.912 15.22 5.0735 35.514 5.0735 35.514 0 56.654-7.6102 21.985-8.4558 30.441-11.838l15.22 65.11q-11.838 5.9191-41.433 14.375-29.595 9.3014-67.646 9.3014-44.816 0-74.411-10.993-28.75-11.838-46.507-34.669t-25.367-55.808q-6.7647-33.823-6.7647-77.793v-392.35l78.639-13.529v136.14z"/>
   </g>
   <g id="g4198">
    <path id="path4182" style="color-rendering:auto;text-decoration-color:#000000;color:#000000;isolation:auto;mix-blend-mode:normal;shape-rendering:auto;solid-color:#000000;block-progression:tb;text-decoration-line:none;text-decoration-style:solid;image-rendering:auto;white-space:normal;text-indent:0;text-transform:none" d="m5286-2838.4v21.014h16.477v-12.775h3.7011v-16.476h-11.939-8.2383zm36.654 8.2383h32.953v-16.476h-32.953zm49.43-8.2383h-4.0645v28.779h16.478v-28.779-8.2382h-8.2402-4.1738zm-86.084 70.445h16.477v-32.953h-16.477zm82.02 7.7636h16.478v-32.953h-16.478zm-82.02 41.666h16.477v-32.953h-16.477zm82.02 7.7657h16.478v-32.955h-16.478zm-82.02 41.666h16.477v-32.955h-16.477zm82.02 7.7637h16.478v-32.953h-16.478zm-82.02 41.666h16.477v-32.953h-16.477zm82.02 7.7636h16.478v-32.953h-16.478zm-82.02 41.666h16.477v-32.953h-16.477zm82.02 7.7656h16.478v-32.955h-16.478zm-82.02 41.666h16.477v-32.955h-16.477zm82.02 7.7637h16.478v-32.953h-16.478zm-82.02 41.666h16.477v-32.953h-16.477zm82.02 7.7637h16.478v-32.953h-16.478zm-82.02 41.666h16.477v-32.953h-16.477zm82.02 7.7656h16.478v-32.953h-16.478zm-82.02 41.666h16.477v-32.955h-16.477zm82.02 7.7637h16.478v-32.953h-16.478zm-82.02 41.666h16.477v-32.953h-16.477zm82.02-0.3594v8.2383h8.2383 8.125v-8.2383h0.1152v-24.83h-16.478zm32.84 8.2383h32.955v-16.477h-32.955zm49.432 0h32.953v-16.477h-32.953zm49.43 0h32.953v-16.477h-32.953zm49.432 0h32.953v-16.477h-32.953zm49.43 0h32.953v-16.477h-32.953zm40.024 24.715h16.476v-32.953h-16.476zm-352.61 16.836h16.477v-32.953h-16.477zm352.61 13h-3.1172v16.477h11.356 8.2382v-8.2383-21.598h-16.476zm-344.37 3.4785h-8.2383v4.7598 8.2383h8.2383 28.191v-16.477h-28.191zm44.668 12.998h32.953v-16.477h-32.953zm49.432 0h32.953v-16.477h-32.953zm49.43 0h32.953v-16.477h-32.953zm49.43 0h32.955v-16.477h-32.955zm49.432 0h32.953v-16.477h-32.953zm49.43 0h32.953v-16.477h-32.953z"/>
    <path id="path4184" style="color-rendering:auto;text-decoration-color:#000000;color:#000000;isolation:auto;mix-blend-mode:normal;shape-rendering:auto;solid-color:#000000;block-progression:tb;text-decoration-line:none;text-decoration-style:solid;image-rendering:auto;white-space:normal;text-indent:0;text-transform:none" d="m5835.5-2711.3 0.1953 16.476 4.7305-0.055 5.4258 0.064 5.2793 0.1895 5.291 0.3203 5.1543 0.4394 5.1699 0.5723 0.6152 0.084 2.2344-16.324-0.7031-0.098-0.1055-0.014-0.1035-0.012-5.3652-0.5937-0.1036-0.012-0.1035-0.01-5.416-0.461-0.1016-0.01-0.1035-0.01-5.4687-0.3301-0.1016-0.01h-0.1l-5.5234-0.1993h-0.098-0.1l-5.5762-0.066h-0.098-0.098zm-17.76 1.0293-0.1035 0.01-0.1035 0.012-5.3633 0.5937-0.1055 0.012-0.1035 0.014-5.3125 0.7266-0.1054 0.016-0.1055 0.018-5.2578 0.8574-0.1074 0.018-0.1055 0.021-5.2051 0.9903-0.1074 0.019-0.1074 0.023-5.1524 1.1231-0.1074 0.023-0.1074 0.027-5.0996 1.2539-0.1074 0.027-0.1075 0.029-0.3183 0.088 4.3672 15.887 0.2402-0.064 4.8906-1.2031 4.9356-1.0762 4.9668-0.9434 5.0547-0.8242 5.1054-0.6992 5.168-0.5723 0.5762-0.049-1.4004-16.418zm65.227 19.686 3.8398 0.836 4.877 1.1992 4.9062 1.3476 4.7422 1.4434 4.752 1.5898 4.6562 1.6973 2.4649 0.9766 6.0683-15.318-2.5644-1.0156-0.1055-0.041-0.1055-0.039-4.8886-1.7832-0.1055-0.039-0.1055-0.035-4.9414-1.6524-0.1074-0.035-0.1074-0.033-4.9942-1.5196-0.1074-0.033-0.1074-0.029-5.0469-1.3867-0.1054-0.029-0.1094-0.027-5.0996-1.2539-0.1055-0.027-0.1094-0.023-3.9804-0.8672zm-118.61-7.3242-0.1055 0.039-0.1054 0.041-4.834 1.916-0.1055 0.041-0.1035 0.045-4.7832 2.0469-0.029 0.014-0.031 0.014-4.7168 2.0624-0.1 0.045-0.098 0.045-4.6367 2.1777-0.1 0.047-0.098 0.049-4.5586 2.2891-0.098 0.049-0.098 0.053-2.7461 1.4726 7.7852 14.522 2.6445-1.418 4.3711-2.1953 4.4258-2.0781 4.5683-2 0.061-0.025 4.5976-1.9687 4.6543-1.8438 3.7012-1.3516-5.6484-15.478zm163.48 22.791 1.1836 0.5567 4.3652 2.1992 4.25 2.291 4.1328 2.3769 4.1055 2.5157 4.0195 2.6211 3.9063 2.707 0.9609 0.707 9.7656-13.272-1.0449-0.7675-0.094-0.068-0.096-0.066-4.1114-2.8516-0.096-0.066-0.098-0.062-4.1973-2.7383-0.098-0.062-0.098-0.061-4.2852-2.627-0.098-0.059-0.1-0.059-4.3692-2.5137-0.1-0.057-0.1015-0.055-4.4551-2.4004-0.1-0.055-0.1016-0.051-4.541-2.2891-0.1-0.049-0.1016-0.049-1.2929-0.6074zm-206.1-1.2012-0.094 0.061-0.094 0.064-4.1621 2.8497-0.092 0.064-0.092 0.066-4.0821 2.9629-0.09 0.064-0.09 0.068-4.004 3.0762-0.088 0.068-0.086 0.07-3.9258 3.1875-0.086 0.07-0.084 0.072-3.8457 3.3008-0.084 0.072-0.082 0.074-3.7656 3.4121-0.082 0.074-0.078 0.076-1.414 1.3496 11.387 11.91 1.3437-1.2852 3.5899-3.2519 3.6972-3.1719 3.7344-3.0332 3.8535-2.959 3.836-2.7832 3.9726-2.7246 0.4961-0.3203-8.9375-13.844zm245.34 27.024 1.584 1.3867 3.5606 3.2988 3.375 3.3086 3.3691 3.4883 3.2871 3.5977 3.3535 3.7578 3.2031 3.7929 0.053 0.066 0.021 0.025 0.9336-0.7891 11.912-9.5254-0.1172-0.1465-0.068-0.086-0.072-0.086-3.3398-3.9532-0.072-0.084-0.074-0.084-3.4375-3.8555-0.033-0.035-0.033-0.037-3.4239-3.748-0.078-0.084-0.078-0.082-3.5117-3.6367-0.078-0.082-0.082-0.08-3.5976-3.5254-0.082-0.08-0.084-0.078-3.6835-3.4122-0.084-0.078-0.088-0.076-1.6817-1.4727zm-285.04 8.0586-0.072 0.082-0.068 0.084-3.2441 3.9551-0.068 0.082-0.066 0.086-3.1504 4.0528-0.064 0.084-0.064 0.086-3.0586 4.1523-0.062 0.086-0.06 0.086-2.9668 4.252-0.059 0.086-0.059 0.088-2.873 4.3496-0.059 0.086-0.055 0.088-2.711 4.3379 13.971 8.7344 2.6504-4.2383 2.752-4.168 2.8555-4.0937 2.9414-3.9922 2.998-3.8555 3.1016-3.7832 1.2832-1.4824-12.459-10.783zm158.29-0.7813-1.4317 0.018 0.1973 16.475 1.3281-0.014 3.416 0.041 3.2598 0.1191 3.2715 0.2012 3.2871 0.289 3.0605 0.3496 3.1602 0.4493 3.0137 0.5117 3.0625 0.6113 2.916 0.668 0.709 0.1836 4.1445-15.947-0.8184-0.2129-0.1152-0.029-0.1172-0.027-3.1875-0.7305-0.1152-0.025-0.1152-0.023-3.2344-0.6446-0.1133-0.021-0.1152-0.02-3.2813-0.5586-0.1113-0.02-0.1133-0.016-3.3301-0.4727-0.1094-0.016-0.1113-0.012-3.3789-0.3867-0.1074-0.014-0.1074-0.01-3.4278-0.3008-0.1054-0.01-0.1055-0.01-3.4746-0.2149-0.1035-0.01h-0.1035l-3.5215-0.1289h-0.1016-0.1l-3.5703-0.043h-0.1zm-21.783 1.627-0.1114 0.016-0.1113 0.018-3.2949 0.5586-0.1133 0.02-0.1113 0.023-3.2481 0.6426-0.1152 0.024-0.1133 0.025-3.2012 0.7305-0.1152 0.027-0.1152 0.029-3.1543 0.8164-0.1172 0.029-0.1152 0.033-3.1075 0.9023-0.1191 0.033-0.1152 0.039-3.0625 0.9863-0.1172 0.039-0.1153 0.041-3.0156 1.0722-0.1191 0.043-0.1153 0.045-2.9687 1.1602-0.1172 0.045-0.1152 0.049-2.9239 1.2461-0.1171 0.049-0.1133 0.053-0.7676 0.3555 6.918 14.953 0.6679-0.3066 2.7071-1.1524 2.7304-1.0644 2.7422-0.9786 2.8301-0.9121 2.8672-0.834 2.9258-0.7558 2.9843-0.6817 3.045-0.6035 3.0293-0.5136 2.7753-0.3926-2.3085-16.314zm65.457 23.115 1.5371 0.6602 2.6172 1.2207 2.5937 1.3086 2.5469 1.3886 2.4551 1.4395 2.4453 1.5391 2.4453 1.6484 2.336 1.6836 2.3183 1.7773 2.2832 1.8692 1.961 1.7031 10.81-12.434-2.0625-1.793-0.094-0.082-0.096-0.078-2.4688-2.0196-0.098-0.078-0.1-0.078-2.5156-1.9316-0.1016-0.076-0.1035-0.074-2.5625-1.8477-0.1035-0.074-0.1074-0.072-2.6113-1.7597-0.1055-0.072-0.1094-0.068-2.6601-1.6738-0.1094-0.068-0.1113-0.066-2.7071-1.5879-0.1113-0.066-0.1133-0.061-2.7558-1.5039-0.1133-0.061-0.1153-0.059-2.8027-1.4179-0.1152-0.057-0.1172-0.055-2.8496-1.3321-0.1172-0.053-0.1172-0.051-1.6933-0.7285zm114.37 3.3203 2.291 3.3887 2.7618 4.3203 2.6269 4.3535 2.5391 4.4629 2.4336 4.5352 2.3613 4.6777 0.8086 1.7012 14.883-7.0703-0.8535-1.7969-0.043-0.09-0.045-0.09-2.4473-4.8457-0.045-0.09-0.049-0.09-2.5469-4.7461-0.049-0.092-0.051-0.09-2.6465-4.6465-0.051-0.092-0.055-0.09-2.7441-4.5489-0.055-0.09-0.059-0.09-2.8437-4.4492-0.057-0.09-0.06-0.09-2.3594-3.4863zm-227.78-7.7461-0.1035 0.068-0.1015 0.072-2.5996 1.8476-0.1016 0.072-0.1 0.074-2.5528 1.9316-0.1 0.076-0.096 0.076-2.5078 2.0176-0.094 0.078-0.094 0.078-2.4609 2.1055-0.092 0.078-0.088 0.08-2.416 2.1894-0.088 0.08-0.084 0.082-2.3691 2.2754-0.084 0.082-0.082 0.084-2.3223 2.3613-0.08 0.082-0.078 0.084-2.2774 2.4473-0.076 0.082-0.074 0.086-2.2285 2.5332-0.074 0.082-0.07 0.086-1.1797 1.416 12.656 10.549 1.0879-1.3046 2.0761-2.3614 2.1407-2.3047 2.1679-2.205 2.1992-2.1133 2.2364-2.0274 2.2929-1.9609 2.3379-1.8809 2.336-1.7656 2.3711-1.6836 1.3086-0.8711-9.129-13.717zm149.58 31.629 0.1875 0.2168 1.9922 2.4453 2.0039 2.5997 0.023 0.031 2.0313 2.6621 0.025 0.033 1.8086 2.5059 1.8418 2.6894 1.7813 2.752 1.7012 2.7832 1.6308 2.8223 1.5899 2.9199 0.6308 1.2265 14.658-7.5234-0.666-1.2988-0.047-0.09-0.049-0.09-1.6836-3.0918-0.049-0.09-0.053-0.09-1.75-3.0313-0.051-0.09-0.055-0.088-1.8164-2.9707-0.055-0.09-0.059-0.088-1.8828-2.9102-0.057-0.088-0.06-0.088-1.9473-2.8476-0.06-0.088-0.062-0.086-2.0156-2.7872-0.062-0.088-0.065-0.084-2.082-2.7266-0.012-0.016-0.012-0.014-2.084-2.707-0.068-0.086-0.068-0.086-2.1328-2.6191-0.072-0.088-0.072-0.084-0.2695-0.3145zm-267.55-5.4453-0.041 0.086-0.041 0.086-2.3184 4.9453-0.041 0.084-0.037 0.086-2.2266 5.045-0.037 0.084-0.035 0.086-2.1347 5.1426-0.033 0.084-0.033 0.084-2.041 5.2422-0.033 0.082-0.029 0.082-1.9493 5.3418-0.023 0.062-0.021 0.064-0.022 0.059 11.277 3.9063 4.2675 1.5566 0.025-0.07 1.8926-5.1836 1.9883-5.1113 0.021-0.053 2.0371-4.9023 2.1445-4.8574 2.2539-4.8086 2.1875-4.3946-14.752-7.3398zm81.789 12.582-0.055 0.088-0.053 0.088-1.7715 2.9707-0.053 0.088-0.051 0.09-1.707 3.0312-0.049 0.088-0.047 0.09-1.6426 3.0918-0.047 0.09-0.045 0.088-1.5781 3.1543-0.045 0.088-0.041 0.09-1.5137 3.2149-0.041 0.088-0.039 0.088-1.4492 3.2754-0.039 0.088-0.037 0.088-1.3848 3.336-0.035 0.088-0.035 0.086-1.3203 3.3984-0.033 0.086-0.031 0.086-0.8145 2.2441 15.488 5.6231 0.7812-2.1504 1.2618-3.2481 1.3007-3.1347 1.4043-3.1738 0.012-0.025 1.3828-2.9375 1.5156-3.0235 1.5352-2.8926 1.5488-2.7519 0.027-0.045 1.6973-2.8477 1.1152-1.7695-13.934-8.791zm286.14 10.986 1.3457 3.4394 0.014 0.037 1.8692 5.1211 0.018 0.047 1.7636 5.0938 1.6524 5.166 1.5566 5.2969 1.4492 5.4043 0.1621 0.666 16.008-3.9004-0.1895-0.7852-0.023-0.092-0.025-0.092-1.4864-5.539-0.025-0.094-0.025-0.094-1.6055-5.4668-0.027-0.094-0.031-0.092-1.7246-5.3945-0.029-0.094-0.033-0.094-1.8418-5.3223-0.023-0.066-0.024-0.064-1.9531-5.3418-0.031-0.088-0.033-0.086-1.3613-3.4765zm-71.504 19.805-5.2461 1.9531 0.045 0.1191 1.2129 3.2559 1.1328 3.2598 0.014 0.045 1.1171 3.457 1.0489 3.5098 0.014 0.043 0.9609 3.4804 0.9141 3.5977 0.8515 3.6504 0.791 3.7226 0.416 2.166 16.182-3.1132-0.4317-2.2422-0.016-0.076-0.016-0.078-0.8262-3.8867-0.018-0.08-0.017-0.078-0.8926-3.8261-0.018-0.08-0.021-0.08-0.957-3.7656-0.022-0.082-0.023-0.082-1.0235-3.7031-0.023-0.084-0.023-0.082-1.0899-3.6426-0.025-0.086-0.027-0.084-1.1563-3.5801-0.027-0.086-0.031-0.086-1.2207-3.5195-0.031-0.088-0.031-0.086-1.289-3.459-0.033-0.088-0.033-0.088-0.024-0.055zm-312.79-0.1289-0.027 0.094-0.025 0.094-1.4863 5.539-0.025 0.092-0.022 0.092-1.3672 5.6114-0.023 0.092-0.02 0.092-1.2481 5.6856-0.019 0.09-0.02 0.09-1.1289 5.7578-0.017 0.09-0.016 0.09-1.0097 5.8301-0.016 0.088-0.014 0.088-0.5059 3.3477 16.293 2.4629 0.4961-3.2832 0.9765-5.6445 1.0918-5.5508 1.2149-5.5332 1.3105-5.3848 1.4453-5.3867 0.1-0.3321-15.81-4.6425zm78.193 18.894-0.019 0.078-0.018 0.08-0.8691 3.8262-0.018 0.076-0.016 0.078-0.8067 3.8867-0.016 0.076-0.014 0.076-0.7402 3.9473-0.014 0.074-0.014 0.074-0.6757 4.0098-0.012 0.072-0.012 0.072-0.6113 4.0703-0.012 0.072-0.01 0.07-0.5489 4.1328-0.01 0.068-0.01 0.07-0.4825 4.1914-0.01 0.068-0.01 0.068-0.066 0.6758 16.396 1.6152 0.053-0.541v-0.016l0.4746-4.1289 0.01-0.047 0.5312-3.9922 0.584-3.875 0.01-0.053 0.6485-3.834v-0.029l0.7109-3.7812v-0.02l0.7754-3.7343 0.8164-3.5899 0.8946-3.6074-15.992-3.9668zm319.53 7.4004-0.1543 0.027 0.018 0.09 0.9902 5.7129v0.023l0.8574 5.6816 0.01 0.043 0.7285 5.6309v0.035l0.6465 5.9766v0.037l0.5059 5.7871v0.033l0.1758 2.5977 16.44-1.1055-0.1778-2.6309v-0.082l-0.01-0.084-0.5352-6.1191-0.01-0.084-0.01-0.084-0.6524-6.0488-0.01-0.086-0.012-0.086-0.7734-5.9746-0.01-0.086-0.014-0.088-0.8926-5.9024-0.012-0.088-0.016-0.088-1.0117-5.8301-0.016-0.09-0.018-0.09-0.033-0.1758zm-79.258 21.787 0.1993 1.6875v0.041l0.4238 4.2012v0.012l0.3477 4.1309v0.047l0.2793 4.1133v0.059l0.2207 4.252v0.049l0.1601 4.3262v0.043l0.098 4.3946v0.047l0.033 4.4571v0.059 0.059l-0.033 4.457v0.047l-0.098 4.4004v0.041l-0.1601 4.33v0.049l-0.2168 4.1855v0.064l-0.2832 4.1875v0.047l-0.3477 4.1406v0.014l-0.1621 1.6113 16.394 1.6504 0.1641-1.625 0.01-0.066 0.01-0.068 0.3633-4.3242 0.01-0.066 0.01-0.066 0.2969-4.3828v-0.064-0.064l0.2304-4.4434v-0.062-0.062l0.166-4.502v-0.062-0.061l0.1-4.5625v-0.059-0.061l0.033-4.6211-8.2382-0.059 8.2382-0.059-0.033-4.6211v-0.061-0.059l-0.1-4.5605v-0.061-0.062l-0.166-4.498v-0.062-0.062l-0.2304-4.4375v-0.064-0.064l-0.2969-4.377-0.01-0.066-0.01-0.066-0.3633-4.3144-0.01-0.068-0.01-0.068-0.4297-4.252-0.01-0.07-0.01-0.07-0.2149-1.8262zm-327.86 5.9902-0.01 0.084-0.01 0.082-0.416 6.1934-0.01 0.08v0.082l-0.2969 6.2656v0.08 0.078l-0.1777 6.3399v0.076 0.078l-0.059 6.4121v0.074 0.076l0.029 3.3633 16.476-0.1504-0.031-3.2871 0.06-6.3086v-0.027l0.1739-6.0957 0.291-6.1367 0.3965-5.9238v-0.035l0.375-4.3066-16.414-1.4356zm81.338 11.832v0.062 0.061l-0.1601 4.4981v0.061 0.061l-0.096 4.5585v0.059 0.059l-0.033 4.6192v0.059 0.057l0.033 4.6211v0.059 0.059l0.096 4.5625v0.059 0.061l0.1601 4.502v0.062 0.061l0.2266 4.4434v0.062 0.062l0.057 0.8594 16.441-1.086-0.049-0.7344v-0.027l-0.2227-4.416-0.1523-4.2578v-0.029l-0.096-4.416v-0.039l-0.033-4.4668v-0.057-0.059l0.033-4.4649v-0.039l0.096-4.4141v-0.029l0.1523-4.2539 0.014-0.2734-16.457-0.836zm330.27 8.0527 0.057 6.043-0.061 6.4218v0.016l-0.1719 6.205-0.2929 6.2305v0.045l-0.3945 5.9512v0.043l-0.5293 6.1328v0.021l-0.1035 0.959 16.383 1.7519 0.1211-1.1269 0.01-0.084 0.01-0.082 0.5352-6.1972 0.01-0.082 0.01-0.082 0.416-6.2754v-0.08-0.08l0.2988-6.3555v-0.078-0.078l0.1777-6.4335v-0.078-0.076l0.06-6.5137-8.1855-0.074 8.1855-0.076-0.057-6.1191zm-412 26.416 0.3808 5.75 0.01 0.082 0.01 0.082 0.5351 6.1972 0.01 0.082 0.01 0.084 0.6543 6.1171 0.01 0.086 0.01 0.084 0.7734 6.039 0.012 0.086 0.014 0.088 0.8906 5.957 0.014 0.09 0.016 0.088 0.459 2.668 16.238-2.791-0.4531-2.6348-0.01-0.035-0.8555-5.7266-0.7363-5.75v-0.014l-0.6464-6.0488-0.5215-6.041v-0.043l-0.3692-5.5859zm83.576 16.098 0.5352 4.0566 0.01 0.07 0.01 0.07 0.6133 4.086 0.01 0.072 0.014 0.072 0.6757 4.0254 0.012 0.074 0.014 0.074 0.7403 3.9668 0.016 0.076 0.016 0.074 0.8047 3.9082 0.016 0.076 0.018 0.076 0.8691 3.8476 0.018 0.078 0.02 0.078 0.9336 3.789 0.02 0.08 0.021 0.078 0.998 3.7305 0.022 0.08 0.023 0.08 0.2539 0.8808 15.828-4.584-0.2364-0.8144-0.9472-3.5371-0.8965-3.6406-0.836-3.6876-0.7773-3.7792-0.7168-3.8379-0.01-0.043-0.627-3.7344-0.01-0.045-0.5977-3.9863-0.01-0.055-0.5156-3.9141zm242.6 9.5976-0.7383 3.8594-0.01 0.049-0.7832 3.7012-0.012 0.053-0.8477 3.6446-0.01 0.047-0.9024 3.5586-0.9746 3.5567-1.0156 3.4199-0.012 0.039-1.1192 3.4941-0.8691 2.5234 15.58 5.3614 0.9003-2.6133 0.029-0.084 0.027-0.086 1.1562-3.6094 0.025-0.084 0.025-0.082 1.0899-3.6699 0.025-0.082 0.021-0.082 1.0235-3.7305 0.023-0.08 0.019-0.082 0.959-3.7871 0.02-0.08 0.017-0.08 0.8926-3.8476 0.018-0.078 0.018-0.078 0.8261-3.9082 0.016-0.076 0.014-0.078 0.7598-3.9668 0.016-0.074 0.012-0.076 0.4785-2.7714-16.238-2.7969zm82.195 2.4239v0.027l-0.9922 5.7754-1.1055 5.6719-0.01 0.027-1.1933 5.4551-1.3164 5.4316-1.4375 5.3809-0.8184 2.8008 15.812 4.6308 0.8457-2.8847 0.027-0.094 0.023-0.096 1.4863-5.5605 0.025-0.094 0.024-0.094 1.3671-5.6407 0.021-0.092 0.022-0.094 1.2481-5.7207 0.02-0.09 0.018-0.092 1.1289-5.7988 0.018-0.09 0.016-0.09 1.0117-5.8789 0.014-0.088 0.014-0.09 0.098-0.6465-16.295-2.4394zm-401.19 22.152 1.0254 4.2266 0.021 0.094 0.025 0.094 1.4864 5.5605 0.025 0.096 0.027 0.094 1.6055 5.4824 0.027 0.096 0.029 0.094 1.7246 5.4043 0.031 0.096 0.033 0.094 1.8418 5.3262 0.031 0.088 0.033 0.088 1.9492 5.2403 0.031 0.082 0.031 0.082 0.088 0.2207 15.316-6.0761-0.041-0.1035-1.8906-5.0762-1.793-5.1836-1.6738-5.2442-0.014-0.045-1.5254-5.2129-1.4355-5.3769-0.9981-4.1211zm88.521 15.615 0.4825 1.252 0.033 0.086 0.035 0.086 1.3848 3.373 0.035 0.086 0.037 0.086 1.4492 3.3125 0.039 0.088 0.041 0.086 1.5136 3.2539 0.039 0.088 0.043 0.086 1.5781 3.1934 0.043 0.088 0.047 0.088 1.6426 3.1328 0.045 0.088 0.049 0.088 1.707 3.0742 0.049 0.088 0.051 0.086 1.7715 3.0156 0.051 0.088 0.053 0.086 1.8359 2.957 0.055 0.086 0.055 0.086 1.7383 2.6484 13.777-9.0371-1.7089-2.6074-0.027-0.041-1.6641-2.6836-1.6718-2.8457-1.6172-2.9102-1.5059-2.873-0.021-0.041-1.5351-3.1094-0.021-0.043-1.3945-3.0039-1.3789-3.1523-1.293-3.1485-0.4609-1.1953zm216.16 4.5801-1.5371 3.0352-1.5977 2.9707-1.6386 2.8789-1.6621 2.7617-0.029 0.045-1.7891 2.8106-1.8359 2.7324-1.9082 2.6875-1.9473 2.5996-1.1738 1.4922 12.955 10.182 1.2286-1.5644 0.059-0.074 0.057-0.076 2.082-2.7774 0.062-0.084 0.061-0.086 2.0156-2.8379 0.06-0.084 0.057-0.088 1.9492-2.8964 0.059-0.086 0.055-0.086 1.8828-2.957 0.055-0.086 0.053-0.088 1.8184-3.0156 0.051-0.088 0.051-0.088 1.75-3.0742 0.051-0.088 0.047-0.09 1.6855-3.1328 0.047-0.088 0.045-0.09 1.6172-3.1933 0.045-0.088 0.043-0.088 1.2129-2.5449-14.869-7.0957zm83.58 6.1152-1.9883 4.9903-2.0781 4.8847-2.1504 4.7461-2.2735 4.711-2.3632 4.6152-1.1817 2.1738 14.475 7.8711 1.2305-2.2636 0.047-0.088 0.047-0.09 2.4472-4.7754 0.045-0.088 0.043-0.09 2.3496-4.8691 0.043-0.088 0.039-0.09 2.25-4.9609 0.039-0.088 0.039-0.088 2.1504-5.0547 0.037-0.086 0.035-0.088 2.0508-5.1465 0.033-0.088 0.033-0.086 1.0918-2.9317-15.439-5.7519zm-371.55 21.922 2.2109 4.6387 0.041 0.086 0.041 0.084 2.4121 4.7754 0.043 0.088 0.045 0.084 2.5039 4.6836 0.047 0.086 0.049 0.086 2.5957 4.5918 0.049 0.086 0.051 0.084 2.6875 4.5 0.053 0.086 0.053 0.084 2.7812 4.4062 0.055 0.086 0.057 0.084 0.7911 1.1894 13.713-9.1348-0.75-1.1269-2.6621-4.2168-2.5898-4.334-2.5059-4.4355-2.3906-4.4688-2.3223-4.6015-2.1796-4.5762zm98.623 12.096 0.5528 0.6172 0.076 0.084 0.076 0.082 2.2774 2.4004 0.078 0.084 0.082 0.08 2.3223 2.3164 0.082 0.082 0.086 0.08 2.3671 2.2324 0.086 0.082 0.09 0.078 2.4141 2.1484 0.09 0.08 0.092 0.076 2.461 2.0644 0.094 0.078 0.096 0.074 2.5059 1.9804 0.096 0.076 0.1 0.072 2.5527 1.8964 0.1 0.072 0.1016 0.072 2.5996 1.8105 0.1016 0.07 0.1054 0.068 2.6446 1.7266 0.1054 0.068 0.1075 0.066 2.6796 1.6348 8.5821-14.066-2.5645-1.5645-2.4961-1.6289-2.3828-1.6621-2.334-1.7344-2.3007-1.8164-2.2969-1.9277-2.2305-1.9844-2.164-2.041-2.17-2.1621-2.1328-2.25-0.4668-0.5215zm163.09-3.9648-2.1797 1.9726-2.25 1.92-2.2519 1.8066-2.3282 1.7539-2.3984 1.6914-2.3789 1.5723-2.4473 1.5117-2.4609 1.416-2.5274 1.3516-2.5547 1.2676-0.086 0.039-0.061 0.029 0.9668 1.9512 5.9512 12.998 0.1699-0.078 0.1152-0.053 0.1153-0.057 2.8027-1.3906 0.1133-0.057 0.1133-0.059 2.7558-1.4746 0.1133-0.061 0.1094-0.064 2.709-1.5567 0.1093-0.064 0.1094-0.066 2.6602-1.6426 0.1074-0.066 0.1074-0.07 2.6114-1.7285 0.1054-0.068 0.1035-0.074 2.5645-1.8106 0.1035-0.072 0.1-0.076 2.5176-1.8945 0.1-0.076 0.098-0.078 2.4668-1.9786 0.098-0.078 0.094-0.08 2.4199-2.0644 0.094-0.08 0.092-0.082 2.3711-2.1465 0.09-0.082 0.088-0.084 0.9375-0.9004-11.412-11.885zm88.615 11.379-2.8008 4.1055-2.9511 4.0957-2.9922 3.9316-3.0742 3.8281-3.1953 3.7774-3.2305 3.6191 12.291 10.975 3.2656-3.6582 0.072-0.082 0.07-0.082 3.3398-3.9434 0.068-0.082 0.068-0.084 3.2402-4.0371 0.066-0.084 0.065-0.084 3.1425-4.1289 0.065-0.086 0.062-0.086 3.041-4.2226 0.062-0.086 0.061-0.086 2.9433-4.3145 0.059-0.088 0.057-0.088 1.1348-1.7579-13.844-8.9355zm-208.34 22.801 2.334 0.8945 0.1133 0.043 0.1172 0.041 3.0156 1.0527 0.1152 0.041 0.1153 0.035 3.0625 0.9687 0.1133 0.037 0.1152 0.033 3.1094 0.8848 0.1133 0.031 0.1152 0.029 3.1543 0.8007 0.1133 0.029 0.1132 0.025 3.2012 0.7149 0.1133 0.025 0.1113 0.022 3.2481 0.6328 0.1113 0.021 0.1113 0.018 3.293 0.5469 0.1094 0.019 0.1093 0.016 3.3399 0.4628 0.1074 0.014 0.1074 0.014 3.3848 0.3789 0.1055 0.012 0.1074 0.01 0.8555 0.074 1.4101-16.416-0.7715-0.066-3.164-0.3554-3.1016-0.4317-3.1094-0.5156-2.9902-0.582-3-0.67-2.8574-0.7265-2.9004-0.8242-2.8418-0.8985-2.8438-0.9922-2.1738-0.834zm79.488-11.85-2.918 0.746-2.9765 0.6661-3.0313 0.5918-3.0351 0.5058-3.0899 0.4297-3.1464 0.3535-3.2266 0.2774-3.2813 0.1992-3.2812 0.1172h-0.1992l0.1953 16.476h0.2597 0.098 0.1l3.5215-0.1269h0.1016l0.1015-0.01 3.4746-0.2109 0.1035-0.01 0.1036-0.01 3.4277-0.2949 0.1055-0.01 0.1054-0.012 3.3789-0.3809 0.1075-0.012 0.1093-0.014 3.3301-0.4648 0.1094-0.014 0.1113-0.019 3.2813-0.5469 0.1133-0.02 0.1113-0.021 3.2344-0.6308 0.1132-0.024 0.1133-0.025 3.1875-0.7148 0.1133-0.027 0.1152-0.027 3.1387-0.8008 0.1152-0.029 0.1153-0.033 2.2695-0.6504-4.5312-15.84zm-194.95 13.236 1.6601 2.125 0.065 0.082 0.066 0.082 3.2422 3.9434 0.068 0.08 0.068 0.08 3.336 3.8515 0.1093 0.127 0.1153 0.123 3.5273 3.752 0.072 0.076 0.074 0.074 3.6055 3.6465 0.074 0.074 0.076 0.072 3.6856 3.5411 0.078 0.074 0.078 0.072 3.4473 3.1446 11.104-12.174-3.332-3.039-3.5762-3.4336-3.4238-3.4629-3.3809-3.5957-3.1543-3.6426-3.0859-3.748-1.6113-2.0664zm291.77 13.131-3.586 3.168-3.7109 3.1016-3.748 2.9668-3.8457 2.875-3.959 2.8008-3.045 2.0293 9.1446 13.707 3.164-2.1113 0.092-0.061 0.09-0.064 4.1133-2.9063 0.09-0.064 0.09-0.066 4.0274-3.0136 0.088-0.066 0.088-0.068 3.9414-3.1191 0.086-0.068 0.086-0.072 3.8554-3.2226 0.086-0.072 0.084-0.074 3.7676-3.3301 0.084-0.072 0.082-0.076 2.9297-2.7344-11.238-12.049zm-254.92 22.873 3.4336 2.5332 0.086 0.064 0.088 0.061 4.1621 2.9082 0.088 0.061 0.088 0.059 4.2422 2.8008 0.088 0.059 0.092 0.057 4.3203 2.6953 0.09 0.057 0.092 0.055 4.3985 2.5898 0.092 0.053 0.092 0.051 4.4785 2.4843 0.092 0.051 0.094 0.049 2.8457 1.4844 7.6211-14.607-2.7441-1.4336-4.2617-2.3613-4.293-2.5274-4.1016-2.5586-4.0253-2.6582-4.0313-2.8144-3.3418-2.4668zm215.17 4.418-4.4316 2.1757-4.4766 2.0567-4.4375 1.8047-4.6484 1.7519-4.6992 1.6289-1.7871 0.5664 4.9863 15.705 1.8789-0.5957 0.1035-0.033 0.1016-0.035 4.8886-1.6954 0.1016-0.035 0.1016-0.039 4.8359-1.8183 0.1016-0.039 0.1015-0.041 4.7813-1.9453 0.1699-0.068 0.168-0.078 4.7129-2.166 0.096-0.045 0.096-0.045 4.6269-2.2734 0.096-0.047 0.094-0.049 4.5429-2.3789 0.096-0.051 0.094-0.051 0.01-0.01-4.1738-7.4864-3.668-7.0039zm-170.56 20.99 0.9024 0.3672 0.1 0.041 0.1015 0.039 4.836 1.8183 0.1016 0.039 0.1035 0.035 4.8867 1.6954 0.1035 0.035 0.1016 0.033 4.9414 1.5684 0.1035 0.033 0.1035 0.029 4.9941 1.4433 0.1016 0.029 0.1035 0.027 5.0469 1.3183 0.1035 0.025 0.1035 0.025 5.0996 1.1914 0.1016 0.023 0.1035 0.021 0.7871 0.1641 3.3399-16.135-0.6504-0.1347-4.9121-1.1485-4.8653-1.2695-4.791-1.3848-4.7344-1.5039-4.6777-1.6211-4.668-1.7578-0.7617-0.3105zm128.7-6.2949-0.043 0.01-4.9062 1.0176-0.041 0.01-5.0996 0.9219-4.9942 0.7754-5.1348 0.666-5.1992 0.5469-3.7988 0.3086 1.332 16.424 3.9297-0.3184 0.098-0.01 0.098-0.012 5.3653-0.5644 0.1-0.01 0.1-0.014 5.3105-0.6894 0.1016-0.014 0.1-0.016 5.2578-0.8164 0.1016-0.016 0.1015-0.018 5.2071-0.9414 0.1015-0.02 0.1016-0.019 5.1523-1.0684 0.1036-0.021 0.1035-0.023 2.3242-0.543-3.75-16.045zm-78.934 19.244 3.916 0.5078 0.1 0.014 0.1 0.01 5.3633 0.5644 0.098 0.012 0.1 0.01 5.416 0.4395 0.098 0.01 0.098 0.01 5.4688 0.3125 0.096 0.01h0.096l5.5234 0.1875h0.094 0.094l5.5762 0.062h0.092 0.094l1.5957-0.018-0.1855-16.477-1.5078 0.018-5.3692-0.059-5.3945-0.1856-5.2422-0.3007-5.1758-0.4219-5.2031-0.5469-3.8144-0.4941z"/>
    <path id="path4186" style="color-rendering:auto;text-decoration-color:#000000;color:#000000;isolation:auto;mix-blend-mode:normal;shape-rendering:auto;solid-color:#000000;block-progression:tb;text-decoration-line:none;text-decoration-style:solid;image-rendering:auto;white-space:normal;text-indent:0;text-transform:none" d="m6236-2694.9 3.9922 0.1015 4.4785 0.1915h0.033l4.4571 0.2656h0.053l4.4356 0.3418 4.4492 0.4161h0.039l4.6036 0.5097h0.01l4.5117 0.5781 0.1231 0.016 0.123 0.012 0.9356 0.092 1.5976-16.4-0.8047-0.078-4.5351-0.5801-0.068-0.01-0.068-0.01-4.6524-0.5156-0.068-0.01-0.068-0.01-4.6523-0.4355-0.068-0.01h-0.07l-4.6504-0.3575-0.07-0.01h-0.068l-4.6504-0.2774h-0.07-0.07l-4.6504-0.1973h-0.07-0.07l-3.9961-0.1016zm-19.08-16.221h-0.066-0.064l-4.4356 0.2364h-0.066-0.066l-4.3769 0.3047-0.068 0.01-0.066 0.01-4.3164 0.373-0.068 0.01-0.07 0.01-4.2539 0.4414-0.07 0.01-0.072 0.01-4.1914 0.5078-0.074 0.01-0.072 0.012-4.1309 0.5742-0.076 0.012-0.074 0.012-4.0703 0.6426-0.076 0.012-0.076 0.014-0.4864 0.086 2.877 16.225 0.4179-0.074 3.8379-0.6074 3.9805-0.5567 0.049-0.01 4.0938-0.4961 0.051-0.01 3.9707-0.4102h0.039l4.2598-0.3671h0.016l4.1953-0.291h0.045l4.1738-0.2227h0.062l2.4453-0.092-0.6211-16.465zm67.354 20.644 0.6406 0.09h0.031l4.0547 0.623 0.057 0.01 0.064 0.01 4.086 0.6934h0.01l3.9687 0.7363 0.039 0.01 3.9277 0.793 0.1231 0.025 0.125 0.021 7.6132 1.293 0.039 0.01 3.5352 0.6699 0.025 0.01 3.4082 0.6953 0.039 0.01h0.012l0.068 0.014 0.9355-4.5742 2.5372-11.531-0.051-0.012-0.061-0.014-0.06-0.012-3.5547-0.7265-0.055-0.012-0.057-0.012-3.6875-0.6992-0.078-0.016-0.078-0.014-7.6543-1.3008-3.9199-0.7929-0.065-0.012-0.066-0.012-4.1347-0.7676-0.062-0.012-0.062-0.01-4.2149-0.7149-0.062-0.01-0.06-0.01-4.2949-0.6602-0.059-0.01-0.059-0.01-0.6739-0.094zm-118.33-13.07-0.084 0.021-0.084 0.023-3.7032 1.0489-0.084 0.025-0.086 0.025-3.6426 1.1172-0.086 0.027-0.086 0.027-3.5801 1.1856-0.088 0.029-0.088 0.029-3.5195 1.254-0.088 0.031-0.088 0.033-3.459 1.3203-0.09 0.033-0.088 0.037-3.3985 1.3887-0.09 0.035-0.088 0.039-3.3379 1.4571-0.09 0.039-0.09 0.041-3.2754 1.5235-0.092 0.043-0.09 0.045-0.207 0.1015 7.3086 14.768 0.029-0.016 0.037-0.018 3.1797-1.4785 3.1562-1.377 3.1855-1.3008 3.2559-1.2441 3.3438-1.1894 3.4453-1.1407 3.4375-1.0547 3.5742-1.0117 2.7383-0.7148-4.1582-15.945zm165.7 22.688 2.7872 0.7656 0.053 0.014 4.918 1.4394 0.029 0.01 1.125 0.3574-1.7715 8.336 16.117 3.4238 3.2968-15.52 1.5039-7.0782-6.8261-2.4043-3.752-1.3222-0.1211-0.041-0.1211-0.039-4.4922-1.4277-0.088-0.027-0.09-0.027-5.2324-1.5313-0.068-0.02-0.068-0.019-2.8399-0.7793zm-211.37-2.7715-0.09 0.057-0.088 0.059-2.9082 1.9297-0.09 0.059-0.088 0.062-2.8476 1.9981-0.088 0.061-0.086 0.064-2.7871 2.0644-0.086 0.064-0.086 0.066-2.7266 2.1328-0.045 0.037-0.047 0.037-2.6523 2.1367-0.086 0.07-0.084 0.07-2.5683 2.1875-0.086 0.072-0.084 0.074-2.4844 2.2343-0.086 0.076-0.082 0.078-2.4004 2.2813-0.084 0.082-0.082 0.082-2.3164 2.3282-0.084 0.084-0.08 0.086-0.9082 0.9668 12.014 11.277 0.8223-0.8769 2.1582-2.17 2.2109-2.1015 2.3379-2.1016 2.4414-2.0761 2.4297-1.959 0.072-0.057 0.02-0.016 2.5488-1.9941 2.6543-1.9649 2.6856-1.8828 0.035-0.023 2.6602-1.7618 0.75-0.4707-8.752-13.961zm208.24 62.043 16.117 3.4258 6.8496-32.234-16.117-3.4238zm-246.46-25.475-0.07 0.1035-0.068 0.1055-1.7265 2.664-0.068 0.1055-0.064 0.1074-1.6426 2.7129-0.066 0.1074-0.061 0.1094-1.5586 2.7617-0.062 0.1094-0.059 0.1113-1.4746 2.8086-0.057 0.1113-0.057 0.1133-1.3886 2.8555-0.055 0.1133-0.051 0.1133-1.3066 2.9043-0.051 0.1132-0.047 0.1153-1.2227 2.9531-0.047 0.1133-0.043 0.1152-1.1367 3-0.045 0.1152-0.039 0.1153-1.0527 3.0469-0.039 0.1152-0.037 0.1152-0.8301 2.6524 15.727 4.9199 0.7969-2.5469 0.9746-2.8242 1.0273-2.7109 1.1348-2.7422 1.207-2.6875 1.293-2.6602 1.3613-2.5918 1.4082-2.4961 1.5195-2.5078 1.6075-2.4805 0.7714-1.1152-13.549-9.3769zm144.67 1.6386h-0.1094-0.1094l-4.0234 0.1582-0.1114 0.01-0.1132 0.01-3.9571 0.2637-0.1152 0.01-0.1152 0.01-3.8907 0.3711-0.1191 0.012-0.1172 0.014-3.8262 0.4766-0.1211 0.014-0.121 0.019-3.7579 0.582-0.125 0.018-0.123 0.023-3.6934 0.6875-0.1269 0.023-0.125 0.027-3.627 0.793-0.1289 0.027-0.1269 0.033-3.5606 0.8985-0.1308 0.033-0.1289 0.037-1.75 0.5019 4.5507 15.836 1.6114-0.4629 3.3144-0.836 3.375-0.7382 3.4141-0.6348 3.5625-0.5508 3.5762-0.4453 3.6777-0.3477 3.6992-0.2461 3.7891-0.1503h0.33l-0.2128-16.477zm16.746 16.652 0.9472 0.031h0.01l4.3301 0.2012h0.021l4.3477 0.2656 4.1503 0.3184h0.01l4.0235 0.371h0.047l3.9785 0.4335 3.836 0.4825 0.053 0.01 3.7676 0.543h0.031l2.1836 0.3535 2.6348-16.264-2.332-0.3789-0.074-0.012-0.074-0.01-3.9414-0.5665-0.07-0.01-0.072-0.01-4.0273-0.5059-0.068-0.01-0.068-0.01-4.1133-0.4473-0.066-0.01-0.066-0.01-4.1973-0.3867-0.064-0.01-0.065-0.01-4.2832-0.3262-0.062-0.01h-0.062l-4.3691-0.2676h-0.059-0.061l-4.455-0.207h-0.059-0.057l-1.0644-0.035zm47.039 6.1894 3.3789 0.9102 0.039 0.01 0.039 0.01 6.3984 1.6543h0.012l6.002 1.6661 5.4863 1.6445 5 1.6289 4.5976 1.6406 5.5332-15.522-4.7343-1.6875-0.1074-0.039-0.1094-0.035-5.1914-1.6914-0.092-0.029-0.094-0.027-5.6426-1.6914-0.08-0.025-0.08-0.021-6.0918-1.6914-0.07-0.02-0.07-0.018-6.4629-1.6719-3.3789-0.9082zm-117.58-10.18-0.1309 0.062-0.1289 0.068-3.0996 1.6387-0.07 0.037-0.07 0.039-2.9688 1.6445-0.1601 0.09-0.1563 0.096-1.414 0.8672-0.1075 0.066-0.1074 0.07-1.3633 0.8965-0.1093 0.072-0.1074 0.074-1.3184 0.9277-0.1094 0.076-0.1074 0.082-1.2695 0.955-0.1094 0.084-0.1074 0.086-1.2207 0.9863-0.1114 0.088-0.1054 0.094-1.1739 1.0156-0.1093 0.094-0.1055 0.1-1.127 1.0449-0.1074 0.1-0.1035 0.1036-1.0781 1.0761-0.1055 0.1055-0.1016 0.1094-1.0312 1.1054-0.1035 0.1114-0.098 0.1132-0.9824 1.1348-0.1016 0.1172-0.096 0.1191-0.9336 1.1641-0.098 0.1211-0.092 0.125-0.8867 1.1934-0.092 0.1269-0.09 0.127-0.8379 1.2246-0.088 0.1289-0.084 0.1328-0.7891 1.2539-0.084 0.1328-0.078 0.1348-0.6582 1.1367 14.264 8.25 0.582-1.0078 0.6172-0.9785 0.6543-0.9551 0.7051-0.9512 0.75-0.9336 0.7949-0.9179 0.8008-0.8594 0.8476-0.8477 0.957-0.8887 0.9317-0.8066 0.9941-0.8027 1.0879-0.8184 1.0586-0.7441 1.2109-0.7969 1.0938-0.6699 2.75-1.5254 2.873-1.5195 2.7032-1.3086-7.1836-14.83zm-109.28 34.053-0.017 0.1094-0.016 0.1074-0.4629 3.3848-0.016 0.1054-0.012 0.1074-0.3789 3.4297-0.012 0.1055-0.01 0.1035-0.295 3.4805-0.01 0.1015-0.01 0.1016-0.209 3.5274-0.01 0.1v0.1015l-0.127 3.5742v0.098 0.098l-0.043 3.623v0.092 0.092l0.039 3.6641v0.092 0.092l0.1192 3.5898v0.096l0.01 0.096 0.1973 3.5176 0.01 0.098 0.01 0.1 0.039 0.4922 16.424-1.3222-0.029-0.3809-0.1894-3.3672-0.1133-3.3789-0.035-3.4687 0.037-3.4082 0.1211-3.4121 0.2011-3.3497 0.2715-3.205 0.3633-3.293 0.4219-3.0859 0.084-0.5176-16.258-2.668zm77.469 7.7559-0.016 0.1289-0.014 0.1269-0.168 1.6406-0.012 0.1231-0.01 0.125-0.1191 1.6699-0.014 0.1797v0.1797l-0.096 3.4277-0.01 0.207v0.2071l0.08 3.541v0.1934l0.014 0.1914 0.2363 3.4355 0.016 0.2031 0.023 0.2012 0.3965 3.3301 0.025 0.2129 0.035 0.2109 0.5567 3.2246 0.037 0.2207 0.051 0.2188 0.7129 3.1172 0.053 0.2285 0.065 0.2246 0.871 3.0137 0.068 0.2324 0.082 0.2285 1.0293 2.9082 0.084 0.2344 0.098 0.2304 0.9902 2.334 15.168-6.4375-0.8887-2.0937-0.873-2.459-0.7364-2.5488-0.6133-2.6739-0.4765-2.7715-0.3516-2.9472-0.207-3.0235-0.07-3.1191 0.086-3.0977 0.096-1.3203 0.1465-1.4375 0.062-0.4668-16.33-2.1875zm-76.299 43.937 0.6054 2.7715 0.025 0.1192 0.031 0.1211 0.7519 3.0078 0.031 0.125 0.035 0.123 0.8321 2.9356 0.037 0.1269 0.039 0.125 0.9121 2.8633 0.041 0.1309 0.045 0.1269 0.9922 2.791 0.047 0.1328 0.051 0.129 1.0703 2.7187 0.053 0.1328 0.057 0.1328 1.1484 2.6446 0.059 0.1347 0.065 0.1328 1.2285 2.5723 0.053 0.1133 0.057 0.1094 1.2949 2.5136 0.047 0.09 0.047 0.088 1.3476 2.4668 0.049 0.088 0.051 0.088 1.4004 2.4219 0.051 0.088 0.053 0.086 0.4727 0.7715 14.053-8.6015-0.4355-0.7129-1.2676-2.1914-1.2559-2.2989-1.1894-2.3105-1.1133-2.3262-1.0488-2.414-0.9629-2.4493-0.8828-2.4785-0.8418-2.6465-0.7735-2.7304-0.6836-2.7364-0.58-2.6445zm101.19-0.1992-8.9688 7.836 0.1094 0.125 0.123 0.1406 0.1289 0.1367 2.3516 2.457 0.125 0.1289 0.1289 0.1231 2.5098 2.4062 0.123 0.1172 0.1289 0.1133 2.67 2.3516 0.3632 0.3203 0.3985 0.2754 3.039 2.1015 0.1 0.068 0.1016 0.066 3.1973 2.0742 0.094 0.062 0.098 0.059 3.3555 2.0469 0.092 0.057 0.092 0.053 3.5157 2.0215 0.086 0.051 0.09 0.047 3.6718 1.9961 0.084 0.045 0.084 0.043 2.3848 1.2266 7.5312-14.656-2.3379-1.2012-0.049-0.025-3.3965-1.8476-3.3711-1.9395-3.168-1.9316-2.9394-1.9063-2.5879-1.7871-2.1602-1.9062-2.2929-2.1953-2.0645-2.1563-0.1426-0.1504zm35.738 35.748 3.5293 1.5078 0.043 0.018 0.043 0.017 4.7558 1.9688 0.041 0.018 0.039 0.016 4.9688 1.9941 0.037 0.016 0.037 0.016 5.1797 2.0215 0.035 0.012 0.035 0.014 5.3906 2.0488 0.047 0.018 0.049 0.017 6.8457 2.504 5.6602-15.475-6.75-2.4687h-0.012l-0.084-0.031-5.2949-2.0117-5.0352-1.9648-0.029-0.012-0.045-0.018-4.8125-1.9336-0.021-0.01-0.061-0.025-4.5878-1.8985-0.055-0.023-0.033-0.014-3.4414-1.4707zm-113.56 11.887 1.252 1.4824 0.068 0.08 0.068 0.078 1.8242 2.0528 0.07 0.078 0.072 0.076 1.875 2.0058 0.072 0.076 0.074 0.076 1.9296 1.957 0.072 0.076 0.076 0.072 1.9824 1.9121 0.074 0.072 0.076 0.07 2.0352 1.8672 0.076 0.07 0.078 0.068 2.0879 1.8203 0.096 0.082 0.096 0.08 4.3204 3.541 0.1132 0.092 0.1153 0.086 4.5039 3.4356 0.1133 0.086 0.1132 0.082 2.6407 1.873 9.5371-13.436-2.5742-1.8301-4.2383-3.2324-4.1074-3.3672-1.8848-1.6426-1.9297-1.7695-1.8359-1.7735-1.7832-1.8125-1.7364-1.8574-0.037-0.039-1.6172-1.8222-1.1777-1.3965zm159.84 6.1035 4.3144 1.7012 0.076 0.031 7.2168 2.9297 6.9199 2.8906h0.01l0.078 0.033 6.7871 2.9258 4.6719 2.0762 6.6933-15.057-4.7597-2.1152-0.043-0.019-0.045-0.018-6.8692-2.961-0.041-0.018-0.041-0.018-7.082-2.959-0.039-0.016-0.041-0.016-7.293-2.9609-0.037-0.016-0.037-0.014-4.3906-1.7324zm44.934 19.482 2.5469 1.1661 2.8496 1.3613 2.8809 1.4394 0.037 0.018 2.5996 1.3555 0.051 0.027 2.6152 1.4219 0.045 0.025 2.668 1.5156 0.025 0.016 2.4121 1.4297 0.051 0.031 2.4316 1.5039 0.049 0.031 2.375 1.5332 0.053 0.035 2.3105 1.5586 0.049 0.033 1.291 0.9121 9.4941-13.467-1.3398-0.9453-0.068-0.049-0.07-0.047-2.5-1.6875-0.068-0.047-0.068-0.043-2.5606-1.6562-0.066-0.043-0.068-0.043-2.6192-1.6211-0.068-0.041-0.066-0.041-2.6797-1.5879-0.066-0.039-0.066-0.039-2.7383-1.5547-0.065-0.037-0.066-0.035-2.7968-1.5235-0.065-0.035-0.066-0.033-2.8574-1.4903-0.062-0.033-0.065-0.033-2.916-1.4551-0.062-0.031-0.064-0.031-2.9747-1.4238-0.062-0.029-0.063-0.027-2.6699-1.2246zm-164.26 7.0703 3.3594 1.9297 0.1074 0.061 0.1074 0.059 5.4316 2.9062 0.1036 0.057 0.1054 0.053 5.6153 2.8008 0.2265 0.1113 0.2305 0.1 11.943 5.0723 0.024 0.01 0.025 0.012 3.3847 1.4121 6.3477-15.205-3.3379-1.3926-0.049-0.021-11.666-4.955-5.2383-2.6133-5.2598-2.8145-3.2539-1.8691zm45.934 20.908 5.914 2.4278 0.021 0.01 0.024 0.01 12.547 5.0625 0.031 0.012 6.4062 2.6133 5.5157 2.3047 6.3515-15.203-5.5781-2.332-0.033-0.014-0.031-0.012-6.4375-2.627-0.016-0.01-0.016-0.01-12.531-5.0547-0.047-0.02-5.8672-2.4082zm157.83-2.8437 1.6171 1.4258 1.9844 1.8555 1.8828 1.8652 1.8184 1.9082 1.7851 1.9883 1.6641 1.9687 1.6387 2.0528 1.5781 2.1035 1.5176 2.1523 1.4687 2.2188 1.4024 2.2578 0.8496 1.4609 14.244-8.2832-0.914-1.5703-0.061-0.1035-0.062-0.1-1.5254-2.459-0.064-0.1016-0.065-0.1-1.5937-2.4043-0.066-0.1015-0.068-0.098-1.6582-2.3516-0.07-0.1-0.072-0.098-1.7246-2.2989-0.072-0.096-0.076-0.096-1.791-2.2461-0.074-0.094-0.078-0.094-1.8574-2.1933-0.078-0.092-0.08-0.09-1.9238-2.1406-0.08-0.09-0.082-0.088-1.9903-2.0879-0.082-0.086-0.086-0.084-2.0546-2.0352-0.084-0.084-0.088-0.082-2.1192-1.9824-0.088-0.08-0.088-0.078-1.7325-1.5293zm-112.5 21.779 2.6777 1.2109 5.1914 2.418 5.0508 2.4277 4.7207 2.3477 4.4824 2.3086 4.2363 2.2656h0.01l2.5098 1.3985 8.0117-14.398-2.6328-1.4648-0.061-0.035-0.062-0.033-4.3554-2.3281-0.057-0.029-0.057-0.029-4.5879-2.3613-0.053-0.027-0.051-0.025-4.8203-2.3945-0.049-0.025-0.047-0.023-5.0508-2.4278-0.045-0.021-0.045-0.021-5.2812-2.459-0.043-0.02-0.041-0.02-2.7617-1.248zm42.328 22.59 1.582 1.0704 2.6758 1.9199 2.4746 1.9355 2.2539 1.961 2.0703 2.0195 1.8906 2.0683 1.7442 2.1504 1.6269 2.2793 0.6797 1.0528 0.6778 1.1211 0.6738 1.2031 0.623 1.1992 0.3067 0.6406 14.852-7.1347-0.373-0.7793-0.057-0.1172-0.059-0.1153-0.7364-1.414-0.061-0.1152-0.062-0.1133-0.7813-1.3926-0.062-0.1133-0.066-0.1094-0.8261-1.3691-0.066-0.1113-0.07-0.1075-0.8691-1.3457-0.1035-0.1621-0.1113-0.1562-1.8731-2.6231-0.1465-0.205-0.1582-0.1954-2.0508-2.5292-0.1562-0.1915-0.1641-0.1816-2.2304-2.4375-0.1602-0.1758-0.1699-0.166-2.4082-2.3437-0.1641-0.1602-0.1738-0.1504-2.5859-2.2539-0.1661-0.1445-0.1718-0.1348-2.7657-2.1601-0.1328-0.1036-0.1367-0.098-2.9687-2.1309-0.094-0.066-0.096-0.064-1.625-1.0997zm95.902-7.4648 0.7578 1.9883 0.9082 2.625 0.8145 2.6211 0.7773 2.791 0.7012 2.8242 0.6406 2.9316 0.584 3.0567 0.5196 3.1621 0.4335 3.125 0.3809 3.293 0.1328 1.455 16.408-1.5097-0.1406-1.5332-0.01-0.094-0.01-0.092-0.4004-3.4765-0.012-0.096-0.014-0.098-0.4707-3.3945-0.016-0.1016-0.016-0.1-0.5449-3.3164-0.018-0.1035-0.02-0.1055-0.6172-3.2363-0.022-0.1074-0.023-0.1075-0.6895-3.1582-0.025-0.1113-0.027-0.1113-0.7617-3.0781-0.029-0.1153-0.031-0.1133-0.8359-3-0.033-0.1191-0.037-0.1172-0.9082-2.9199-0.037-0.1211-0.041-0.1211-0.9825-2.8398-0.043-0.125-0.047-0.1231-0.8027-2.1035zm-72.689 41.332 0.2734 2.0586 0.2344 3.0235 0.078 3.1367-0.082 2.9765-0.2422 2.8672-0.1699 1.3223-0.2051 1.2812-0.2578 1.3282-0.2871 1.2558-0.3145 1.1934-0.3594 1.1933-0.4003 1.1797-0.4122 1.0899-0.4804 1.1387-0.4805 1.0351-0.6074 1.1875 7.2851 3.7188 7.2442 4.0468 0.076-0.1328 0.068-0.1368 0.6719-1.3144 0.068-0.1348 0.065-0.1386 0.623-1.3418 0.065-0.1368 0.059-0.1386 0.5781-1.3731 0.059-0.1367 0.053-0.1387 0.5313-1.4023 0.051-0.1367 0.049-0.1387 0.4844-1.4336 0.047-0.1348 0.041-0.1386 0.4394-1.461 0.041-0.1367 0.035-0.1348 0.3926-1.4921 0.035-0.1329 0.031-0.1347 0.3476-1.5215 0.029-0.1309 0.025-0.1328 0.3008-1.5508 0.025-0.1289 0.021-0.1308 0.2539-1.5801 0.02-0.127 0.018-0.125 0.207-1.6113 0.024-0.1836 0.016-0.1836 0.2773-3.3105 0.02-0.2324 0.01-0.2325 0.094-3.4296 0.01-0.2149-0.01-0.2129-0.09-3.5488v-0.2149l-0.018-0.2128-0.2675-3.4551-0.018-0.2246-0.029-0.2227-0.3027-2.2793zm80.068 4.3184v0.4648l-0.041 3.5821-0.1269 3.5449-0.2032 3.3496v0.033l-0.2988 3.4551-0.3828 3.3769-0.4551 3.2207-0.5449 3.2246-0.6094 3.0782-0.7149 3.1269-0.016 0.059-0.012 0.051 1.6895 0.3867 14.266 3.7109 0.049-0.1874 0.031-0.1172 0.027-0.1192 0.7579-3.3144 0.027-0.1172 0.023-0.1172 0.668-3.3711 0.023-0.1152 0.02-0.1153 0.5801-3.4297 0.017-0.1113 0.016-0.1133 0.4921-3.4882 0.014-0.1094 0.014-0.1113 0.4004-3.545 0.014-0.1074 0.01-0.1074 0.3125-3.6035 0.01-0.1035 0.01-0.1055 0.2226-3.6602 0.01-0.1035v-0.1016l0.1348-3.7187v-0.1-0.1l0.045-3.7754v-0.088-0.088l-0.01-0.5762zm-295.77 30.072-1.2148 5.7148 7.2382 1.5391-0.8046 2.1914 7.7675 2.8535 0.037 0.014 0.037 0.012 9.7754 3.4883 0.025 0.01 0.023 0.01 7.9804 2.791 5.4395-15.553-7.9316-2.7734-0.049-0.018-9.6562-3.4453-0.072-0.025-7.6953-2.8281-8.9238-3.2774zm202.69 3.5-1.0351 0.7539-1.0938 0.7441-1.1328 0.7187-2.5117 1.4415-2.6152 1.3613-2.7578 1.2578-3.0313 1.2109-3.2265 1.127-3.4336 1.0449-3.6778 0.9688-1.0683 0.2421 3.6504 16.068 1.2343-0.2812 0.1387-0.031 0.1387-0.037 3.9433-1.0391 0.1485-0.039 0.1484-0.045 3.7442-1.1406 0.1601-0.049 0.1582-0.055 3.5469-1.2383 0.1719-0.061 0.1679-0.066 3.3496-1.3379 0.1836-0.074 0.1797-0.08 3.1504-1.4375 0.1953-0.088 0.1895-0.1 2.9511-1.5352 0.1524-0.078 0.1465-0.086 2.8672-1.6446 0.1621-0.094 0.1582-0.1 1.3633-0.8672 0.1093-0.068 0.1055-0.072 1.3184-0.8965 0.1093-0.076 0.1075-0.078 1.2714-0.9258 0.1094-0.08 0.1074-0.084 1.1426-0.8906-10.137-12.99zm-156.21 20.521 2.0274 0.6993 0.068 0.023 0.068 0.022 3.7754 1.2285 0.1171 0.039 0.1172 0.035 3.9278 1.1484 0.1113 0.033 0.1133 0.029 4.0781 1.0703 0.1055 0.027 0.1074 0.025 4.2305 0.9902 0.1 0.024 0.1015 0.021 4.3828 0.9121 0.096 0.019 0.096 0.018 4.5351 0.832 0.09 0.016 0.09 0.016 4.6875 0.7519 0.084 0.014 0.086 0.014 0.3457 0.047 2.2715-16.318-0.2402-0.033-4.5293-0.7286-4.3535-0.7988-4.1289-0.8574-4.0782-0.9551-3.8691-1.0156-3.668-1.0742-3.6816-1.1973-1.8926-0.6523zm240.01-6.4336-1.2539 2.6426-1.3555 2.6289-1.4218 2.545-1.5293 2.5332-1.5821 2.4355-1.6562 2.373-1.7598 2.3516-1.8476 2.3067-1.9082 2.2285-0.5977 0.6523 12.158 11.121 0.6817-0.7461 0.092-0.098 0.086-0.1016 2.0957-2.4473 0.088-0.1035 0.086-0.1055 2.0059-2.5039 0.086-0.1054 0.08-0.1094 1.918-2.5625 0.082-0.1094 0.078-0.1133 1.8281-2.6191 0.078-0.1133 0.076-0.1152 1.7383-2.6778 0.074-0.1152 0.072-0.1172 1.6484-2.7344 0.07-0.1171 0.068-0.1192 1.5606-2.7949 0.066-0.1191 0.062-0.1211 1.4707-2.8496 0.062-0.1211 0.059-0.1231 1.3808-2.9082 0.059-0.1211 0.053-0.123 1.2382-2.8418-15.104-6.584zm-125.08-0.4687-4.7129 0.5195-4.9687 0.4317-5.1348 0.334-5.3789 0.2421-5.5254 0.1446-5.8711 0.051h-0.055l-5.9101-0.041h-0.022l-5.7754-0.1172h-0.016l-5.6114-0.1953h-0.021l-5.4257-0.2695h-0.049l-5.1777-0.3398h-0.039l-3.5175-0.2891-1.3516 16.422 3.5566 0.293 0.068 0.01h0.068l5.4472 0.3575h0.065 0.066l5.5976 0.2773h0.062 0.062l5.75 0.1973h0.059 0.059l5.9024 0.1191h0.057 0.057l6.0547 0.041 0.053-8.2383 0.07 8.2383 5.9258-0.051h0.072 0.072l5.7266-0.1485h0.078 0.078l5.5293-0.2481h0.082l0.084-0.01 5.3301-0.3457 0.09-0.01 0.088-0.01 5.1328-0.4453 0.096-0.01 0.096-0.01 4.9355-0.545 0.1035-0.012 0.1016-0.014 0.3027-0.041-2.2207-16.326zm-172.89 36.947 16.117 3.4257 6.8496-32.234-16.117-3.4258zm270.34-2.0235-2.5156 1.8887-2.6953 1.9043-0.041 0.029-2.6426 1.7891-2.7031 1.7265-2.8067 1.6934-2.9297 1.6621-0.045 0.025-2.8828 1.539-3.0449 1.5332-2.3711 1.1192 7.0449 14.894 2.4824-1.1738 0.092-0.043 0.09-0.045 3.2187-1.6192 0.092-0.047 0.09-0.049 3.1425-1.6796 0.092-0.049 0.092-0.053 3.0664-1.7402 0.094-0.053 0.092-0.057 2.9902-1.8027 0.094-0.055 0.092-0.059 2.914-1.8653 0.094-0.059 0.092-0.062 2.8398-1.9257 0.064-0.043 0.064-0.047 2.8106-1.9844 0.098-0.068 0.096-0.072 2.7188-2.041 0.098-0.074 0.096-0.076 1.791-1.4297-10.279-12.877zm-265.86 25.926 0.8848 0.3574 0.1152 0.047 0.1152 0.043 3.9492 1.4668 0.084 0.031 0.086 0.029 4.6113 1.5977 0.062 0.023 0.066 0.021 5.2715 1.7305 0.051 0.016 0.051 0.018 5.9317 1.8613 0.041 0.014 0.041 0.012 6.5938 1.9961 0.033 0.01 0.033 0.01 4.0781 1.1973 4.6367-15.812-4.0097-1.1758-0.068-0.019-6.4414-1.9493-0.084-0.025-5.8379-1.8339h-0.012l-5.1699-1.6993-4.3789-1.5195-3.7989-1.4101-0.7422-0.3008zm223.78-4.1621-0.055 0.018-3.6543 1.1601-0.043 0.014-3.5937 1.0605-3.6641 1.0059-0.037 0.01-3.791 0.9609-0.051 0.012-4.0039 0.9356-3.9121 0.8379-3.998 0.7851-0.8516 0.1524 2.8945 16.221 0.8516-0.1524 0.068-0.012 0.07-0.014 4.205-0.8242 0.072-0.014 0.07-0.016 4.1309-0.8867 0.074-0.016 0.072-0.018 4.0546-0.9473 0.074-0.016 0.076-0.02 3.9786-1.0078 0.076-0.02 0.076-0.021 3.9023-1.0703 0.078-0.021 0.078-0.024 3.8281-1.1289 0.08-0.023 0.08-0.025 3.75-1.1934 0.082-0.025 0.082-0.027 3.1602-1.0781-5.3164-15.596zm-175.6 19.266 3.8945 1.0117 0.1074 0.027 0.1075 0.025 4.6171 1.0703 0.1 0.023 0.1 0.022 4.8164 0.9902 0.094 0.02 0.094 0.016 5.0136 0.9121 0.086 0.016 0.088 0.014 5.2129 0.834 0.082 0.012 0.08 0.012 5.4121 0.7539 0.076 0.01 0.076 0.01 3.4102 0.4101 1.9648-16.359-3.2558-0.3906-0.051-0.01-5.3223-0.7402-0.039-0.01-4.9277-0.7871-4.9121-0.8945-0.047-0.01-4.58-0.9454-4.3731-1.0136-3.7773-0.9824zm131.74-9.8535h-0.043l-4.5449 0.5156-4.541 0.4453-4.6191 0.3868-4.5899 0.3203-4.7812 0.2695h-0.016l-4.8457 0.2109h-0.051-0.055l-3.6465 0.1093 0.498 16.469 3.752-0.1133h0.053 0.053l4.9668-0.2129h0.053 0.055l4.8906-0.2754h0.055 0.057l4.8145-0.3359h0.057 0.057l4.7382-0.3985h0.059l0.061-0.01 4.6621-0.459 0.06-0.01 0.061-0.01 4.5859-0.5196 0.062-0.01 0.062-0.01 0.4453-0.057-2.1015-16.344zm-81.461 17.621 3.8105 0.2676h0.059 0.061l6.4003 0.3574h0.057 0.057l6.5977 0.2774h0.055 0.053l6.7969 0.1992h0.051 0.049l6.9961 0.1192h0.049 0.047l2.3203 0.014 0.09-16.476-2.3203-0.014-6.8007-0.1152h-0.021-0.078l-6.5918-0.1914h-0.064-0.041l-6.3828-0.2695-6.3594-0.3535h-0.041l-3.6914-0.2617z"/>
    <path id="path4188" style="color-rendering:auto;text-decoration-color:#000000;color:#000000;isolation:auto;mix-blend-mode:normal;shape-rendering:auto;solid-color:#000000;block-progression:tb;text-decoration-line:none;text-decoration-style:solid;image-rendering:auto;white-space:normal;text-indent:0;text-transform:none" d="m6439.4-2828.4 2.793 16.238 32.478-5.5879-2.7949-16.238zm39.861 35.082h16.477v-32.955h-16.477zm-71.799-29.588-6.8418 1.1777v6.9414 17.025h16.478v-10.082l8.8555-1.5235-2.793-16.24zm-6.8418 74.576h16.478v-32.955h-16.478zm78.641 4.4414h16.477v-32.953h-16.477zm-78.641 44.99h16.478v-32.955h-16.478zm78.641 4.4414h8.2383v10.518h32.953v-16.477h-24.715v-26.994h-16.477zm57.668 10.518h32.955v-16.477h-32.955zm49.432 0h32.955v-16.477h-32.955zm49.432 0h10.047v6.4297h16.477v-14.668-8.2383h-8.2383-18.285zm-235.17 34.471h16.478v-32.953h-16.478zm245.22 21.391h16.477v-32.955h-16.477zm-166.58 1.8555v29.289h16.477v-29.289h-4.5742v-8.2383h-3.6641-8.2383zm28.379 8.2383h32.955v-16.477h-32.955zm49.432 0h32.955v-16.477h-32.955zm49.432 0h32.953v-16.477h-32.953zm-205.88 17.947h16.478v-32.953h-16.478zm0 49.432h16.478v-32.955h-16.478zm78.641 3.1035h16.477v-32.955h-16.477zm-78.641 46.326h16.478v-32.953h-16.478zm78.641 3.1054h16.477v-32.955h-16.477zm-78.641 46.326h16.478v-32.953h-16.478zm78.641 3.1035h16.477v-32.953h-16.477zm-78.641 26.203v0.02 0.019l0.025 5.457v0.041 0.041l0.08 5.3769v0.043 0.041l0.1328 5.2988v0.043 0.043l0.1407 3.9882 16.467-0.5839-0.1407-3.9883-0.1289-5.127v-0.014-0.07l-0.076-5.2929-0.025-5.336v-0.039-12.791h-16.478zm78.641-0.8457v0.041 0.041l0.078 8.0722v0.086 0.086l0.2383 7.7285v0.096l0.01 0.094 0.3965 7.3847 0.01 0.1036 0.01 0.1015 0.068 0.8711 16.426-1.2949-0.06-0.7617-0.3867-7.1973-0.2305-7.5254-0.078-7.9258v-0.08-8.7989h-16.477zm-77.314 38.08 0.3925 4.8633v0.051l0.01 0.049 0.4492 4.8223v0.053l0.01 0.051 0.5019 4.7441 0.01 0.053 0.01 0.053 0.5547 4.6641 0.01 0.055 0.01 0.055 0.6074 4.584 0.01 0.057 0.01 0.057 0.6621 4.5059 0.01 0.057 0.01 0.059 0.7128 4.4258 0.01 0.061 0.01 0.059 0.019 0.1016 15.154-2.6699 1.0742-0.1739v-0.016-0.021l-0.6895-4.2715-0.6465-4.3945-0.01-0.051-0.01-0.061-0.5781-4.3633-0.01-0.061-0.01-0.049-0.5293-4.4472-0.01-0.08v-0.027l-0.4883-4.6269v-0.01l-0.4297-4.6191-0.3926-4.8633zm79.842 3.5527 0.4121 2.836 0.01 0.068 0.01 0.068 0.4961 3.0488 0.012 0.07 0.014 0.072 0.5351 2.9629 0.012 0.074 0.016 0.074 0.5742 2.877 0.016 0.08 0.018 0.078 0.6152 2.791 0.025 0.1152 0.029 0.1153 0.6543 2.6094 0.02 0.084 0.023 0.082 0.6934 2.5429 0.023 0.086 0.025 0.084 0.7324 2.4785 0.027 0.088 0.027 0.088 0.7734 2.4121 0.029 0.092 0.031 0.09 0.8125 2.3457 0.033 0.094 0.035 0.094 0.8516 2.2793 0.037 0.098 0.037 0.096 0.8926 2.2129 0.041 0.1015 0.043 0.1 0.1797 0.416 15.117-6.5585-0.1348-0.3067-0.8027-1.9941-0.7852-2.0918-0.7656-2.211-0.7246-2.2656-0.01-0.031-0.6484-2.1934-0.6582-2.4199-0.5977-2.375-0.5742-2.6113-0.5528-2.7657-0.01-0.031-0.5039-2.8008v-0.014l-0.4511-2.7695-0.01-0.043-0.4063-2.7929zm170.97 42.022-10.617 4.1719 6.0235 15.336 1.7519-0.6875 2.7363 11.705 16.045-3.7519-4.9043-20.98-2.17-9.2754zm-153.29 7.7754 0.3887 0.541 0.084 0.1153 0.086 0.1133 1.248 1.6191 0.1719 0.2226 0.1875 0.209 1.2871 1.4532 0.092 0.1035 0.096 0.1015 1.3281 1.4004 0.096 0.1016 0.1 0.098 1.3671 1.3477 0.1 0.1 0.1055 0.096 1.4063 1.2949 0.1035 0.096 0.1094 0.092 1.4453 1.2422 0.1093 0.094 0.1114 0.088 1.4863 1.1894 0.1113 0.09 0.1153 0.086 1.5254 1.1348 0.1152 0.086 0.1172 0.082 1.5664 1.0821 0.1172 0.082 0.1191 0.076 1.6055 1.0312 0.1191 0.076 0.1231 0.072 1.6445 0.9785 0.1211 0.072 0.123 0.066 1.6836 0.9258 0.1231 0.066 0.125 0.064 1.7246 0.8711 0.123 0.062 0.125 0.059 1.7637 0.8183 0.1231 0.057 0.125 0.055 1.8027 0.7656 0.123 0.053 0.125 0.047 1.8438 0.7148 0.1211 0.047 0.125 0.043 1.289 0.4531 5.4551-15.549-1.1445-0.4004-1.5918-0.6152-1.6055-0.6817-1.5058-0.7012-1.4844-0.75-1.4356-0.791-1.3945-0.8301-1.3652-0.8769-1.3399-0.9258-1.2578-0.9375-1.2871-1.0293-1.2539-1.0781-1.1387-1.0488-1.1738-1.1543-1.1973-1.2618-0.9707-1.0957-0.9961-1.2929-0.3027-0.4219zm-89.871-3.082 0.1348 0.5059 0.025 0.094 0.027 0.094 1.1504 3.9239 0.027 0.096 0.031 0.096 1.2285 3.8457 0.031 0.098 0.033 0.098 1.3086 3.7656 0.035 0.1 0.037 0.098 1.3867 3.6875 0.039 0.1016 0.041 0.1 1.4648 3.6074 0.043 0.1015 0.043 0.1016 1.5469 3.5274 0.045 0.1035 0.049 0.1015 1.625 3.4492 0.049 0.1036 0.051 0.1035 1.7051 3.3691 0.053 0.1035 0.057 0.1036 0.5 0.9218 14.484-7.8535-0.4316-0.7949-1.6055-3.1738-1.5273-3.2403-1.4609-3.332-1.3692-3.3652-1.3496-3.5879-0.016-0.041-1.211-3.4922-1.166-3.6524-1.0898-3.7187-0.1074-0.4024zm212.92 7.0723-2.4609 0.8378-2.5176 0.7715-2.6777 0.7364-2.8262 0.6933-2.9492 0.6406-3.0977 0.5938-3.1992 0.5352-3.332 0.4824h-0.033l-2.5586 0.3164 2.0273 16.352 2.7266-0.3378 0.084-0.012 0.084-0.012 3.4864-0.5058 0.088-0.012 0.09-0.016 3.373-0.5644 0.094-0.016 0.094-0.017 3.2597-0.625 0.1016-0.02 0.098-0.021 3.1485-0.6836 0.1054-0.023 0.1055-0.025 3.0352-0.7422 0.1113-0.027 0.1113-0.031 2.9219-0.8027 0.1191-0.031 0.1153-0.037 2.8125-0.8613 0.123-0.039 0.1231-0.041 2.6992-0.9218 0.1543-0.053 0.1523-0.059 4.4551-1.7207-5.9375-15.371zm-75.27 22.037 1.0801 0.1757 0.164 0.027 0.1621 0.019 4.5196 0.5547 0.1543 0.019 0.1543 0.014 4.6777 0.3965 0.1445 0.012 0.1465 0.01 4.834 0.2364 0.1387 0.01h0.1367l4.9941 0.078h0.092 0.094l4.3828-0.029h0.059 0.059l4.2715-0.09h0.061 0.06l4.1192-0.1465-0.5899-16.467-3.9961 0.1445h-0.029l-4.2403 0.088-4.1367 0.029-4.7695-0.076-4.586-0.2246-4.4082-0.375-4.1699-0.5118-0.918-0.1504zm-115.68 18.104 0.5274 0.748 0.072 0.1035 0.076 0.1 2.1797 2.8925 0.08 0.1055 0.082 0.1035 2.2637 2.8106 0.086 0.1074 0.09 0.1055 2.3496 2.7246 0.09 0.1054 0.096 0.1016 2.4336 2.6406 0.094 0.1016 0.098 0.1 2.5215 2.5527 0.098 0.1 0.1015 0.096 2.6055 2.4668 0.1016 0.096 0.1035 0.094 2.6933 2.3808 0.1036 0.092 0.1054 0.088 2.7793 2.295 0.1055 0.088 0.1094 0.084 2.5703 1.9844 10.064-13.045-2.4648-1.9043-2.5508-2.1055-2.4902-2.2031-2.4102-2.2832-2.3027-2.3301-2.2774-2.4707-2.123-2.4648-2.1348-2.6485-2.0156-2.6758-0.4551-0.6425zm224.85-5.3379 6.5664 28.086 3.961-0.9277 3.5293 8.3711 0.4941-0.209 0.1524-0.064 0.1484-0.068 3.2363-1.5195 6.041-2.836-1.5195-6.498-6.5644-28.084zm-185.26 40.211 2.043 1.1035 0.1113 0.061 0.1133 0.057 3.3789 1.6953 0.1113 0.055 0.1133 0.053 3.4649 1.6093 0.1093 0.051 0.1114 0.049 3.5508 1.5215 0.246 0.1055 0.252 0.09 3.7578 1.3301 0.1152 0.041 0.1172 0.037 3.877 1.2461 0.1113 0.035 0.1133 0.033 3.9961 1.1582 0.1074 0.031 0.1074 0.029 4.1172 1.0722 0.1035 0.027 0.1036 0.025 2.625 0.6113 3.7421-16.047-2.4921-0.5801-3.9122-1.0195-3.8066-1.1055-3.6504-1.1718-3.3984-1.2032-3.1817-1.3652-3.2617-1.5156-3.1094-1.5606-1.9511-1.0527zm175.61-13.461-0.06 0.019-0.065 0.022-5.7793 1.8418-0.027 0.01-0.078 0.025-6.4609 1.9609-7.0293 2.0469-0.039 0.01-0.037 0.012-3.5547 1.0742-0.039 0.01-3.6465 1.0137-1.6816 0.4277 4.0546 15.971 1.7422-0.4433 0.088-0.021 0.088-0.025 3.7988-1.0527 0.088-0.025 0.09-0.027 3.7324-1.125 7.0449-2.0527 0.045-0.014 0.045-0.014 6.5683-1.9942 0.053-0.016 0.053-0.018 6.0117-1.916 0.062-0.019 0.065-0.022 2.582-0.8691-5.2559-15.617zm-45.969 12.051-4.045 0.5957-4.1484 0.5312-0.051 0.01-4.0273 0.4394h-0.033l-4.2871 0.3907-4.3887 0.3203-4.2481 0.2383-4.498 0.1797 0.6504 16.463 4.5-0.1777h0.068 0.066l4.5254-0.2539 0.07-0.01h0.07l4.4589-0.3282h0.072l0.072-0.01 4.3926-0.3984 0.074-0.01 0.074-0.01 4.3262-0.4727 0.076-0.01 0.076-0.01 4.2598-0.5449 0.078-0.01 0.076-0.012 4.1953-0.6172 0.08-0.012 0.078-0.014 2.1211-0.3535-2.7188-16.252zm-79.83 16.66 3.539 0.4844 0.084 0.012 0.086 0.01 4.8281 0.5566 0.082 0.01 0.082 0.01 4.9473 0.4727 0.078 0.01 0.078 0.01 5.0683 0.3868 0.074 0.01h0.074l5.1855 0.3008h0.072 0.072l5.3047 0.2148h0.068 0.068l3.9649 0.094 0.3926-16.473-3.8282-0.09h-0.039l-5.2324-0.211h-0.033l-4.9493-0.2871-4.9453-0.377-4.7969-0.459-4.6406-0.5371-3.4531-0.4726z"/>
   </g>
  </g>
 </g>
</svg>
