<?xml version="1.0" encoding="UTF-8" standalone="no"?>
<svg
   xmlns:dc="http://purl.org/dc/elements/1.1/"
   xmlns:cc="http://creativecommons.org/ns#"
   xmlns:rdf="http://www.w3.org/1999/02/22-rdf-syntax-ns#"
   xmlns:svg="http://www.w3.org/2000/svg"
   xmlns="http://www.w3.org/2000/svg"
   xmlns:sodipodi="http://sodipodi.sourceforge.net/DTD/sodipodi-0.dtd"
   xmlns:inkscape="http://www.inkscape.org/namespaces/inkscape"
   id="svg2"
   height="689.3504"
   width="3981.9688"
   version="1.1"
   viewBox="0 0 3981.8999 689.34213"
   inkscape:version="0.91 r13725"
   sodipodi:docname="MindsLost_Logo.svg">
  <metadata
     id="metadata16">
    <rdf:RDF>
      <cc:Work
         rdf:about="">
        <dc:format>image/svg+xml</dc:format>
        <dc:type
           rdf:resource="http://purl.org/dc/dcmitype/StillImage" />
        <dc:title></dc:title>
      </cc:Work>
    </rdf:RDF>
  </metadata>
  <defs
     id="defs14" />
  <sodipodi:namedview
     pagecolor="#ffffff"
     bordercolor="#666666"
     borderopacity="1"
     objecttolerance="10"
     gridtolerance="10"
     guidetolerance="10"
     inkscape:pageopacity="0"
     inkscape:pageshadow="2"
     inkscape:window-width="1920"
     inkscape:window-height="1017"
     id="namedview12"
     showgrid="false"
     units="px"
     inkscape:zoom="0.20456891"
     inkscape:cx="1712.2435"
     inkscape:cy="330.66266"
     inkscape:window-x="-8"
     inkscape:window-y="-8"
     inkscape:window-maximized="1"
     inkscape:current-layer="svg2" />
  <g
     id="g6159"
     transform="translate(-2697.3,2902.1)">
    <g
       id="g6155">
      <path
         style="fill:#374b7b"
         inkscape:connector-curvature="0"
         d="m 3065.5,-2902.1 c -15.461,0.034 -26.075,2.6292 -42.566,9.8984 -33.993,14.983 -36.683,15.58 -54.512,12.088 -10.773,-2.1098 -13.266,-2.2709 -17.143,-1.1093 -6.0388,1.8093 -14.813,10.153 -17.172,16.33 -2.2071,5.779 -1.7684,9.6429 2.2305,19.639 4.5046,11.26 3.4677,16.891 -4.5156,24.533 -6.3716,6.0993 -10.284,7.2683 -27.166,8.1192 -16.833,0.8484 -28.026,2.2507 -32.621,4.0859 -2.8868,1.1529 -7.9543,9.7335 -10.242,17.346 -1.2792,4.256 -6.8658,7.8018 -18.141,11.514 -14.723,4.847 -26.435,10.317 -32.197,15.039 -9.2479,7.578 -17.17,25.172 -21.076,46.805 -0.9965,5.5189 -2.5826,11.719 -3.5254,13.777 -1.6277,3.5551 -1.607,7.53 0.059,11.377 0.5161,1.1921 -0.1686,2.2368 -2.1679,3.3067 -3.2473,1.7379 -6.0762,6.4064 -6.0762,10.029 0,1.3604 1.9426,4.1106 4.5683,6.4668 2.5125,2.2547 6.3787,6.6078 8.5918,9.6738 2.2131,3.0661 6.2678,8.2422 9.0098,11.502 5.5171,6.5592 5.354,5.5393 3.9961,24.928 -0.6779,9.6785 -0.4926,12.947 0.9941,17.492 1.0055,3.0743 1.8282,6.0516 1.8282,6.6171 0,0.5655 -2.6958,1.3065 -5.9903,1.6465 -12.539,1.2942 -20.007,6.8799 -32.785,24.524 -33.094,45.695 -58.539,96.734 -67.887,136.16 -3.5219,14.856 -4.7428,37.074 -2.627,47.828 2.6186,13.31 19.151,51.18 32.518,74.486 3.0245,5.2735 9.1958,18.663 13.713,29.756 4.5171,11.093 8.5415,20.702 8.9433,21.352 0.4017,0.6502 1.8657,1.1835 3.2539,1.1835 2.0517,0 3.5332,1.9291 7.9141,10.312 9.0647,17.346 26.164,40.959 29.666,40.969 0.3803,9e-4 1.2167,0.6274 2.3106,1.666 l 676.97,0 c -0.01,-1.0767 -0.022,-2.2557 -0.051,-3.6387 -0.1259,-6.0864 -1.0043,-14.778 -1.9511,-19.316 -2.0942,-10.038 -2.092,-9.9238 -0.17,-9.9238 3.2227,0 2.9923,-4.5501 -1.0293,-20.305 -5.2355,-20.51 -12.114,-39.028 -23.105,-62.201 -3.9264,-8.2785 -8.5577,-18.815 -10.291,-23.414 -12.131,-32.187 -27.32,-67.141 -35.856,-82.506 -3.8771,-6.9795 -4.385,-8.5656 -3.0742,-9.6015 2.1045,-1.663 0.1962,-7.0331 -8.0469,-22.648 -10.657,-20.188 -26.71,-42.2 -51.488,-70.602 -6.3706,-7.3023 -9.7642,-11.986 -8.6855,-11.986 1.0958,0 1.7714,-0.9615 1.7714,-2.5234 0,-3.9602 -5.6091,-11.692 -21.117,-29.115 l -2.8555,-3.209 6.9687,0.7558 c 5.9601,0.6457 6.9688,0.497 6.9688,-1.0293 0,-0.9816 -1.8775,-3.5055 -4.1719,-5.6074 -3.1953,-2.9274 -4.097,-4.5434 -3.8535,-6.9101 0.2553,-2.4828 -1.4058,-5.0643 -8.4512,-13.137 -4.8225,-5.5255 -14.373,-15.285 -21.225,-21.688 -15.528,-14.51 -16.449,-16.464 -15.41,-32.684 0.9748,-15.216 -2.2837,-40.343 -6.2246,-48.008 -1.4165,-2.755 -0.47,-3.4371 2.3378,-1.6836 9.7713,6.1023 1.2282,-20.728 -19.496,-61.228 -6.9853,-13.651 -12.701,-25.258 -12.701,-25.793 0,-0.5348 1.0055,-1.2333 2.2344,-1.5547 3.0193,-0.7896 2.2489,-2.5363 -6.504,-14.728 -15.261,-21.258 -33.846,-40.82 -48.469,-51.02 -28.357,-19.78 -68.305,-32.407 -107.26,-33.9 -2.4378,-0.093 -4.7444,-0.1415 -6.9531,-0.1367 z m -153.21,327.56 c 1.865,0 10.316,1.0181 18.781,2.2636 24.192,3.5592 35.179,4.4644 55.51,4.5742 10.413,0.056 20.045,0.5244 21.404,1.0411 9.7167,3.6943 28.414,31.38 35.035,51.875 5.0867,15.745 2.6972,28.86 -11.252,61.744 -9.9749,23.515 -12.425,32.43 -11.84,43.086 0.2853,5.1929 -0.1807,12.209 -1.1407,17.15 -4.0288,20.738 -5.0138,28.37 -5.6406,43.758 -0.4806,11.801 -1.0956,16.798 -2.1797,17.697 -0.8308,0.6894 -1.5097,1.7933 -1.5097,2.4512 0,0.6579 -1.3181,2.5698 -2.9278,4.25 -1.6122,1.6828 -2.9258,4.3462 -2.9258,5.9297 0,2.1929 -1.6607,4.1954 -7.0039,8.4472 -9.8379,7.8282 -14.22,13.05 -13.467,16.049 0.4631,1.845 -1.6101,5.2062 -8.6972,14.104 -5.118,6.4252 -11.375,13.553 -13.904,15.838 -2.5293,2.285 -5.4756,4.1163 -6.5469,4.0683 -1.0714,-0.047 -6.0168,-2.7645 -10.99,-6.0371 -4.9734,-3.2727 -24.79,-14.57 -44.039,-25.106 -38.216,-20.917 -43.988,-24.645 -57.297,-36.998 -29.424,-27.313 -51.554,-54.002 -55.139,-66.502 -1.2718,-4.4346 -0.6862,-6.1952 2.8164,-8.4902 5.2259,-3.4241 7.8327,-11.484 9.7539,-30.154 0.8131,-7.9016 5.4502,-23.366 7.4199,-24.746 1.046,-0.7327 3.7541,-4.0202 6.0176,-7.3066 3.9036,-5.668 4.5968,-6.1338 13.512,-9.0371 11.118,-3.6205 18.635,-8.3925 23.666,-15.024 4.0879,-5.3884 4.8576,-11.365 1.9902,-15.459 -4.7305,-6.7536 -24.469,-7.8681 -40.697,-2.2968 -4.5992,1.579 -8.5642,2.6724 -8.8106,2.4297 -0.2463,-0.2427 0.8516,-4.588 2.4395,-9.6563 1.5878,-5.0683 3.0429,-10.416 3.2344,-11.885 0.2796,-2.1454 1.3573,-2.925 5.4863,-3.9687 2.8261,-0.7143 7.2829,-2.8745 9.9023,-4.8008 l 4.7617,-3.5019 5.1504,2.6015 c 6.4721,3.2702 20.223,7.6236 32.188,10.19 5.059,1.085 9.1992,2.3722 9.1992,2.8594 0,0.4872 -1.128,1.466 -2.5078,2.1757 -3.6683,1.8869 -8.6101,6.7074 -10.414,10.16 -4.7673,9.1255 2.4999,20.982 11.728,19.137 3.2983,-0.6597 4.7893,0.8483 2.3379,2.3633 -2.1166,1.3082 -5.755,15.47 -5.0176,19.529 1.7176,9.4553 14.079,15.538 20.693,10.182 2.1129,-1.7108 3.8387,-1.9835 9.6425,-1.5176 l 7.0684,0.5684 4.957,-5.1738 c 2.7262,-2.8453 6.179,-7.587 7.6739,-10.537 1.495,-2.95 4.4969,-7.491 6.6699,-10.092 4.2055,-5.0338 5.7417,-10.132 4.8301,-16.033 -0.3084,-1.9967 -1.8969,-13.917 -3.5293,-26.488 -4.0314,-31.046 -4.8835,-32.47 -22.58,-37.766 -4.4147,-1.3211 -8.3086,-2.8588 -8.6543,-3.418 -0.7564,-1.2239 10.074,-4.5273 14.842,-4.5273 z"
         id="path6128" />
      <path
         style="fill:#a4b8e5;fill-opacity:0.47999998;fill-rule:evenodd;stroke:#b8c8f0;stroke-width:6;stroke-linecap:square;stroke-miterlimit:0;stroke-dasharray:18, 18;stroke-dashoffset:25.79999924"
         inkscape:connector-curvature="0"
         stroke-miterlimit="0"
         d="m 3070.3,-2692.2 c 10.446,5.7847 29.971,31.157 45.719,37.714 15.748,6.5564 32.359,7.8995 42.873,4.2695 10.514,-3.63 17.078,-16.366 17.078,-16.366 0,0 20.114,2.1069 28.285,-2.6684 8.1713,-4.7753 14.604,-17.104 16.188,-23.304 1.5843,-6.1998 -1.0674,-9.9621 -1.0674,-9.9621 0,0 8.3871,-18.599 9.6063,-27.752 1.2193,-9.1527 -0.6639,-18.013 -1.7789,-25.973 -1.1151,-7.9596 -2.1526,-16.64 -4.6253,-21.703 -2.4726,-5.063 -7.4716,-8.8948 -7.4716,-8.8948 0,0 -3.1869,-13.942 -6.0485,-18.501 -2.8616,-4.5594 -9.2505,-8.8948 -9.2505,-8.8948 0,0 -7.6863,-15.167 -12.097,-19.213 -4.4106,-4.0458 -11.741,-6.0484 -11.741,-6.0484 0,0 -7.3639,-10.573 -11.385,-12.808 -4.0214,-2.2359 -10.318,-1.7789 -10.318,-1.7789 0,0 -18.873,-13.708 -25.973,-16.011 -7.0997,-2.3028 -14.232,-1.0674 -14.232,-1.0674 0,0 -14.727,-5.7151 -19.213,-6.0485 -4.4853,-0.3334 -6.76,1.0674 -6.76,1.0674 0,0 -6.6725,-2.6997 -9.6064,-2.8463 -2.9338,-0.1466 -7.4716,1.4232 -7.4716,1.4232 0,0 -18.089,-1.4321 -24.55,-0.3559 -6.4601,1.0763 -13.876,4.9811 -13.876,4.9811 0,0 -13.311,2.1991 -18.857,4.9811 -5.5463,2.782 -13.876,11.03 -13.876,11.03 0,0 -9.9275,4.1069 -12.808,7.1158 -2.881,3.009 -4.6253,9.2506 -4.6253,9.2506 0,0 -9.8501,11.985 -11.741,17.79 -1.891,5.8048 -0.7116,15.299 -0.7116,15.299 0,0 -2.9929,17.83 0,25.617 2.9929,7.7867 10.62,13.891 16.366,18.145 5.7462,4.2546 12.57,7.1298 16.722,7.8274 4.152,0.6976 6.7601,-0.7116 6.7601,-0.7116 0,0 -1.6976,7.3335 -1.4232,11.741 0.2747,4.4076 2.8973,9.9958 3.5579,14.232 0.6606,4.2358 -1.7386,5.0451 0.7116,11.03 2.4502,5.9844 11.314,16.71 18.145,20.992 6.8315,4.2816 15.103,5.5469 19.924,5.3369 4.8214,-0.21 7.8274,-2.8463 7.8274,-2.8463 0,0 1.2954,-1.871 11.741,3.9137 z"
         id="path6130" />
    </g>
    <g
       id="text6132"
       style="font-size:731.44000244px;line-height:125%;font-family:sans-serif;letter-spacing:0px;word-spacing:0px;fill:#5e74a7;stroke:#5e74a7;stroke-width:76.8010025">
      <path
         inkscape:connector-curvature="0"
         id="path4145"
         style="font-family:Ubuntu;fill:#5e74a7;stroke:#5e74a7;stroke-width:76.8010025"
         d="m 3544.056,-2352.0595 q -7.3144,-17.5546 -19.7489,-44.6179 -11.703,-27.0633 -25.6004,-58.5152 -13.8973,-31.4519 -29.989,-64.3667 -15.3603,-33.6462 -29.2576,-62.9038 -13.8974,-29.9891 -26.3319,-53.3952 -11.703,-23.406 -19.0174,-35.8405 -8.0458,86.3099 -13.1659,187.2486 -5.1201,100.2073 -8.7773,202.6089 l -69.4868,0 q 2.9258,-65.8296 6.583,-132.3906 3.6572,-67.2925 8.0458,-131.6592 5.1201,-65.0982 10.2402,-126.5392 5.8515,-61.4409 12.4344,-116.2989 l 62.1724,0 q 19.7489,32.1833 42.4236,76.0697 22.6746,43.8864 45.3492,92.1615 22.6747,47.5436 43.8864,95.8186 21.2118,47.5436 38.7664,87.0414 17.5545,-39.4978 38.7663,-87.0414 21.2117,-48.275 43.8864,-95.8186 22.6746,-48.2751 45.3493,-92.1615 22.6746,-43.8864 42.4235,-76.0697 l 62.1724,0 q 24.8689,245.0324 37.3034,506.8879 l -69.4868,0 q -3.6572,-102.4016 -8.7773,-202.6089 -5.12,-100.9387 -13.1659,-187.2486 -7.3144,12.4345 -19.7489,35.8405 -11.703,23.4061 -25.6004,53.3952 -13.8973,29.2576 -29.989,62.9038 -15.3602,32.9148 -29.2576,64.3667 -13.8974,31.4519 -26.3318,58.5152 -11.7031,27.0633 -19.0175,44.6179 l -57.0523,0 z" />
      <path
         inkscape:connector-curvature="0"
         id="path4147"
         style="font-family:Ubuntu;fill:#5e74a7;stroke:#5e74a7;stroke-width:76.8010025"
         d="m 4017.3663,-2281.8413 -68.024,0 0,-380.3488 68.024,0 0,380.3488 z m -34.3777,-449.1042 q -18.286,0 -31.4519,-11.703 -12.4345,-12.4345 -12.4345,-32.9148 0,-20.4803 12.4345,-32.1834 13.1659,-12.4345 31.4519,-12.4345 18.286,0 30.7205,12.4345 13.1659,11.7031 13.1659,32.1834 0,20.4803 -13.1659,32.9148 -12.4345,11.703 -30.7205,11.703 z" />
      <path
         inkscape:connector-curvature="0"
         id="path4149"
         style="font-family:Ubuntu;fill:#5e74a7;stroke:#5e74a7;stroke-width:76.8010025"
         d="m 4135.0595,-2651.2185 q 23.4061,-5.8515 62.1724,-12.4345 38.7663,-6.5829 89.2357,-6.5829 45.3493,0 75.3383,13.1659 29.9891,12.4345 47.5436,35.8405 18.286,22.6747 25.6004,54.858 7.3144,32.1834 7.3144,70.9497 l 0,213.5805 -68.0239,0 0,-198.9517 q 0,-35.1091 -5.1201,-59.9781 -4.3886,-24.8689 -15.3602,-40.2292 -10.9716,-15.3602 -29.2576,-21.9432 -18.286,-7.3144 -45.3493,-7.3144 -10.9716,0 -22.6746,0.7315 -11.7031,0.7314 -22.6747,2.1943 -10.2401,0.7314 -19.0174,2.1943 -8.0459,1.4629 -11.7031,2.1943 l 0,321.1022 -68.0239,0 0,-369.3772 z" />
      <path
         inkscape:connector-curvature="0"
         id="path4151"
         style="font-family:Ubuntu;fill:#5e74a7;stroke:#5e74a7;stroke-width:76.8010025"
         d="m 4800.8299,-2581.7317 q -12.4344,-10.2402 -35.8405,-19.7489 -23.4061,-9.5087 -51.2008,-9.5087 -29.2576,0 -50.4694,10.9716 -20.4803,10.2402 -33.6462,29.2576 -13.1659,18.286 -19.0175,43.8864 -5.8515,25.6004 -5.8515,54.858 0,66.561 32.9148,103.133 32.9148,35.8406 87.7728,35.8406 27.7947,0 46.0807,-2.1943 19.0175,-2.9258 29.2576,-5.8515 l 0,-240.6438 z m 0,-256.004 68.024,-11.7031 0,556.6259 q -23.4061,6.583 -59.9781,13.1659 -36.572,6.583 -84.1156,6.583 -43.8864,0 -78.9955,-13.8974 -35.1092,-13.8973 -59.9781,-39.4977 -24.869,-25.6004 -38.7663,-62.1724 -13.166,-37.3035 -13.166,-83.3842 0,-43.8864 10.9716,-80.4584 11.7031,-36.572 33.6463,-62.9038 21.9432,-26.3319 53.3951,-40.9607 32.1834,-14.6288 73.144,-14.6288 32.9148,0 57.7838,8.7773 25.6004,8.7773 38.0348,16.8231 l 0,-192.3687 z" />
      <path
         inkscape:connector-curvature="0"
         id="path4153"
         style="font-family:Ubuntu;fill:#5e74a7;stroke:#5e74a7;stroke-width:76.8010025"
         d="m 5075.0056,-2330.8478 q 41.6921,0 61.441,-10.9716 20.4803,-10.9716 20.4803,-35.1091 0,-24.869 -19.7489,-39.4978 -19.7488,-14.6288 -65.0981,-32.9148 -21.9432,-8.7772 -42.4235,-17.5545 -19.7489,-9.5087 -34.3777,-21.9432 -14.6288,-12.4345 -23.4061,-29.9891 -8.7773,-17.5545 -8.7773,-43.1549 0,-50.4694 37.3035,-79.727 37.3034,-29.989 101.6701,-29.989 16.0917,0 32.1834,2.1943 16.0917,1.4629 29.989,4.3886 13.8974,2.1944 24.1375,5.1201 10.9716,2.9258 16.8232,5.1201 l -12.4345,58.5152 q -10.9716,-5.8515 -34.3777,-11.703 -23.4061,-6.583 -56.3209,-6.583 -28.5261,0 -49.7379,11.703 -21.2118,10.9716 -21.2118,35.1092 0,12.4344 4.3887,21.9432 5.1201,9.5087 14.6288,17.5545 10.2401,7.3144 24.8689,13.8974 14.6288,6.5829 35.1092,13.8973 27.0632,10.2402 48.275,20.4804 21.2118,9.5087 35.8406,22.6746 15.3602,13.1659 23.406,32.1834 8.0459,18.286 8.0459,45.3492 0,52.6637 -39.4978,79.727 -38.7663,27.0633 -111.1789,27.0633 -50.4693,0 -78.9955,-8.7773 -28.5261,-8.0458 -38.7663,-12.4345 l 12.4345,-58.5152 q 11.703,4.3887 37.3034,13.1659 25.6004,8.7773 68.0239,8.7773 z" />
    </g>
    <g
       id="text6136"
       style="font-size:845.58001709px;line-height:125%;font-family:sans-serif;letter-spacing:-60px;word-spacing:0px;fill:#6983bf;fill-opacity:0.47999998;stroke:#b4c4ea;stroke-width:16.47699928;stroke-dasharray:32.95405428, 16.47702713">
      <path
         inkscape:connector-curvature="0"
         id="path4156"
         style="font-family:Ubuntu;letter-spacing:-60px;fill:#6983bf;fill-opacity:0.47999998;stroke:none;stroke-width:16.47680162;stroke-dasharray:32.95360323, 16.47680162000000000;stroke-miterlimit:4;stroke-dashoffset:0"
         d="m 5646.8775,-2323.4811 0,71.0287 -352.6068,0 0,-585.9869 82.0212,0 0,514.9582 270.5856,0 z" />
      <path
         inkscape:connector-curvature="0"
         id="path4158"
         style="font-family:Ubuntu;letter-spacing:-60px;fill:#6983bf;fill-opacity:0.47999998;stroke:none;stroke-width:16.47699928;stroke-dasharray:32.95405428, 16.47702713000000000"
         d="m 6046.7145,-2472.3032 q 0,52.426 -15.2204,94.705 -15.2205,42.279 -43.1246,72.7198 -27.0586,30.4409 -65.1097,47.3525 -38.0511,16.066 -82.8668,16.066 -44.8158,0 -82.8669,-16.066 -38.0511,-16.9116 -65.9552,-47.3525 -27.0586,-30.4408 -42.279,-72.7198 -15.2205,-42.279 -15.2205,-94.705 0,-51.5804 15.2205,-93.8594 15.2204,-43.1246 42.279,-73.5654 27.9041,-30.4409 65.9552,-46.5069 38.0511,-16.9116 82.8669,-16.9116 44.8157,0 82.8668,16.9116 38.0511,16.066 65.1097,46.5069 27.9041,30.4408 43.1246,73.5654 15.2204,42.279 15.2204,93.8594 z m -82.0213,0 q 0,-74.411 -33.8232,-117.5356 -32.9776,-43.9702 -90.477,-43.9702 -57.4995,0 -91.3227,43.9702 -32.9776,43.1246 -32.9776,117.5356 0,74.411 32.9776,118.3812 33.8232,43.1246 91.3227,43.1246 57.4994,0 90.477,-43.1246 33.8232,-43.9702 33.8232,-118.3812 z" />
      <path
         inkscape:connector-curvature="0"
         id="path4160"
         style="font-family:Ubuntu;letter-spacing:-60px;fill:#6983bf;fill-opacity:0.47999998;stroke:none;stroke-width:16.47699928;stroke-dasharray:32.95405428, 16.47702713000000000"
         d="m 6199.6686,-2309.1063 q 48.198,0 71.0287,-12.6837 23.6762,-12.6837 23.6762,-40.5878 0,-28.7497 -22.8306,-45.6613 -22.8307,-16.9116 -75.2567,-38.0511 -25.3674,-10.147 -49.0436,-20.2939 -22.8307,-10.9926 -39.7423,-25.3674 -16.9116,-14.3749 -27.0585,-34.6688 -10.147,-20.2939 -10.147,-49.8892 0,-58.3451 43.1246,-92.1683 43.1246,-34.6687 117.5356,-34.6687 18.6028,0 37.2055,2.5367 18.6028,1.6912 34.6688,5.0735 16.066,2.5367 27.9042,5.919 12.6837,3.3824 19.4483,5.9191 l -14.3749,67.6464 q -12.6837,-6.7646 -39.7422,-13.5293 -27.0586,-7.6102 -65.1097,-7.6102 -32.9776,0 -57.4994,13.5293 -24.5218,12.6837 -24.5218,40.5878 0,14.3749 5.0734,25.3674 5.9191,10.9926 16.9116,20.2939 11.8382,8.4558 28.7498,16.0661 16.9116,7.6102 40.5878,16.066 31.2865,11.8381 55.8083,23.6762 24.5218,10.9926 41.4334,26.213 17.7572,15.2204 27.0586,37.2055 9.3013,21.1395 9.3013,52.426 0,60.8817 -45.6613,92.1682 -44.8157,31.2865 -128.5281,31.2865 -58.3451,0 -91.3227,-10.147 -32.9776,-9.3014 -44.8157,-14.3749 l 14.3748,-67.6464 q 13.5293,5.0735 43.1246,15.2205 29.5953,10.1469 78.639,10.1469 z" />
      <path
         inkscape:connector-curvature="0"
         id="path4162"
         style="font-family:Ubuntu;letter-spacing:-60px;fill:#6983bf;fill-opacity:0.47999998;stroke:none;stroke-width:16.47699928;stroke-dasharray:32.95405428, 16.47702713000000000"
         d="m 6487.4663,-2692.154 166.5792,0 0,65.9552 -166.5792,0 0,202.9392 q 0,32.9777 5.0734,54.9627 5.0735,21.1395 15.2205,33.8232 10.1469,11.8382 25.3674,16.9116 15.2204,5.0735 35.5143,5.0735 35.5144,0 56.6539,-7.6102 21.9851,-8.4558 30.4409,-11.8381 l 15.2204,65.1096 q -11.8381,5.9191 -41.4334,14.3749 -29.5953,9.3014 -67.6464,9.3014 -44.8157,0 -74.411,-10.9926 -28.7498,-11.8381 -46.5069,-34.6687 -17.7572,-22.8307 -25.3674,-55.8083 -6.7647,-33.8232 -6.7647,-77.7934 l 0,-392.3491 78.639,-13.5293 0,136.1384 z" />
      <g
         id="g4198">
        <path
           inkscape:connector-curvature="0"
           id="path4182"
           d="m 5286.0332,-2838.4395 0,21.0137 16.4766,0 0,-12.7754 3.7011,0 0,-16.4765 -11.9394,0 -8.2383,0 z m 36.6543,8.2383 32.9531,0 0,-16.4765 -32.9531,0 z m 49.4297,-8.2383 -4.0645,0 0,28.7793 16.4785,0 0,-28.7793 0,-8.2382 -8.2402,0 -4.1738,0 z m -86.084,70.4454 16.4766,0 0,-32.9532 -16.4766,0 z m 82.0195,7.7636 16.4785,0 0,-32.9531 -16.4785,0 z m -82.0195,41.666 16.4766,0 0,-32.9531 -16.4766,0 z m 82.0195,7.7657 16.4785,0 0,-32.9551 -16.4785,0 z m -82.0195,41.666 16.4766,0 0,-32.9551 -16.4766,0 z m 82.0195,7.7637 16.4785,0 0,-32.9532 -16.4785,0 z m -82.0195,41.666 16.4766,0 0,-32.9531 -16.4766,0 z m 82.0195,7.7636 16.4785,0 0,-32.9531 -16.4785,0 z m -82.0195,41.6661 16.4766,0 0,-32.9532 -16.4766,0 z m 82.0195,7.7656 16.4785,0 0,-32.9551 -16.4785,0 z m -82.0195,41.666 16.4766,0 0,-32.9551 -16.4766,0 z m 82.0195,7.7637 16.4785,0 0,-32.9531 -16.4785,0 z m -82.0195,41.666 16.4766,0 0,-32.9531 -16.4766,0 z m 82.0195,7.7637 16.4785,0 0,-32.9532 -16.4785,0 z m -82.0195,41.666 16.4766,0 0,-32.9531 -16.4766,0 z m 82.0195,7.7656 16.4785,0 0,-32.9531 -16.4785,0 z m -82.0195,41.666 16.4766,0 0,-32.9551 -16.4766,0 z m 82.0195,7.7637 16.4785,0 0,-32.9531 -16.4785,0 z m -82.0195,41.666 16.4766,0 0,-32.9531 -16.4766,0 z m 82.0195,-0.3594 0,8.2383 8.2383,0 8.125,0 0,-8.2383 0.1152,0 0,-24.83 -16.4785,0 z m 32.8399,8.2383 32.9551,0 0,-16.4766 -32.9551,0 z m 49.4316,0 32.9531,0 0,-16.4766 -32.9531,0 z m 49.4297,0 32.9531,0 0,-16.4766 -32.9531,0 z m 49.4316,0 32.9532,0 0,-16.4766 -32.9532,0 z m 49.4297,0 32.9532,0 0,-16.4766 -32.9532,0 z m 40.0235,24.7149 16.4765,0 0,-32.9532 -16.4765,0 z m -352.6055,16.8359 16.4766,0 0,-32.9531 -16.4766,0 z m 352.6055,13 -3.1172,0 0,16.4766 11.3555,0 8.2382,0 0,-8.2383 0,-21.5977 -16.4765,0 z m -344.3672,3.4785 -8.2383,0 0,4.7598 0,8.2383 8.2383,0 28.1914,0 0,-16.4766 -28.1914,0 z m 44.668,12.9981 32.9531,0 0,-16.4766 -32.9531,0 z m 49.4316,0 32.9531,0 0,-16.4766 -32.9531,0 z m 49.4297,0 32.9531,0 0,-16.4766 -32.9531,0 z m 49.4297,0 32.955,0 0,-16.4766 -32.955,0 z m 49.4316,0 32.9531,0 0,-16.4766 -32.9531,0 z m 49.4297,0 32.9531,0 0,-16.4766 -32.9531,0 z"
           style="color:#000000;font-style:normal;font-variant:normal;font-weight:normal;font-stretch:normal;font-size:medium;line-height:125%;font-family:Ubuntu;text-indent:0;text-align:start;text-decoration:none;text-decoration-line:none;text-decoration-style:solid;text-decoration-color:#000000;letter-spacing:-60px;word-spacing:0px;text-transform:none;direction:ltr;block-progression:tb;writing-mode:lr-tb;baseline-shift:baseline;text-anchor:start;white-space:normal;clip-rule:nonzero;display:inline;overflow:visible;visibility:visible;opacity:1;isolation:auto;mix-blend-mode:normal;color-interpolation:sRGB;color-interpolation-filters:linearRGB;solid-color:#000000;solid-opacity:1;fill:#b8c8f0;fill-opacity:1;fill-rule:nonzero;stroke:none;stroke-width:16.47680092;stroke-linecap:butt;stroke-linejoin:miter;stroke-miterlimit:4;stroke-dasharray:32.95360323, 16.47680162000000000;stroke-dashoffset:0;stroke-opacity:1;color-rendering:auto;image-rendering:auto;shape-rendering:auto;text-rendering:auto;enable-background:accumulate" />
        <path
           inkscape:connector-curvature="0"
           id="path4184"
           d="m 5835.4668,-2711.3281 0.1953,16.4765 4.7305,-0.055 5.4258,0.064 5.2793,0.1895 5.291,0.3203 5.1543,0.4394 5.1699,0.5723 0.6152,0.084 2.2344,-16.3242 -0.7031,-0.098 -0.1055,-0.014 -0.1035,-0.012 -5.3652,-0.5937 -0.1036,-0.012 -0.1035,-0.01 -5.416,-0.461 -0.1016,-0.01 -0.1035,-0.01 -5.4687,-0.3301 -0.1016,-0.01 -0.1,-0 -5.5234,-0.1993 -0.098,-0 -0.1,-0 -5.5762,-0.066 -0.098,0 -0.098,0 z m -17.7598,1.0293 -0.1035,0.01 -0.1035,0.012 -5.3633,0.5937 -0.1055,0.012 -0.1035,0.014 -5.3125,0.7266 -0.1054,0.016 -0.1055,0.018 -5.2578,0.8574 -0.1074,0.018 -0.1055,0.021 -5.2051,0.9903 -0.1074,0.019 -0.1074,0.023 -5.1524,1.1231 -0.1074,0.023 -0.1074,0.027 -5.0996,1.2539 -0.1074,0.027 -0.1075,0.029 -0.3183,0.088 4.3672,15.8867 0.2402,-0.064 4.8906,-1.2031 4.9356,-1.0762 4.9668,-0.9434 5.0547,-0.8242 5.1054,-0.6992 5.168,-0.5723 0.5762,-0.049 -1.4004,-16.418 z m 65.2266,19.6855 3.8398,0.836 4.877,1.1992 4.9062,1.3476 4.7422,1.4434 4.752,1.5898 4.6562,1.6973 2.4649,0.9766 6.0683,-15.3184 -2.5644,-1.0156 -0.1055,-0.041 -0.1055,-0.039 -4.8886,-1.7832 -0.1055,-0.039 -0.1055,-0.035 -4.9414,-1.6524 -0.1074,-0.035 -0.1074,-0.033 -4.9942,-1.5196 -0.1074,-0.033 -0.1074,-0.029 -5.0469,-1.3867 -0.1054,-0.029 -0.1094,-0.027 -5.0996,-1.2539 -0.1055,-0.027 -0.1094,-0.023 -3.9804,-0.8672 z m -118.6133,-7.3242 -0.1055,0.039 -0.1054,0.041 -4.834,1.916 -0.1055,0.041 -0.1035,0.045 -4.7832,2.0469 -0.029,0.014 -0.031,0.014 -4.7168,2.0624 -0.1,0.045 -0.098,0.045 -4.6367,2.1777 -0.1,0.047 -0.098,0.049 -4.5586,2.2891 -0.098,0.049 -0.098,0.053 -2.7461,1.4726 7.7852,14.5215 2.6445,-1.418 4.3711,-2.1953 4.4258,-2.0781 4.5683,-2 0.061,-0.025 4.5976,-1.9687 4.6543,-1.8438 3.7012,-1.3516 -5.6484,-15.4785 z m 163.4805,22.791 1.1836,0.5567 4.3652,2.1992 4.25,2.291 4.1328,2.3769 4.1055,2.5157 4.0195,2.6211 3.9063,2.707 0.9609,0.707 9.7656,-13.2715 -1.0449,-0.7675 -0.094,-0.068 -0.096,-0.066 -4.1114,-2.8516 -0.096,-0.066 -0.098,-0.062 -4.1973,-2.7383 -0.098,-0.062 -0.098,-0.061 -4.2852,-2.627 -0.098,-0.059 -0.1,-0.059 -4.3692,-2.5137 -0.1,-0.057 -0.1015,-0.055 -4.4551,-2.4004 -0.1,-0.055 -0.1016,-0.051 -4.541,-2.2891 -0.1,-0.049 -0.1016,-0.049 -1.2929,-0.6074 z m -206.0957,-1.2012 -0.094,0.061 -0.094,0.064 -4.1621,2.8497 -0.092,0.064 -0.092,0.066 -4.0821,2.9629 -0.09,0.064 -0.09,0.068 -4.004,3.0762 -0.088,0.068 -0.086,0.07 -3.9258,3.1875 -0.086,0.07 -0.084,0.072 -3.8457,3.3008 -0.084,0.072 -0.082,0.074 -3.7656,3.4121 -0.082,0.074 -0.078,0.076 -1.414,1.3496 11.3867,11.9102 1.3437,-1.2852 3.5899,-3.2519 3.6972,-3.1719 3.7344,-3.0332 3.8535,-2.959 3.836,-2.7832 3.9726,-2.7246 0.4961,-0.3203 -8.9375,-13.8438 z m 245.3398,27.0235 1.584,1.3867 3.5606,3.2988 3.375,3.3086 3.3691,3.4883 3.2871,3.5977 3.3535,3.7578 3.2031,3.7929 0.053,0.066 0,-0 0.021,0.025 0.9336,-0.7891 11.9121,-9.5254 -0.1172,-0.1465 -0.068,-0.086 -0.072,-0.086 -3.3398,-3.9532 -0.072,-0.084 -0.074,-0.084 -3.4375,-3.8555 -0.033,-0.035 -0.033,-0.037 -3.4239,-3.748 -0.078,-0.084 -0.078,-0.082 -3.5117,-3.6367 -0.078,-0.082 -0.082,-0.08 -3.5976,-3.5254 -0.082,-0.08 -0.084,-0.078 -3.6835,-3.4122 -0.084,-0.078 -0.088,-0.076 -1.6817,-1.4727 z m -285.039,8.0586 -0.072,0.082 -0.068,0.084 -3.2441,3.9551 -0.068,0.082 -0.066,0.086 -3.1504,4.0528 -0.064,0.084 -0.064,0.086 -3.0586,4.1523 -0.062,0.086 -0.06,0.086 -2.9668,4.252 -0.059,0.086 -0.059,0.088 -2.873,4.3496 -0.059,0.086 -0.055,0.088 -2.711,4.3379 13.9707,8.7344 2.6504,-4.2383 2.752,-4.168 2.8555,-4.0937 2.9414,-3.9922 2.998,-3.8555 3.1016,-3.7832 1.2832,-1.4824 -12.459,-10.7832 z m 158.2871,-0.7813 -1.4317,0.018 0.1973,16.4746 1.3281,-0.014 3.416,0.041 3.2598,0.1191 3.2715,0.2012 3.2871,0.289 3.0605,0.3496 3.1602,0.4493 3.0137,0.5117 3.0625,0.6113 2.916,0.668 0.709,0.1836 4.1445,-15.9473 -0.8184,-0.2129 -0.1152,-0.029 -0.1172,-0.027 -3.1875,-0.7305 -0.1152,-0.025 -0.1152,-0.023 -3.2344,-0.6446 -0.1133,-0.021 -0.1152,-0.02 -3.2813,-0.5586 -0.1113,-0.02 -0.1133,-0.016 -3.3301,-0.4727 -0.1094,-0.016 -0.1113,-0.012 -3.3789,-0.3867 -0.1074,-0.014 -0.1074,-0.01 -3.4278,-0.3008 -0.1054,-0.01 -0.1055,-0.01 -3.4746,-0.2149 -0.1035,-0.01 -0.1035,-0 -3.5215,-0.1289 -0.1016,-0 -0.1,-0 -3.5703,-0.043 -0.1,-0 z m -21.7832,1.627 -0.1114,0.016 -0.1113,0.018 -3.2949,0.5586 -0.1133,0.02 -0.1113,0.023 -3.2481,0.6426 -0.1152,0.024 -0.1133,0.025 -3.2012,0.7305 -0.1152,0.027 -0.1152,0.029 -3.1543,0.8164 -0.1172,0.029 -0.1152,0.033 -3.1075,0.9023 -0.1191,0.033 -0.1152,0.039 -3.0625,0.9863 -0.1172,0.039 -0.1153,0.041 -3.0156,1.0722 -0.1191,0.043 -0.1153,0.045 -2.9687,1.1602 -0.1172,0.045 -0.1152,0.049 -2.9239,1.2461 -0.1171,0.049 -0.1133,0.053 -0.7676,0.3555 6.918,14.9531 0.6679,-0.3066 2.7071,-1.1524 2.7304,-1.0644 2.7422,-0.9786 2.8301,-0.9121 2.8672,-0.834 2.9258,-0.7558 2.9843,-0.6817 3.045,-0.6035 3.0293,-0.5136 2.7753,-0.3926 -2.3085,-16.3145 z m 65.457,23.1152 1.5371,0.6602 2.6172,1.2207 2.5937,1.3086 2.5469,1.3886 2.4551,1.4395 2.4453,1.5391 2.4453,1.6484 2.336,1.6836 2.3183,1.7773 2.2832,1.8692 1.961,1.7031 10.8105,-12.4336 -2.0625,-1.793 -0.094,-0.082 -0.096,-0.078 -2.4688,-2.0196 -0.098,-0.078 -0.1,-0.078 -2.5156,-1.9316 -0.1016,-0.076 -0.1035,-0.074 -2.5625,-1.8477 -0.1035,-0.074 -0.1074,-0.072 -2.6113,-1.7597 -0.1055,-0.072 -0.1094,-0.068 -2.6601,-1.6738 -0.1094,-0.068 -0.1113,-0.066 -2.7071,-1.5879 -0.1113,-0.066 -0.1133,-0.061 -2.7558,-1.5039 -0.1133,-0.061 -0.1153,-0.059 -2.8027,-1.4179 -0.1152,-0.057 -0.1172,-0.055 -2.8496,-1.3321 -0.1172,-0.053 -0.1172,-0.051 -1.6933,-0.7285 z m 114.3652,3.3203 2.291,3.3887 2.7618,4.3203 2.6269,4.3535 2.5391,4.4629 2.4336,4.5352 2.3613,4.6777 0.8086,1.7012 14.8828,-7.0703 -0.8535,-1.7969 -0.043,-0.09 -0.045,-0.09 -2.4473,-4.8457 -0.045,-0.09 -0.049,-0.09 -2.5469,-4.7461 -0.049,-0.092 -0.051,-0.09 -2.6465,-4.6465 -0.051,-0.092 -0.055,-0.09 -2.7441,-4.5489 -0.055,-0.09 -0.059,-0.09 -2.8437,-4.4492 -0.057,-0.09 -0.06,-0.09 -2.3594,-3.4863 z m -227.7754,-7.7461 -0.1035,0.068 -0.1015,0.072 -2.5996,1.8476 -0.1016,0.072 -0.1,0.074 -2.5528,1.9316 -0.1,0.076 -0.096,0.076 -2.5078,2.0176 -0.094,0.078 -0.094,0.078 -2.4609,2.1055 -0.092,0.078 -0.088,0.08 -2.416,2.1894 -0.088,0.08 -0.084,0.082 -2.3691,2.2754 -0.084,0.082 -0.082,0.084 -2.3223,2.3613 -0.08,0.082 -0.078,0.084 -2.2774,2.4473 -0.076,0.082 -0.074,0.086 -2.2285,2.5332 -0.074,0.082 -0.07,0.086 -1.1797,1.416 12.6563,10.5488 1.0879,-1.3046 2.0761,-2.3614 2.1407,-2.3047 2.1679,-2.205 2.1992,-2.1133 2.2364,-2.0274 2.2929,-1.9609 2.3379,-1.8809 2.336,-1.7656 2.3711,-1.6836 1.3086,-0.8711 -9.129,-13.7168 z m 149.5821,31.6289 0.1875,0.2168 1.9922,2.4453 2.0039,2.5997 0.023,0.031 2.0313,2.6621 0.025,0.033 1.8086,2.5059 1.8418,2.6894 1.7813,2.752 1.7012,2.7832 1.6308,2.8223 1.5899,2.9199 0.6308,1.2265 14.6582,-7.5234 -0.666,-1.2988 -0.047,-0.09 -0.049,-0.09 -1.6836,-3.0918 -0.049,-0.09 -0.053,-0.09 -1.75,-3.0313 -0.051,-0.09 -0.055,-0.088 -1.8164,-2.9707 -0.055,-0.09 -0.059,-0.088 -1.8828,-2.9102 -0.057,-0.088 -0.06,-0.088 -1.9473,-2.8476 -0.06,-0.088 -0.062,-0.086 -2.0156,-2.7872 -0.062,-0.088 -0.065,-0.084 -2.082,-2.7266 -0.012,-0.016 -0.012,-0.014 -2.084,-2.707 -0.068,-0.086 -0.068,-0.086 -2.1328,-2.6191 -0.072,-0.088 -0.072,-0.084 -0.2695,-0.3145 z m -267.5547,-5.4453 -0.041,0.086 -0.041,0.086 -2.3184,4.9453 -0.041,0.084 -0.037,0.086 -2.2266,5.045 -0.037,0.084 -0.035,0.086 -2.1347,5.1426 -0.033,0.084 -0.033,0.084 -2.041,5.2422 -0.033,0.082 -0.029,0.082 -1.9493,5.3418 -0.023,0.062 -0.021,0.064 -0.022,0.059 11.2774,3.9063 4.2675,1.5566 0.025,-0.07 1.8926,-5.1836 1.9883,-5.1113 0.021,-0.053 2.0371,-4.9023 2.1445,-4.8574 2.2539,-4.8086 2.1875,-4.3946 -14.7519,-7.3398 z m 81.789,12.5821 -0.055,0.088 -0.053,0.088 -1.7715,2.9707 -0.053,0.088 -0.051,0.09 -1.707,3.0312 -0.049,0.088 -0.047,0.09 -1.6426,3.0918 -0.047,0.09 -0.045,0.088 -1.5781,3.1543 -0.045,0.088 -0.041,0.09 -1.5137,3.2149 -0.041,0.088 -0.039,0.088 -1.4492,3.2754 -0.039,0.088 -0.037,0.088 -1.3848,3.336 -0.035,0.088 -0.035,0.086 -1.3203,3.3984 -0.033,0.086 -0.031,0.086 -0.8145,2.2441 15.4883,5.6231 0.7812,-2.1504 1.2618,-3.2481 1.3007,-3.1347 1.4043,-3.1738 0.012,-0.025 1.3828,-2.9375 1.5156,-3.0235 1.5352,-2.8926 1.5488,-2.7519 0.027,-0.045 1.6973,-2.8477 1.1152,-1.7695 -13.9336,-8.791 z m 286.1368,10.9863 1.3457,3.4394 0.014,0.037 1.8692,5.1211 0.018,0.047 1.7636,5.0938 1.6524,5.166 1.5566,5.2969 1.4492,5.4043 0.1621,0.666 16.0079,-3.9004 -0.1895,-0.7852 -0.023,-0.092 -0.025,-0.092 -1.4864,-5.539 -0.025,-0.094 -0.025,-0.094 -1.6055,-5.4668 -0.027,-0.094 -0.031,-0.092 -1.7246,-5.3945 -0.029,-0.094 -0.033,-0.094 -1.8418,-5.3223 -0.023,-0.066 -0.024,-0.064 -1.9531,-5.3418 -0.031,-0.088 -0.033,-0.086 -1.3613,-3.4765 z m -71.5039,19.8047 -5.2461,1.9531 0.045,0.1191 1.2129,3.2559 1.1328,3.2598 0.014,0.045 1.1171,3.457 1.0489,3.5098 0.014,0.043 0.9609,3.4804 0.9141,3.5977 0.8515,3.6504 0.791,3.7226 0.416,2.166 16.1817,-3.1132 -0.4317,-2.2422 -0.016,-0.076 -0.016,-0.078 -0.8262,-3.8867 -0.018,-0.08 -0.017,-0.078 -0.8926,-3.8261 -0.018,-0.08 -0.021,-0.08 -0.957,-3.7656 -0.022,-0.082 -0.023,-0.082 -1.0235,-3.7031 -0.023,-0.084 -0.023,-0.082 -1.0899,-3.6426 -0.025,-0.086 -0.027,-0.084 -1.1563,-3.5801 -0.027,-0.086 -0.031,-0.086 -1.2207,-3.5195 -0.031,-0.088 -0.031,-0.086 -1.289,-3.459 -0.033,-0.088 -0.033,-0.088 -0.024,-0.055 z m -312.7911,-0.1289 -0.027,0.094 -0.025,0.094 -1.4863,5.539 -0.025,0.092 -0.022,0.092 -1.3672,5.6114 -0.023,0.092 -0.02,0.092 -1.2481,5.6856 -0.019,0.09 -0.02,0.09 -1.1289,5.7578 -0.017,0.09 -0.016,0.09 -1.0097,5.8301 -0.016,0.088 -0.014,0.088 -0.5059,3.3477 16.293,2.4629 0.4961,-3.2832 0.9765,-5.6445 1.0918,-5.5508 1.2149,-5.5332 1.3105,-5.3848 1.4453,-5.3867 0.1,-0.3321 -15.8105,-4.6425 z m 78.1934,18.8945 -0.019,0.078 -0.018,0.08 -0.8691,3.8262 -0.018,0.076 -0.016,0.078 -0.8067,3.8867 -0.016,0.076 -0.014,0.076 -0.7402,3.9473 -0.014,0.074 -0.014,0.074 -0.6757,4.0098 -0.012,0.072 -0.012,0.072 -0.6113,4.0703 -0.012,0.072 -0.01,0.07 -0.5489,4.1328 -0.01,0.068 -0.01,0.07 -0.4825,4.1914 -0.01,0.068 -0.01,0.068 -0.066,0.6758 16.3965,1.6152 0.053,-0.541 0,-0.016 0.4746,-4.1289 0.01,-0.047 0.5312,-3.9922 0.584,-3.875 0.01,-0.053 0.6485,-3.834 0,-0.029 0.7109,-3.7812 0,-0.02 0.7754,-3.7343 0.8164,-3.5899 0.8946,-3.6074 -15.9922,-3.9668 z m 319.5273,7.4004 -0.1543,0.027 0,0 -0,0 0.018,0.09 0.9902,5.7129 0,0.023 0.8574,5.6816 0.01,0.043 0.7285,5.6309 0,0.035 0.6465,5.9766 0,0.037 0.5059,5.7871 0,0.033 0.1758,2.5977 16.4395,-1.1055 -0.1778,-2.6309 -0,-0.082 -0.01,-0.084 -0.5352,-6.1191 -0.01,-0.084 -0.01,-0.084 -0.6524,-6.0488 -0.01,-0.086 -0.012,-0.086 -0.7734,-5.9746 -0.01,-0.086 -0.014,-0.088 -0.8926,-5.9024 -0.012,-0.088 -0.016,-0.088 -1.0117,-5.8301 -0.016,-0.09 -0.018,-0.09 -0.033,-0.1758 z m -79.2578,21.7871 0.1993,1.6875 0,0.041 0.4238,4.2012 0,0.012 0.3477,4.1309 0,0.047 0.2793,4.1133 0,0.059 0.2207,4.252 0,0.049 0.1601,4.3262 0,0.043 0.098,4.3946 0,0.047 0.033,4.4571 0,0.059 0,0.059 -0.033,4.457 0,0.047 -0.098,4.4004 0,0.041 -0.1601,4.33 -0,0.049 -0.2168,4.1855 -0,0.064 -0.2832,4.1875 -0,0.047 -0.3477,4.1406 -0,0.014 -0.1621,1.6113 16.3945,1.6504 0.1641,-1.625 0.01,-0.066 0.01,-0.068 0.3633,-4.3242 0.01,-0.066 0.01,-0.066 0.2969,-4.3828 0,-0.064 0,-0.064 0.2304,-4.4434 0,-0.062 0,-0.062 0.166,-4.502 0,-0.062 0,-0.061 0.1,-4.5625 0,-0.059 0,-0.061 0.033,-4.6211 -8.2382,-0.059 8.2382,-0.059 -0.033,-4.6211 0,-0.061 -0,-0.059 -0.1,-4.5605 0,-0.061 -0,-0.062 -0.166,-4.498 -0,-0.062 -0,-0.062 -0.2304,-4.4375 -0,-0.064 -0,-0.064 -0.2969,-4.377 -0.01,-0.066 -0.01,-0.066 -0.3633,-4.3144 -0.01,-0.068 -0.01,-0.068 -0.4297,-4.252 -0.01,-0.07 -0.01,-0.07 -0.2149,-1.8262 z m -327.8613,5.9902 -0.01,0.084 -0.01,0.082 -0.416,6.1934 -0.01,0.08 -0,0.082 -0.2969,6.2656 -0,0.08 -0,0.078 -0.1777,6.3399 -0,0.076 0,0.078 -0.059,6.4121 -0,0.074 0,0.076 0.029,3.3633 16.4765,-0.1504 -0.031,-3.2871 0.06,-6.3086 0,-0.027 0.1739,-6.0957 0.291,-6.1367 0.3965,-5.9238 0,-0.035 0.375,-4.3066 -16.4141,-1.4356 z m 81.3379,11.8321 -0,0.062 -0,0.061 -0.1601,4.4981 -0,0.061 -0,0.061 -0.096,4.5585 -0,0.059 0,0.059 -0.033,4.6192 0,0.059 0,0.057 0.033,4.6211 0,0.059 0,0.059 0.096,4.5625 0,0.059 0,0.061 0.1601,4.502 0,0.062 0,0.061 0.2266,4.4434 0,0.062 0,0.062 0.057,0.8594 16.4414,-1.086 -0.049,-0.7344 -0,-0.027 -0.2227,-4.416 -0.1523,-4.2578 0,-0.029 -0.096,-4.416 0,-0.039 -0.033,-4.4668 0,-0.057 0,-0.059 0.033,-4.4649 0,-0.039 0.096,-4.4141 0,-0.029 0.1523,-4.2539 0.014,-0.2734 -16.457,-0.836 z m 330.2656,8.0527 0.057,6.043 -0.061,6.4218 0,0.016 -0.1719,6.205 -0.2929,6.2305 -0,0.045 -0.3945,5.9512 -0,0.043 -0.5293,6.1328 -0,0.021 -0.1035,0.959 16.3828,1.7519 0.1211,-1.1269 0.01,-0.084 0.01,-0.082 0.5352,-6.1972 0.01,-0.082 0.01,-0.082 0.416,-6.2754 0,-0.08 0,-0.08 0.2988,-6.3555 0,-0.078 0,-0.078 0.1777,-6.4335 0,-0.078 0,-0.076 0.06,-6.5137 -8.1855,-0.074 8.1855,-0.076 -0.057,-6.1191 z m -411.998,26.416 0.3808,5.75 0.01,0.082 0.01,0.082 0.5351,6.1972 0.01,0.082 0.01,0.084 0.6543,6.1171 0.01,0.086 0.01,0.084 0.7734,6.039 0.012,0.086 0.014,0.088 0.8906,5.957 0.014,0.09 0.016,0.088 0.459,2.668 16.2383,-2.791 -0.4531,-2.6348 -0.01,-0.035 -0.8555,-5.7266 -0.7363,-5.75 -0,-0.014 -0.6464,-6.0488 -0.5215,-6.041 -0,-0.043 -0.3692,-5.5859 z m 83.5761,16.0977 0.5352,4.0566 0.01,0.07 0.01,0.07 0.6133,4.086 0.01,0.072 0.014,0.072 0.6757,4.0254 0.012,0.074 0.014,0.074 0.7403,3.9668 0.016,0.076 0.016,0.074 0.8047,3.9082 0.016,0.076 0.018,0.076 0.8691,3.8476 0.018,0.078 0.02,0.078 0.9336,3.789 0.02,0.08 0.021,0.078 0.998,3.7305 0.022,0.08 0.023,0.08 0.2539,0.8808 15.8282,-4.584 -0.2364,-0.8144 -0.9472,-3.5371 -0.8965,-3.6406 -0.836,-3.6876 -0.7773,-3.7792 -0.7168,-3.8379 -0.01,-0.043 -0.627,-3.7344 -0.01,-0.045 -0.5977,-3.9863 -0.01,-0.055 -0.5156,-3.9141 z m 242.5958,9.5976 -0.7383,3.8594 -0.01,0.049 -0.7832,3.7012 -0.012,0.053 -0.8477,3.6446 -0.01,0.047 -0.9024,3.5586 -0.9746,3.5567 -1.0156,3.4199 -0.012,0.039 -1.1192,3.4941 -0.8691,2.5234 15.5801,5.3614 0.9003,-2.6133 0.029,-0.084 0.027,-0.086 1.1562,-3.6094 0.025,-0.084 0.025,-0.082 1.0899,-3.6699 0.025,-0.082 0.021,-0.082 1.0235,-3.7305 0.023,-0.08 0.019,-0.082 0.959,-3.7871 0.02,-0.08 0.017,-0.08 0.8926,-3.8476 0.018,-0.078 0.018,-0.078 0.8261,-3.9082 0.016,-0.076 0.014,-0.078 0.7598,-3.9668 0.016,-0.074 0.012,-0.076 0.4785,-2.7714 -16.2383,-2.7969 z m 82.1953,2.4239 -0,0.027 -0.9922,5.7754 -1.1055,5.6719 -0.01,0.027 -1.1933,5.4551 -1.3164,5.4316 -1.4375,5.3809 -0.8184,2.8008 15.8125,4.6308 0.8457,-2.8847 0.027,-0.094 0.023,-0.096 1.4863,-5.5605 0.025,-0.094 0.024,-0.094 1.3671,-5.6407 0.021,-0.092 0.022,-0.094 1.2481,-5.7207 0.02,-0.09 0.018,-0.092 1.1289,-5.7988 0.018,-0.09 0.016,-0.09 1.0117,-5.8789 0.014,-0.088 0.014,-0.09 0.098,-0.6465 -16.2949,-2.4394 z m -401.1875,22.1523 1.0254,4.2266 0.021,0.094 0.025,0.094 1.4864,5.5605 0.025,0.096 0.027,0.094 1.6055,5.4824 0.027,0.096 0.029,0.094 1.7246,5.4043 0.031,0.096 0.033,0.094 1.8418,5.3262 0.031,0.088 0.033,0.088 1.9492,5.2403 0.031,0.082 0.031,0.082 0.088,0.2207 15.3164,-6.0761 -0.041,-0.1035 -1.8906,-5.0762 -1.793,-5.1836 -1.6738,-5.2442 -0.014,-0.045 -1.5254,-5.2129 -1.4355,-5.3769 -0.9981,-4.1211 z m 88.5214,15.6152 0.4825,1.252 0.033,0.086 0.035,0.086 1.3848,3.373 0.035,0.086 0.037,0.086 1.4492,3.3125 0.039,0.088 0.041,0.086 1.5136,3.2539 0.039,0.088 0.043,0.086 1.5781,3.1934 0.043,0.088 0.047,0.088 1.6426,3.1328 0.045,0.088 0.049,0.088 1.707,3.0742 0.049,0.088 0.051,0.086 1.7715,3.0156 0.051,0.088 0.053,0.086 1.8359,2.957 0.055,0.086 0.055,0.086 1.7383,2.6484 13.7773,-9.0371 -1.7089,-2.6074 -0.027,-0.041 -1.6641,-2.6836 -1.6718,-2.8457 -1.6172,-2.9102 -1.5059,-2.873 -0.021,-0.041 -1.5351,-3.1094 -0.021,-0.043 -1.3945,-3.0039 -1.3789,-3.1523 -1.293,-3.1485 -0.4609,-1.1953 z m 216.1602,4.5801 -1.5371,3.0352 -1.5977,2.9707 -1.6386,2.8789 -1.6621,2.7617 -0.029,0.045 -1.7891,2.8106 -1.8359,2.7324 -1.9082,2.6875 -1.9473,2.5996 -1.1738,1.4922 12.955,10.1816 1.2286,-1.5644 0.059,-0.074 0.057,-0.076 2.082,-2.7774 0.062,-0.084 0.061,-0.086 2.0156,-2.8379 0.06,-0.084 0.057,-0.088 1.9492,-2.8964 0.059,-0.086 0.055,-0.086 1.8828,-2.957 0.055,-0.086 0.053,-0.088 1.8184,-3.0156 0.051,-0.088 0.051,-0.088 1.75,-3.0742 0.051,-0.088 0.047,-0.09 1.6855,-3.1328 0.047,-0.088 0.045,-0.09 1.6172,-3.1933 0.045,-0.088 0.043,-0.088 1.2129,-2.5449 -14.8691,-7.0957 z m 83.5801,6.1152 -1.9883,4.9903 -2.0781,4.8847 -2.1504,4.7461 -2.2735,4.711 -2.3632,4.6152 -1.1817,2.1738 14.4746,7.8711 1.2305,-2.2636 0.047,-0.088 0.047,-0.09 2.4472,-4.7754 0.045,-0.088 0.043,-0.09 2.3496,-4.8691 0.043,-0.088 0.039,-0.09 2.25,-4.9609 0.039,-0.088 0.039,-0.088 2.1504,-5.0547 0.037,-0.086 0.035,-0.088 2.0508,-5.1465 0.033,-0.088 0.033,-0.086 1.0918,-2.9317 -15.4394,-5.7519 z m -371.5508,21.9219 2.2109,4.6387 0.041,0.086 0.041,0.084 2.4121,4.7754 0.043,0.088 0.045,0.084 2.5039,4.6836 0.047,0.086 0.049,0.086 2.5957,4.5918 0.049,0.086 0.051,0.084 2.6875,4.5 0.053,0.086 0.053,0.084 2.7812,4.4062 0.055,0.086 0.057,0.084 0.7911,1.1894 13.7128,-9.1348 -0.75,-1.1269 -2.6621,-4.2168 -2.5898,-4.334 -2.5059,-4.4355 -2.3906,-4.4688 -2.3223,-4.6015 -2.1796,-4.5762 z m 98.623,12.0957 0.5528,0.6172 0.076,0.084 0.076,0.082 2.2774,2.4004 0.078,0.084 0.082,0.08 2.3223,2.3164 0.082,0.082 0.086,0.08 2.3671,2.2324 0.086,0.082 0.09,0.078 2.4141,2.1484 0.09,0.08 0.092,0.076 2.461,2.0644 0.094,0.078 0.096,0.074 2.5059,1.9804 0.096,0.076 0.1,0.072 2.5527,1.8964 0.1,0.072 0.1016,0.072 2.5996,1.8105 0.1016,0.07 0.1054,0.068 2.6446,1.7266 0.1054,0.068 0.1075,0.066 2.6796,1.6348 8.5821,-14.0664 -2.5645,-1.5645 -2.4961,-1.6289 -2.3828,-1.6621 -2.334,-1.7344 -2.3007,-1.8164 -2.2969,-1.9277 -2.2305,-1.9844 -2.164,-2.041 -2.17,-2.1621 -2.1328,-2.25 -0.4668,-0.5215 z m 163.0899,-3.9648 -2.1797,1.9726 -2.25,1.92 -2.2519,1.8066 -2.3282,1.7539 -2.3984,1.6914 -2.3789,1.5723 -2.4473,1.5117 -2.4609,1.416 -2.5274,1.3516 -2.5547,1.2676 -0.086,0.039 0,0 -0.061,0.029 0.9668,1.9512 5.9512,12.998 0.1699,-0.078 0.1152,-0.053 0.1153,-0.057 2.8027,-1.3906 0.1133,-0.057 0.1133,-0.059 2.7558,-1.4746 0.1133,-0.061 0.1094,-0.064 2.709,-1.5567 0.1093,-0.064 0.1094,-0.066 2.6602,-1.6426 0.1074,-0.066 0.1074,-0.07 2.6114,-1.7285 0.1054,-0.068 0.1035,-0.074 2.5645,-1.8106 0.1035,-0.072 0.1,-0.076 2.5176,-1.8945 0.1,-0.076 0.098,-0.078 2.4668,-1.9786 0.098,-0.078 0.094,-0.08 2.4199,-2.0644 0.094,-0.08 0.092,-0.082 2.3711,-2.1465 0.09,-0.082 0.088,-0.084 0.9375,-0.9004 -11.4122,-11.8848 z m 88.6152,11.3789 -2.8008,4.1055 -2.9511,4.0957 -2.9922,3.9316 -3.0742,3.8281 -3.1953,3.7774 -3.2305,3.6191 12.291,10.9746 3.2656,-3.6582 0.072,-0.082 0.07,-0.082 3.3398,-3.9434 0.068,-0.082 0.068,-0.084 3.2402,-4.0371 0.066,-0.084 0.065,-0.084 3.1425,-4.1289 0.065,-0.086 0.062,-0.086 3.041,-4.2226 0.062,-0.086 0.061,-0.086 2.9433,-4.3145 0.059,-0.088 0.057,-0.088 1.1348,-1.7579 -13.8437,-8.9355 z m -208.3379,22.8008 2.334,0.8945 0.1133,0.043 0.1172,0.041 3.0156,1.0527 0.1152,0.041 0.1153,0.035 3.0625,0.9687 0.1133,0.037 0.1152,0.033 3.1094,0.8848 0.1133,0.031 0.1152,0.029 3.1543,0.8007 0.1133,0.029 0.1132,0.025 3.2012,0.7149 0.1133,0.025 0.1113,0.022 3.2481,0.6328 0.1113,0.021 0.1113,0.018 3.293,0.5469 0.1094,0.019 0.1093,0.016 3.3399,0.4628 0.1074,0.014 0.1074,0.014 3.3848,0.3789 0.1055,0.012 0.1074,0.01 0.8555,0.074 1.4101,-16.416 -0.7715,-0.066 -3.164,-0.3554 -3.1016,-0.4317 -3.1094,-0.5156 -2.9902,-0.582 -3,-0.67 -2.8574,-0.7265 -2.9004,-0.8242 -2.8418,-0.8985 -2.8438,-0.9922 -2.1738,-0.834 z m 79.4883,-11.8496 -2.918,0.746 -2.9765,0.6661 -3.0313,0.5918 -3.0351,0.5058 -3.0899,0.4297 -3.1464,0.3535 -3.2266,0.2774 -3.2813,0.1992 -3.2812,0.1172 -0.1992,0 0.1953,16.4765 0.2597,-0 0.098,-0 0.1,-0 3.5215,-0.1269 0.1016,-0 0.1015,-0.01 3.4746,-0.2109 0.1035,-0.01 0.1036,-0.01 3.4277,-0.2949 0.1055,-0.01 0.1054,-0.012 3.3789,-0.3809 0.1075,-0.012 0.1093,-0.014 3.3301,-0.4648 0.1094,-0.014 0.1113,-0.019 3.2813,-0.5469 0.1133,-0.02 0.1113,-0.021 3.2344,-0.6308 0.1132,-0.024 0.1133,-0.025 3.1875,-0.7148 0.1133,-0.027 0.1152,-0.027 3.1387,-0.8008 0.1152,-0.029 0.1153,-0.033 2.2695,-0.6504 -4.5312,-15.8398 z m -194.9531,13.2363 1.6601,2.125 0.065,0.082 0.066,0.082 3.2422,3.9434 0.068,0.08 0.068,0.08 3.336,3.8515 0.1093,0.127 0.1153,0.123 3.5273,3.752 0.072,0.076 0.074,0.074 3.6055,3.6465 0.074,0.074 0.076,0.072 3.6856,3.5411 0.078,0.074 0.078,0.072 3.4473,3.1446 11.1035,-12.1739 -3.332,-3.039 -3.5762,-3.4336 -3.4238,-3.4629 -3.3809,-3.5957 -3.1543,-3.6426 -3.0859,-3.748 -1.6113,-2.0664 z m 291.7715,13.1308 -3.586,3.168 -3.7109,3.1016 -3.748,2.9668 -3.8457,2.875 -3.959,2.8008 -3.045,2.0293 9.1446,13.707 3.164,-2.1113 0.092,-0.061 0.09,-0.064 4.1133,-2.9063 0.09,-0.064 0.09,-0.066 4.0274,-3.0136 0.088,-0.066 0.088,-0.068 3.9414,-3.1191 0.086,-0.068 0.086,-0.072 3.8554,-3.2226 0.086,-0.072 0.084,-0.074 3.7676,-3.3301 0.084,-0.072 0.082,-0.076 2.9297,-2.7344 -11.2383,-12.0488 z m -254.9219,22.8731 3.4336,2.5332 0.086,0.064 0.088,0.061 4.1621,2.9082 0.088,0.061 0.088,0.059 4.2422,2.8008 0.088,0.059 0.092,0.057 4.3203,2.6953 0.09,0.057 0.092,0.055 4.3985,2.5898 0.092,0.053 0.092,0.051 4.4785,2.4843 0.092,0.051 0.094,0.049 2.8457,1.4844 7.6211,-14.6074 -2.7441,-1.4336 -4.2617,-2.3613 -4.293,-2.5274 -4.1016,-2.5586 -4.0253,-2.6582 -4.0313,-2.8144 -3.3418,-2.4668 z m 215.1738,4.418 -4.4316,2.1757 -4.4766,2.0567 -4.4375,1.8047 -4.6484,1.7519 -4.6992,1.6289 -1.7871,0.5664 4.9863,15.7051 1.8789,-0.5957 0.1035,-0.033 0.1016,-0.035 4.8886,-1.6954 0.1016,-0.035 0.1016,-0.039 4.8359,-1.8183 0.1016,-0.039 0.1015,-0.041 4.7813,-1.9453 0.1699,-0.068 0.168,-0.078 4.7129,-2.166 0.096,-0.045 0.096,-0.045 4.6269,-2.2734 0.096,-0.047 0.094,-0.049 4.5429,-2.3789 0.096,-0.051 0.094,-0.051 0.01,-0.01 -4.1738,-7.4864 -3.668,-7.0039 z m -170.5586,20.9902 0.9024,0.3672 0.1,0.041 0.1015,0.039 4.836,1.8183 0.1016,0.039 0.1035,0.035 4.8867,1.6954 0.1035,0.035 0.1016,0.033 4.9414,1.5684 0.1035,0.033 0.1035,0.029 4.9941,1.4433 0.1016,0.029 0.1035,0.027 5.0469,1.3183 0.1035,0.025 0.1035,0.025 5.0996,1.1914 0.1016,0.023 0.1035,0.021 0.7871,0.1641 3.3399,-16.1348 -0.6504,-0.1347 -4.9121,-1.1485 -4.8653,-1.2695 -4.791,-1.3848 -4.7344,-1.5039 -4.6777,-1.6211 -4.668,-1.7578 -0.7617,-0.3105 z m 128.6973,-6.2949 -0.043,0.01 -4.9062,1.0176 -0.041,0.01 -5.0996,0.9219 -4.9942,0.7754 -5.1348,0.666 -5.1992,0.5469 -3.7988,0.3086 1.332,16.4238 3.9297,-0.3184 0.098,-0.01 0.098,-0.012 5.3653,-0.5644 0.1,-0.01 0.1,-0.014 5.3105,-0.6894 0.1016,-0.014 0.1,-0.016 5.2578,-0.8164 0.1016,-0.016 0.1015,-0.018 5.2071,-0.9414 0.1015,-0.02 0.1016,-0.019 5.1523,-1.0684 0.1036,-0.021 0.1035,-0.023 2.3242,-0.543 -3.75,-16.0449 z m -78.9336,19.2441 3.916,0.5078 0.1,0.014 0.1,0.01 5.3633,0.5644 0.098,0.012 0.1,0.01 5.416,0.4395 0.098,0.01 0.098,0.01 5.4688,0.3125 0.096,0.01 0.096,0 5.5234,0.1875 0.094,0 0.094,0 5.5762,0.062 0.092,0 0.094,-0 1.5957,-0.018 -0.1855,-16.4766 -1.5078,0.018 -5.3692,-0.059 -5.3945,-0.1856 -5.2422,-0.3007 -5.1758,-0.4219 -5.2031,-0.5469 -3.8144,-0.4941 z"
           style="color:#000000;font-style:normal;font-variant:normal;font-weight:normal;font-stretch:normal;font-size:medium;line-height:125%;font-family:Ubuntu;text-indent:0;text-align:start;text-decoration:none;text-decoration-line:none;text-decoration-style:solid;text-decoration-color:#000000;letter-spacing:-60px;word-spacing:0px;text-transform:none;direction:ltr;block-progression:tb;writing-mode:lr-tb;baseline-shift:baseline;text-anchor:start;white-space:normal;clip-rule:nonzero;display:inline;overflow:visible;visibility:visible;opacity:1;isolation:auto;mix-blend-mode:normal;color-interpolation:sRGB;color-interpolation-filters:linearRGB;solid-color:#000000;solid-opacity:1;fill:#b8c8f0;fill-opacity:1;fill-rule:nonzero;stroke:none;stroke-width:16.47699928;stroke-linecap:butt;stroke-linejoin:miter;stroke-miterlimit:4;stroke-dasharray:32.95405428, 16.47702713000000000;stroke-dashoffset:0;stroke-opacity:1;color-rendering:auto;image-rendering:auto;shape-rendering:auto;text-rendering:auto;enable-background:accumulate" />
        <path
           inkscape:connector-curvature="0"
           id="path4186"
           d="m 6236.0488,-2694.8535 3.9922,0.1015 0,0 4.4785,0.1915 0.033,0 4.4571,0.2656 0.053,0 4.4356,0.3418 4.4492,0.4161 0.039,0 4.6036,0.5097 0.01,0 4.5117,0.5781 0.1231,0.016 0.123,0.012 0.9356,0.092 1.5976,-16.4004 -0.8047,-0.078 -4.5351,-0.5801 -0.068,-0.01 -0.068,-0.01 -4.6524,-0.5156 -0.068,-0.01 -0.068,-0.01 -4.6523,-0.4355 -0.068,-0.01 -0.07,-0 -4.6504,-0.3575 -0.07,-0.01 -0.068,-0 -4.6504,-0.2774 -0.07,-0 -0.07,-0 -4.6504,-0.1973 -0.07,-0 -0.07,-0 -3.9961,-0.1016 z m -19.08,-16.2207 -0.066,0 -0.064,0 -4.4356,0.2364 -0.066,0 -0.066,0 -4.3769,0.3047 -0.068,0.01 -0.066,0.01 -4.3164,0.373 -0.068,0.01 -0.07,0.01 -4.2539,0.4414 -0.07,0.01 -0.072,0.01 -4.1914,0.5078 -0.074,0.01 -0.072,0.012 -4.1309,0.5742 -0.076,0.012 -0.074,0.012 -4.0703,0.6426 -0.076,0.012 -0.076,0.014 -0.4864,0.086 2.877,16.2246 0.4179,-0.074 3.8379,-0.6074 0,0 3.9805,-0.5567 0.049,-0.01 4.0938,-0.4961 0.051,-0.01 3.9707,-0.4102 0.039,-0 4.2598,-0.3671 0.016,-0 4.1953,-0.291 0.045,-0 4.1738,-0.2227 0.062,-0 2.4453,-0.092 -0.6211,-16.4649 z m 67.3535,20.6445 0.6406,0.09 0.031,0 4.0547,0.623 0.057,0.01 0.064,0.01 4.086,0.6934 0.01,0 3.9687,0.7363 0.039,0.01 3.9277,0.793 0.1231,0.025 0.125,0.021 7.6132,1.293 0.039,0.01 3.5352,0.6699 0.025,0.01 3.4082,0.6953 0.039,0.01 0.012,0 0.068,0.014 0.9355,-4.5742 2.5372,-11.5313 -0.051,-0.012 -0.061,-0.014 -0.06,-0.012 -3.5547,-0.7265 -0.055,-0.012 -0.057,-0.012 -3.6875,-0.6992 -0.078,-0.016 -0.078,-0.014 -7.6543,-1.3008 -3.9199,-0.7929 -0.065,-0.012 -0.066,-0.012 -4.1347,-0.7676 -0.062,-0.012 -0.062,-0.01 -4.2149,-0.7149 -0.062,-0.01 -0.06,-0.01 -4.2949,-0.6602 -0.059,-0.01 -0.059,-0.01 -0.6739,-0.094 z m -118.3321,-13.0703 -0.084,0.021 -0.084,0.023 -3.7032,1.0489 -0.084,0.025 -0.086,0.025 -3.6426,1.1172 -0.086,0.027 -0.086,0.027 -3.5801,1.1856 -0.088,0.029 -0.088,0.029 -3.5195,1.254 -0.088,0.031 -0.088,0.033 -3.459,1.3203 -0.09,0.033 -0.088,0.037 -3.3985,1.3887 -0.09,0.035 -0.088,0.039 -3.3379,1.4571 -0.09,0.039 -0.09,0.041 -3.2754,1.5235 -0.092,0.043 -0.09,0.045 -0.207,0.1015 7.3086,14.7676 0.029,-0.016 0.037,-0.018 3.1797,-1.4785 3.1562,-1.377 3.1855,-1.3008 3.2559,-1.2441 3.3438,-1.1894 3.4453,-1.1407 3.4375,-1.0547 3.5742,-1.0117 2.7383,-0.7148 -4.1582,-15.9453 z m 165.6953,22.6875 2.7872,0.7656 0.053,0.014 4.918,1.4394 0.029,0.01 1.125,0.3574 -1.7715,8.336 16.1172,3.4238 3.2968,-15.5195 1.5039,-7.0782 -6.8261,-2.4043 -3.752,-1.3222 -0.1211,-0.041 -0.1211,-0.039 -4.4922,-1.4277 -0.088,-0.027 -0.09,-0.027 -5.2324,-1.5313 -0.068,-0.02 -0.068,-0.019 -2.8399,-0.7793 z m -211.373,-2.7715 -0.09,0.057 -0.088,0.059 -2.9082,1.9297 -0.09,0.059 -0.088,0.062 -2.8476,1.9981 -0.088,0.061 -0.086,0.064 -2.7871,2.0644 -0.086,0.064 -0.086,0.066 -2.7266,2.1328 -0.045,0.037 -0.047,0.037 -2.6523,2.1367 -0.086,0.07 -0.084,0.07 -2.5683,2.1875 -0.086,0.072 -0.084,0.074 -2.4844,2.2343 -0.086,0.076 -0.082,0.078 -2.4004,2.2813 -0.084,0.082 -0.082,0.082 -2.3164,2.3282 -0.084,0.084 -0.08,0.086 -0.9082,0.9668 12.0137,11.2773 0.8223,-0.8769 2.1582,-2.17 2.2109,-2.1015 2.3379,-2.1016 2.4414,-2.0761 2.4297,-1.959 0.072,-0.057 0.02,-0.016 2.5488,-1.9941 2.6543,-1.9649 2.6856,-1.8828 0.035,-0.023 2.6602,-1.7618 0.75,-0.4707 -8.752,-13.9609 z m 208.2383,62.043 16.1172,3.4258 6.8496,-32.2344 -16.1172,-3.4238 z m -246.459,-25.4746 -0.07,0.1035 -0.068,0.1055 -1.7265,2.664 -0.068,0.1055 -0.064,0.1074 -1.6426,2.7129 -0.066,0.1074 -0.061,0.1094 -1.5586,2.7617 -0.062,0.1094 -0.059,0.1113 -1.4746,2.8086 -0.057,0.1113 -0.057,0.1133 -1.3886,2.8555 -0.055,0.1133 -0.051,0.1133 -1.3066,2.9043 -0.051,0.1132 -0.047,0.1153 -1.2227,2.9531 -0.047,0.1133 -0.043,0.1152 -1.1367,3 -0.045,0.1152 -0.039,0.1153 -1.0527,3.0469 -0.039,0.1152 -0.037,0.1152 -0.8301,2.6524 15.7266,4.9199 0.7969,-2.5469 0.9746,-2.8242 1.0273,-2.7109 1.1348,-2.7422 1.207,-2.6875 1.293,-2.6602 1.3613,-2.5918 1.4082,-2.4961 1.5195,-2.5078 1.6075,-2.4805 0.7714,-1.1152 -13.5488,-9.3769 z m 144.668,1.6386 -0.1094,0 -0.1094,0 -4.0234,0.1582 -0.1114,0.01 -0.1132,0.01 -3.9571,0.2637 -0.1152,0.01 -0.1152,0.01 -3.8907,0.3711 -0.1191,0.012 -0.1172,0.014 -3.8262,0.4766 -0.1211,0.014 -0.121,0.019 -3.7579,0.582 -0.125,0.018 -0.123,0.023 -3.6934,0.6875 -0.1269,0.023 -0.125,0.027 -3.627,0.793 -0.1289,0.027 -0.1269,0.033 -3.5606,0.8985 -0.1308,0.033 -0.1289,0.037 -1.75,0.5019 4.5507,15.836 1.6114,-0.4629 3.3144,-0.836 3.375,-0.7382 3.4141,-0.6348 3.5625,-0.5508 3.5762,-0.4453 3.6777,-0.3477 3.6992,-0.2461 3.7891,-0.1503 0.33,-0 -0.2128,-16.4766 z m 16.7461,16.6524 0.9472,0.031 0.01,0 4.3301,0.2012 0.021,0 4.3477,0.2656 4.1503,0.3184 0.01,0 4.0235,0.371 0.047,0 3.9785,0.4335 3.836,0.4825 0.053,0.01 3.7676,0.543 0.031,0 2.1836,0.3535 2.6348,-16.2637 -2.332,-0.3789 -0.074,-0.012 -0.074,-0.01 -3.9414,-0.5665 -0.07,-0.01 -0.072,-0.01 -4.0273,-0.5059 -0.068,-0.01 -0.068,-0.01 -4.1133,-0.4473 -0.066,-0.01 -0.066,-0.01 -4.1973,-0.3867 -0.064,-0.01 -0.065,-0.01 -4.2832,-0.3262 -0.062,-0.01 -0.062,-0 -4.3691,-0.2676 -0.059,-0 -0.061,-0 -4.455,-0.207 -0.059,-0 -0.057,-0 -1.0644,-0.035 z m 47.039,6.1894 3.3789,0.9102 0.039,0.01 0.039,0.01 6.3984,1.6543 0.012,0 6.002,1.6661 5.4863,1.6445 5,1.6289 4.5976,1.6406 5.5332,-15.5215 -4.7343,-1.6875 -0.1074,-0.039 -0.1094,-0.035 -5.1914,-1.6914 -0.092,-0.029 -0.094,-0.027 -5.6426,-1.6914 -0.08,-0.025 -0.08,-0.021 -6.0918,-1.6914 -0.07,-0.02 -0.07,-0.018 -6.4629,-1.6719 -3.3789,-0.9082 z m -117.582,-10.1796 -0.1309,0.062 -0.1289,0.068 -3.0996,1.6387 -0.07,0.037 -0.07,0.039 -2.9688,1.6445 -0.1601,0.09 -0.1563,0.096 -1.414,0.8672 -0.1075,0.066 -0.1074,0.07 -1.3633,0.8965 -0.1093,0.072 -0.1074,0.074 -1.3184,0.9277 -0.1094,0.076 -0.1074,0.082 -1.2695,0.955 -0.1094,0.084 -0.1074,0.086 -1.2207,0.9863 -0.1114,0.088 -0.1054,0.094 -1.1739,1.0156 -0.1093,0.094 -0.1055,0.1 -1.127,1.0449 -0.1074,0.1 -0.1035,0.1036 -1.0781,1.0761 -0.1055,0.1055 -0.1016,0.1094 -1.0312,1.1054 -0.1035,0.1114 -0.098,0.1132 -0.9824,1.1348 -0.1016,0.1172 -0.096,0.1191 -0.9336,1.1641 -0.098,0.1211 -0.092,0.125 -0.8867,1.1934 -0.092,0.1269 -0.09,0.127 -0.8379,1.2246 -0.088,0.1289 -0.084,0.1328 -0.7891,1.2539 -0.084,0.1328 -0.078,0.1348 -0.6582,1.1367 14.2637,8.25 0.582,-1.0078 0.6172,-0.9785 0.6543,-0.9551 0.7051,-0.9512 0.75,-0.9336 0.7949,-0.9179 0.8008,-0.8594 0.8476,-0.8477 0.957,-0.8887 0.9317,-0.8066 0.9941,-0.8027 1.0879,-0.8184 1.0586,-0.7441 1.2109,-0.7969 1.0938,-0.6699 2.75,-1.5254 2.873,-1.5195 2.7032,-1.3086 -7.1836,-14.8301 z m -109.2813,34.0527 -0.017,0.1094 -0.016,0.1074 -0.4629,3.3848 -0.016,0.1054 -0.012,0.1074 -0.3789,3.4297 -0.012,0.1055 -0.01,0.1035 -0.295,3.4805 -0.01,0.1015 -0.01,0.1016 -0.209,3.5274 -0.01,0.1 -0,0.1015 -0.127,3.5742 -0,0.098 0,0.098 -0.043,3.623 0,0.092 0,0.092 0.039,3.6641 0,0.092 0,0.092 0.1192,3.5898 0,0.096 0.01,0.096 0.1973,3.5176 0.01,0.098 0.01,0.1 0.039,0.4922 16.4238,-1.3222 -0.029,-0.3809 -0.1894,-3.3672 -0.1133,-3.3789 -0.035,-3.4687 0.037,-3.4082 0.1211,-3.4121 0.2011,-3.3497 0.2715,-3.205 0.3633,-3.293 0.4219,-3.0859 0.084,-0.5176 -16.2579,-2.668 z m 77.4688,7.7559 -0.016,0.1289 -0.014,0.1269 -0.168,1.6406 -0.012,0.1231 -0.01,0.125 -0.1191,1.6699 -0.014,0.1797 -0,0.1797 -0.096,3.4277 -0.01,0.207 0,0.2071 0.08,3.541 0,0.1934 0.014,0.1914 0.2363,3.4355 0.016,0.2031 0.023,0.2012 0.3965,3.3301 0.025,0.2129 0.035,0.2109 0.5567,3.2246 0.037,0.2207 0.051,0.2188 0.7129,3.1172 0.053,0.2285 0.065,0.2246 0.871,3.0137 0.068,0.2324 0.082,0.2285 1.0293,2.9082 0.084,0.2344 0.098,0.2304 0.9902,2.334 15.168,-6.4375 -0.8887,-2.0937 -0.873,-2.459 -0.7364,-2.5488 -0.6133,-2.6739 -0.4765,-2.7715 -0.3516,-2.9472 -0.207,-3.0235 -0.07,-3.1191 0.086,-3.0977 0.096,-1.3203 0.1465,-1.4375 0.062,-0.4668 -16.3301,-2.1875 z m -76.2988,43.9374 0.6054,2.7715 0.025,0.1192 0.031,0.1211 0.7519,3.0078 0.031,0.125 0.035,0.123 0.8321,2.9356 0.037,0.1269 0.039,0.125 0.9121,2.8633 0.041,0.1309 0.045,0.1269 0.9922,2.791 0.047,0.1328 0.051,0.129 1.0703,2.7187 0.053,0.1328 0.057,0.1328 1.1484,2.6446 0.059,0.1347 0.065,0.1328 1.2285,2.5723 0.053,0.1133 0.057,0.1094 1.2949,2.5136 0.047,0.09 0.047,0.088 1.3476,2.4668 0.049,0.088 0.051,0.088 1.4004,2.4219 0.051,0.088 0.053,0.086 0.4727,0.7715 14.0527,-8.6015 -0.4355,-0.7129 -1.2676,-2.1914 -1.2559,-2.2989 -1.1894,-2.3105 -1.1133,-2.3262 -1.0488,-2.414 -0.9629,-2.4493 -0.8828,-2.4785 -0.8418,-2.6465 -0.7735,-2.7304 -0.6836,-2.7364 -0.58,-2.6445 z m 101.1914,-0.1992 -8.9688,7.836 0.1094,0.125 0.123,0.1406 0.1289,0.1367 2.3516,2.457 0.125,0.1289 0.1289,0.1231 2.5098,2.4062 0.123,0.1172 0.1289,0.1133 2.67,2.3516 0.3632,0.3203 0.3985,0.2754 3.039,2.1015 0.1,0.068 0.1016,0.066 3.1973,2.0742 0.094,0.062 0.098,0.059 3.3555,2.0469 0.092,0.057 0.092,0.053 3.5157,2.0215 0.086,0.051 0.09,0.047 3.6718,1.9961 0.084,0.045 0.084,0.043 2.3848,1.2266 7.5312,-14.6563 -2.3379,-1.2012 -0.049,-0.025 -3.3965,-1.8476 -3.3711,-1.9395 -3.168,-1.9316 -2.9394,-1.9063 -2.5879,-1.7871 -2.1602,-1.9062 -2.2929,-2.1953 -2.0645,-2.1563 -0.1426,-0.1504 z m 35.7382,35.7481 3.5293,1.5078 0.043,0.018 0.043,0.017 4.7558,1.9688 0.041,0.018 0.039,0.016 4.9688,1.9941 0.037,0.016 0.037,0.016 5.1797,2.0215 0.035,0.012 0.035,0.014 5.3906,2.0488 0.047,0.018 0.049,0.017 6.8457,2.504 5.6602,-15.4747 -6.75,-2.4687 -0.012,-0 -0.084,-0.031 -5.2949,-2.0117 -5.0352,-1.9648 -0.029,-0.012 -0.045,-0.018 -4.8125,-1.9336 -0.021,-0.01 -0.061,-0.025 -4.5878,-1.8985 -0.055,-0.023 -0.033,-0.014 -3.4414,-1.4707 z m -113.5605,11.8867 1.252,1.4824 0.068,0.08 0.068,0.078 1.8242,2.0528 0.07,0.078 0.072,0.076 1.875,2.0058 0.072,0.076 0.074,0.076 1.9296,1.957 0.072,0.076 0.076,0.072 1.9824,1.9121 0.074,0.072 0.076,0.07 2.0352,1.8672 0.076,0.07 0.078,0.068 2.0879,1.8203 0.096,0.082 0.096,0.08 4.3204,3.541 0.1132,0.092 0.1153,0.086 4.5039,3.4356 0.1133,0.086 0.1132,0.082 2.6407,1.873 9.5371,-13.4355 -2.5742,-1.8301 -4.2383,-3.2324 -4.1074,-3.3672 -1.8848,-1.6426 -1.9297,-1.7695 -1.8359,-1.7735 -1.7832,-1.8125 -1.7364,-1.8574 -0.037,-0.039 -1.6172,-1.8222 -1.1777,-1.3965 z m 159.8438,6.1035 4.3144,1.7012 0.076,0.031 7.2168,2.9297 6.9199,2.8906 0.01,0 0.078,0.033 6.7871,2.9258 4.6719,2.0762 6.6933,-15.0567 -4.7597,-2.1152 -0.043,-0.019 -0.045,-0.018 -6.8692,-2.961 -0.041,-0.018 -0.041,-0.018 -7.082,-2.959 -0.039,-0.016 -0.041,-0.016 -7.293,-2.9609 -0.037,-0.016 -0.037,-0.014 -4.3906,-1.7324 z m 44.9335,19.4824 2.5469,1.1661 2.8496,1.3613 2.8809,1.4394 0.037,0.018 2.5996,1.3555 0.051,0.027 2.6152,1.4219 0.045,0.025 2.668,1.5156 0.025,0.016 2.4121,1.4297 0.051,0.031 2.4316,1.5039 0.049,0.031 2.375,1.5332 0.053,0.035 2.3105,1.5586 0.049,0.033 1.291,0.9121 9.4941,-13.4668 -1.3398,-0.9453 -0.068,-0.049 -0.07,-0.047 -2.5,-1.6875 -0.068,-0.047 -0.068,-0.043 -2.5606,-1.6562 -0.066,-0.043 -0.068,-0.043 -2.6192,-1.6211 -0.068,-0.041 -0.066,-0.041 -2.6797,-1.5879 -0.066,-0.039 -0.066,-0.039 -2.7383,-1.5547 -0.065,-0.037 -0.066,-0.035 -2.7968,-1.5235 -0.065,-0.035 -0.066,-0.033 -2.8574,-1.4903 -0.062,-0.033 -0.065,-0.033 -2.916,-1.4551 -0.062,-0.031 -0.064,-0.031 -2.9747,-1.4238 -0.062,-0.029 -0.063,-0.027 -2.6699,-1.2246 z m -164.2636,7.0703 3.3594,1.9297 0.1074,0.061 0.1074,0.059 5.4316,2.9062 0.1036,0.057 0.1054,0.053 5.6153,2.8008 0.2265,0.1113 0.2305,0.1 11.9433,5.0723 0.024,0.01 0.025,0.012 3.3847,1.4121 6.3477,-15.2051 -3.3379,-1.3926 -0.049,-0.021 -11.666,-4.955 -5.2383,-2.6133 -5.2598,-2.8145 -3.2539,-1.8691 z m 45.9336,20.9082 5.914,2.4278 0.021,0.01 0.024,0.01 12.5468,5.0625 0.031,0.012 6.4062,2.6133 5.5157,2.3047 6.3515,-15.2032 -5.5781,-2.332 -0.033,-0.014 -0.031,-0.012 -6.4375,-2.627 -0.016,-0.01 -0.016,-0.01 -12.5313,-5.0547 -0.047,-0.02 -5.8672,-2.4082 z m 157.834,-2.8437 1.6171,1.4258 1.9844,1.8555 1.8828,1.8652 1.8184,1.9082 1.7851,1.9883 1.6641,1.9687 1.6387,2.0528 1.5781,2.1035 1.5176,2.1523 1.4687,2.2188 1.4024,2.2578 0.8496,1.4609 14.2441,-8.2832 -0.914,-1.5703 -0.061,-0.1035 -0.062,-0.1 -1.5254,-2.459 -0.064,-0.1016 -0.065,-0.1 -1.5937,-2.4043 -0.066,-0.1015 -0.068,-0.098 -1.6582,-2.3516 -0.07,-0.1 -0.072,-0.098 -1.7246,-2.2989 -0.072,-0.096 -0.076,-0.096 -1.791,-2.2461 -0.074,-0.094 -0.078,-0.094 -1.8574,-2.1933 -0.078,-0.092 -0.08,-0.09 -1.9238,-2.1406 -0.08,-0.09 -0.082,-0.088 -1.9903,-2.0879 -0.082,-0.086 -0.086,-0.084 -2.0546,-2.0352 -0.084,-0.084 -0.088,-0.082 -2.1192,-1.9824 -0.088,-0.08 -0.088,-0.078 -1.7325,-1.5293 z m -112.4961,21.7793 2.6777,1.2109 5.1914,2.418 5.0508,2.4277 4.7207,2.3477 4.4824,2.3086 0,0 4.2363,2.2656 0.01,0 2.5098,1.3985 8.0117,-14.3985 -2.6328,-1.4648 -0.061,-0.035 -0.062,-0.033 -4.3554,-2.3281 -0.057,-0.029 -0.057,-0.029 -4.5879,-2.3613 -0.053,-0.027 -0.051,-0.025 -4.8203,-2.3945 -0.049,-0.025 -0.047,-0.023 -5.0508,-2.4278 -0.045,-0.021 -0.045,-0.021 -5.2812,-2.459 -0.043,-0.02 -0.041,-0.02 -2.7617,-1.248 z m 42.3281,22.5898 1.582,1.0704 2.6758,1.9199 2.4746,1.9355 2.2539,1.961 2.0703,2.0195 1.8906,2.0683 1.7442,2.1504 1.6269,2.2793 0.6797,1.0528 0.6778,1.1211 0.6738,1.2031 0.623,1.1992 0.3067,0.6406 14.8515,-7.1347 -0.373,-0.7793 -0.057,-0.1172 -0.059,-0.1153 -0.7364,-1.414 -0.061,-0.1152 -0.062,-0.1133 -0.7813,-1.3926 -0.062,-0.1133 -0.066,-0.1094 -0.8261,-1.3691 -0.066,-0.1113 -0.07,-0.1075 -0.8691,-1.3457 -0.1035,-0.1621 -0.1113,-0.1562 -1.8731,-2.6231 -0.1465,-0.205 -0.1582,-0.1954 -2.0508,-2.5292 -0.1562,-0.1915 -0.1641,-0.1816 -2.2304,-2.4375 -0.1602,-0.1758 -0.1699,-0.166 -2.4082,-2.3437 -0.1641,-0.1602 -0.1738,-0.1504 -2.5859,-2.2539 -0.1661,-0.1445 -0.1718,-0.1348 -2.7657,-2.1601 -0.1328,-0.1036 -0.1367,-0.098 -2.9687,-2.1309 -0.094,-0.066 -0.096,-0.064 -1.625,-1.0997 z m 95.9023,-7.4648 0.7578,1.9883 0.9082,2.625 0.8145,2.6211 0.7773,2.791 0.7012,2.8242 0.6406,2.9316 0.584,3.0567 0.5196,3.1621 0.4335,3.125 0.3809,3.293 0.1328,1.455 16.4082,-1.5097 -0.1406,-1.5332 -0.01,-0.094 -0.01,-0.092 -0.4004,-3.4765 -0.012,-0.096 -0.014,-0.098 -0.4707,-3.3945 -0.016,-0.1016 -0.016,-0.1 -0.5449,-3.3164 -0.018,-0.1035 -0.02,-0.1055 -0.6172,-3.2363 -0.022,-0.1074 -0.023,-0.1075 -0.6895,-3.1582 -0.025,-0.1113 -0.027,-0.1113 -0.7617,-3.0781 -0.029,-0.1153 -0.031,-0.1133 -0.8359,-3 -0.033,-0.1191 -0.037,-0.1172 -0.9082,-2.9199 -0.037,-0.1211 -0.041,-0.1211 -0.9825,-2.8398 -0.043,-0.125 -0.047,-0.1231 -0.8027,-2.1035 z m -72.6894,41.332 0.2734,2.0586 0.2344,3.0235 0.078,3.1367 -0.082,2.9765 -0.2422,2.8672 -0.1699,1.3223 -0.2051,1.2812 -0.2578,1.3282 -0.2871,1.2558 -0.3145,1.1934 -0.3594,1.1933 -0.4003,1.1797 -0.4122,1.0899 -0.4804,1.1387 -0.4805,1.0351 -0.6074,1.1875 7.2851,3.7188 7.2442,4.0468 0,-0 0.076,-0.1328 0.068,-0.1368 0.6719,-1.3144 0.068,-0.1348 0.065,-0.1386 0.623,-1.3418 0.065,-0.1368 0.059,-0.1386 0.5781,-1.3731 0.059,-0.1367 0.053,-0.1387 0.5313,-1.4023 0.051,-0.1367 0.049,-0.1387 0.4844,-1.4336 0.047,-0.1348 0.041,-0.1386 0.4394,-1.461 0.041,-0.1367 0.035,-0.1348 0.3926,-1.4921 0.035,-0.1329 0.031,-0.1347 0.3476,-1.5215 0.029,-0.1309 0.025,-0.1328 0.3008,-1.5508 0.025,-0.1289 0.021,-0.1308 0.2539,-1.5801 0.02,-0.127 0.018,-0.125 0.207,-1.6113 0.024,-0.1836 0.016,-0.1836 0.2773,-3.3105 0.02,-0.2324 0.01,-0.2325 0.094,-3.4296 0.01,-0.2149 -0.01,-0.2129 -0.09,-3.5488 -0,-0.2149 -0.018,-0.2128 -0.2675,-3.4551 -0.018,-0.2246 -0.029,-0.2227 -0.3027,-2.2793 z m 80.0683,4.3184 0,0.4648 -0.041,3.5821 -0.1269,3.5449 -0.2032,3.3496 -0,0.033 -0.2988,3.4551 -0.3828,3.3769 -0.4551,3.2207 -0.5449,3.2246 -0.6094,3.0782 -0.7149,3.1269 -0.016,0.059 0,0 -0.012,0.051 1.6895,0.3867 14.2656,3.7109 0.049,-0.1874 0.031,-0.1172 0.027,-0.1192 0.7579,-3.3144 0.027,-0.1172 0.023,-0.1172 0.668,-3.3711 0.023,-0.1152 0.02,-0.1153 0.5801,-3.4297 0.017,-0.1113 0.016,-0.1133 0.4921,-3.4882 0.014,-0.1094 0.014,-0.1113 0.4004,-3.545 0.014,-0.1074 0.01,-0.1074 0.3125,-3.6035 0.01,-0.1035 0.01,-0.1055 0.2226,-3.6602 0.01,-0.1035 0,-0.1016 0.1348,-3.7187 0,-0.1 0,-0.1 0.045,-3.7754 0,-0.088 -0,-0.088 -0.01,-0.5762 z m -295.7695,30.0723 -1.2148,5.7148 7.2382,1.5391 -0.8046,2.1914 7.7675,2.8535 0.037,0.014 0.037,0.012 9.7754,3.4883 0.025,0.01 0.023,0.01 7.9804,2.791 5.4395,-15.5527 -7.9316,-2.7734 -0.049,-0.018 -9.6562,-3.4453 -0.072,-0.025 -7.6953,-2.8281 -8.9238,-3.2774 z m 202.6855,3.5 -1.0351,0.7539 -1.0938,0.7441 -1.1328,0.7187 -2.5117,1.4415 -2.6152,1.3613 -2.7578,1.2578 -3.0313,1.2109 -3.2265,1.127 -3.4336,1.0449 -3.6778,0.9688 -1.0683,0.2421 3.6504,16.0684 1.2343,-0.2812 0.1387,-0.031 0.1387,-0.037 3.9433,-1.0391 0.1485,-0.039 0.1484,-0.045 3.7442,-1.1406 0.1601,-0.049 0.1582,-0.055 3.5469,-1.2383 0.1719,-0.061 0.1679,-0.066 3.3496,-1.3379 0.1836,-0.074 0.1797,-0.08 3.1504,-1.4375 0.1953,-0.088 0.1895,-0.1 2.9511,-1.5352 0.1524,-0.078 0.1465,-0.086 2.8672,-1.6446 0.1621,-0.094 0.1582,-0.1 1.3633,-0.8672 0.1093,-0.068 0.1055,-0.072 1.3184,-0.8965 0.1093,-0.076 0.1075,-0.078 1.2714,-0.9258 0.1094,-0.08 0.1074,-0.084 1.1426,-0.8906 -10.1367,-12.9902 z m -156.2148,20.5214 2.0274,0.6993 0.068,0.023 0.068,0.022 3.7754,1.2285 0.1171,0.039 0.1172,0.035 3.9278,1.1484 0.1113,0.033 0.1133,0.029 4.0781,1.0703 0.1055,0.027 0.1074,0.025 4.2305,0.9902 0.1,0.024 0.1015,0.021 4.3828,0.9121 0.096,0.019 0.096,0.018 4.5351,0.832 0.09,0.016 0.09,0.016 4.6875,0.7519 0.084,0.014 0.086,0.014 0.3457,0.047 2.2715,-16.3183 -0.2402,-0.033 -4.5293,-0.7286 -4.3535,-0.7988 -4.1289,-0.8574 -4.0782,-0.9551 -3.8691,-1.0156 -3.668,-1.0742 -3.6816,-1.1973 -1.8926,-0.6523 z m 240.0078,-6.4336 -1.2539,2.6426 -1.3555,2.6289 -1.4218,2.545 -1.5293,2.5332 -1.5821,2.4355 -1.6562,2.373 -1.7598,2.3516 -1.8476,2.3067 -1.9082,2.2285 -0.5977,0.6523 12.1582,11.1211 0.6817,-0.7461 0.092,-0.098 0.086,-0.1016 2.0957,-2.4473 0.088,-0.1035 0.086,-0.1055 2.0059,-2.5039 0.086,-0.1054 0.08,-0.1094 1.918,-2.5625 0.082,-0.1094 0.078,-0.1133 1.8281,-2.6191 0.078,-0.1133 0.076,-0.1152 1.7383,-2.6778 0.074,-0.1152 0.072,-0.1172 1.6484,-2.7344 0.07,-0.1171 0.068,-0.1192 1.5606,-2.7949 0.066,-0.1191 0.062,-0.1211 1.4707,-2.8496 0.062,-0.1211 0.059,-0.1231 1.3808,-2.9082 0.059,-0.1211 0.053,-0.123 1.2382,-2.8418 -15.1035,-6.584 z m -125.0781,-0.4687 -4.7129,0.5195 -4.9687,0.4317 -5.1348,0.334 -5.3789,0.2421 -5.5254,0.1446 -5.8711,0.051 -0.055,0 -5.9101,-0.041 -0.022,0 -5.7754,-0.1172 -0.016,0 -5.6114,-0.1953 -0.021,0 -5.4257,-0.2695 -0.049,-0 -5.1777,-0.3398 -0.039,-0 -3.5175,-0.2891 -1.3516,16.4219 3.5566,0.293 0.068,0.01 0.068,0 5.4472,0.3575 0.065,0 0.066,0 5.5976,0.2773 0.062,0 0.062,0 5.75,0.1973 0.059,0 0.059,0 5.9024,0.1191 0.057,0 0.057,0 6.0547,0.041 0.053,-8.2383 0.07,8.2383 5.9258,-0.051 0.072,0 0.072,-0 5.7266,-0.1485 0.078,-0 0.078,-0 5.5293,-0.2481 0.082,-0 0.084,-0.01 5.3301,-0.3457 0.09,-0.01 0.088,-0.01 5.1328,-0.4453 0.096,-0.01 0.096,-0.01 4.9355,-0.545 0.1035,-0.012 0.1016,-0.014 0.3027,-0.041 -2.2207,-16.3262 z m -172.8887,36.9473 16.1172,3.4257 6.8496,-32.2343 -16.1172,-3.4258 z m 270.3379,-2.0235 -2.5156,1.8887 -2.6953,1.9043 -0.041,0.029 -2.6426,1.7891 -2.7031,1.7265 -2.8067,1.6934 -2.9297,1.6621 -0.045,0.025 -2.8828,1.539 -3.0449,1.5332 -2.3711,1.1192 7.0449,14.8945 2.4824,-1.1738 0.092,-0.043 0.09,-0.045 3.2187,-1.6192 0.092,-0.047 0.09,-0.049 3.1425,-1.6796 0.092,-0.049 0.092,-0.053 3.0664,-1.7402 0.094,-0.053 0.092,-0.057 2.9902,-1.8027 0.094,-0.055 0.092,-0.059 2.914,-1.8653 0.094,-0.059 0.092,-0.062 2.8398,-1.9257 0.064,-0.043 0.064,-0.047 2.8106,-1.9844 0.098,-0.068 0.096,-0.072 2.7188,-2.041 0.098,-0.074 0.096,-0.076 1.791,-1.4297 -10.2792,-12.8769 z m -265.8574,25.9258 0.8848,0.3574 0.1152,0.047 0.1152,0.043 3.9492,1.4668 0.084,0.031 0.086,0.029 4.6113,1.5977 0.062,0.023 0.066,0.021 5.2715,1.7305 0.051,0.016 0.051,0.018 5.9317,1.8613 0.041,0.014 0.041,0.012 6.5938,1.9961 0.033,0.01 0.033,0.01 4.0781,1.1973 4.6367,-15.8125 -4.0097,-1.1758 -0.068,-0.019 -6.4414,-1.9493 -0.084,-0.025 -5.8379,-1.8339 -0.012,-0 -5.1699,-1.6993 -4.3789,-1.5195 -3.7989,-1.4101 -0.7422,-0.3008 z m 223.7832,-4.1621 -0.055,0.018 -3.6543,1.1601 -0.043,0.014 -3.5937,1.0605 -3.6641,1.0059 -0.037,0.01 -3.791,0.9609 -0.051,0.012 -4.0039,0.9356 -3.9121,0.8379 -3.998,0.7851 -0.8516,0.1524 2.8945,16.2207 0.8516,-0.1524 0.068,-0.012 0.07,-0.014 4.205,-0.8242 0.072,-0.014 0.07,-0.016 4.1309,-0.8867 0.074,-0.016 0.072,-0.018 4.0546,-0.9473 0.074,-0.016 0.076,-0.02 3.9786,-1.0078 0.076,-0.02 0.076,-0.021 3.9023,-1.0703 0.078,-0.021 0.078,-0.024 3.8281,-1.1289 0.08,-0.023 0.08,-0.025 3.75,-1.1934 0.082,-0.025 0.082,-0.027 3.1602,-1.0781 -5.3164,-15.5957 z m -175.6035,19.2656 3.8945,1.0117 0.1074,0.027 0.1075,0.025 4.6171,1.0703 0.1,0.023 0.1,0.022 4.8164,0.9902 0.094,0.02 0.094,0.016 5.0136,0.9121 0.086,0.016 0.088,0.014 5.2129,0.834 0.082,0.012 0.08,0.012 5.4121,0.7539 0.076,0.01 0.076,0.01 3.4102,0.4101 1.9648,-16.3594 -3.2558,-0.3906 -0.051,-0.01 -5.3223,-0.7402 -0.039,-0.01 -4.9277,-0.7871 -4.9121,-0.8945 -0.047,-0.01 -4.58,-0.9454 -4.3731,-1.0136 -3.7773,-0.9824 z m 131.7363,-9.8535 -0.043,0 -4.5449,0.5156 -4.541,0.4453 -4.6191,0.3868 -4.5899,0.3203 -4.7812,0.2695 -0.016,0 -4.8457,0.2109 -0.051,0 -0.055,0 -3.6465,0.1093 0.498,16.4688 3.752,-0.1133 0.053,-0 0.053,-0 4.9668,-0.2129 0.053,-0 0.055,-0 4.8906,-0.2754 0.055,-0 0.057,-0 4.8145,-0.3359 0.057,-0 0.057,-0 4.7382,-0.3985 0.059,-0 0.061,-0.01 4.6621,-0.459 0.06,-0.01 0.061,-0.01 4.5859,-0.5196 0.062,-0.01 0.062,-0.01 0.4453,-0.057 -2.1015,-16.3438 z m -81.4609,17.6211 3.8105,0.2676 0.059,0 0.061,0 6.4003,0.3574 0.057,0 0.057,0 6.5977,0.2774 0.055,0 0.053,0 6.7969,0.1992 0.051,0 0.049,0 6.9961,0.1192 0.049,0 0.047,0 2.3203,0.014 0.09,-16.4765 -2.3203,-0.014 -6.8007,-0.1152 -0.021,0 -0.078,-0 -6.5918,-0.1914 -0.064,-0 -0.041,-0 -6.3828,-0.2695 -6.3594,-0.3535 -0.041,-0 -3.6914,-0.2617 z"
           style="color:#000000;font-style:normal;font-variant:normal;font-weight:normal;font-stretch:normal;font-size:medium;line-height:125%;font-family:Ubuntu;text-indent:0;text-align:start;text-decoration:none;text-decoration-line:none;text-decoration-style:solid;text-decoration-color:#000000;letter-spacing:-60px;word-spacing:0px;text-transform:none;direction:ltr;block-progression:tb;writing-mode:lr-tb;baseline-shift:baseline;text-anchor:start;white-space:normal;clip-rule:nonzero;display:inline;overflow:visible;visibility:visible;opacity:1;isolation:auto;mix-blend-mode:normal;color-interpolation:sRGB;color-interpolation-filters:linearRGB;solid-color:#000000;solid-opacity:1;fill:#b8c8f0;fill-opacity:1;fill-rule:nonzero;stroke:none;stroke-width:16.47699928;stroke-linecap:butt;stroke-linejoin:miter;stroke-miterlimit:4;stroke-dasharray:32.95405428, 16.47702713000000000;stroke-dashoffset:0;stroke-opacity:1;color-rendering:auto;image-rendering:auto;shape-rendering:auto;text-rendering:auto;enable-background:accumulate" />
        <path
           inkscape:connector-curvature="0"
           id="path4188"
           d="m 6439.3672,-2828.377 2.793,16.2383 32.4785,-5.5879 -2.7949,-16.2382 z m 39.8613,35.0821 16.4766,0 0,-32.9551 -16.4766,0 z m -71.7988,-29.5879 -6.8418,1.1777 0,6.9414 0,17.0254 16.4785,0 0,-10.082 8.8555,-1.5235 -2.793,-16.2402 z m -6.8418,74.5762 16.4785,0 0,-32.9551 -16.4785,0 z m 78.6406,4.4414 16.4766,0 0,-32.9532 -16.4766,0 z m -78.6406,44.9902 16.4785,0 0,-32.9551 -16.4785,0 z m 78.6406,4.4414 8.2383,0 0,10.5176 32.9531,0 0,-16.4766 -24.7148,0 0,-26.9941 -16.4766,0 z m 57.668,10.5176 32.9551,0 0,-16.4766 -32.9551,0 z m 49.4316,0 32.9551,0 0,-16.4766 -32.9551,0 z m 49.4317,0 10.0468,0 0,6.4297 16.4766,0 0,-14.668 0,-8.2383 -8.2383,0 -18.2851,0 z m -235.1719,34.4707 16.4785,0 0,-32.9531 -16.4785,0 z m 245.2187,21.3906 16.4766,0 0,-32.9551 -16.4766,0 z m -166.5781,1.8555 0,29.289 16.4766,0 0,-29.289 -4.5742,0 0,-8.2383 -3.6641,0 -8.2383,0 z m 28.3789,8.2383 32.9551,0 0,-16.4766 -32.9551,0 z m 49.4317,0 32.955,0 0,-16.4766 -32.955,0 z m 49.4316,0 32.9531,0 0,-16.4766 -32.9531,0 z m -205.8828,17.9472 16.4785,0 0,-32.9531 -16.4785,0 z m 0,49.4317 16.4785,0 0,-32.9551 -16.4785,0 z m 78.6406,3.1035 16.4766,0 0,-32.9551 -16.4766,0 z m -78.6406,46.3262 16.4785,0 0,-32.9532 -16.4785,0 z m 78.6406,3.1054 16.4766,0 0,-32.9551 -16.4766,0 z m -78.6406,46.3262 16.4785,0 0,-32.9531 -16.4785,0 z m 78.6406,3.1035 16.4766,0 0,-32.9531 -16.4766,0 z m -78.6406,26.2031 0,0.02 0,0.019 0.025,5.457 0,0.041 0,0.041 0.08,5.3769 0,0.043 0,0.041 0.1328,5.2988 0,0.043 0,0.043 0.1407,3.9882 16.4668,-0.5839 -0.1407,-3.9883 -0.1289,-5.127 0,-0.014 -0,-0.07 -0.076,-5.2929 -0.025,-5.336 0,-0.039 0,-12.791 -16.4785,0 z m 78.6406,-0.8457 0,0.041 0,0.041 0.078,8.0722 0,0.086 0,0.086 0.2383,7.7285 0,0.096 0.01,0.094 0.3965,7.3847 0.01,0.1036 0.01,0.1015 0.068,0.8711 16.4257,-1.2949 -0.06,-0.7617 -0.3867,-7.1973 -0.2305,-7.5254 -0.078,-7.9258 0,-0.08 0,-8.7989 -16.4766,0 z m -77.3144,38.0801 0.3925,4.8633 0,0.051 0.01,0.049 0.4492,4.8223 0,0.053 0.01,0.051 0.5019,4.7441 0.01,0.053 0.01,0.053 0.5547,4.6641 0.01,0.055 0.01,0.055 0.6074,4.584 0.01,0.057 0.01,0.057 0.6621,4.5059 0.01,0.057 0.01,0.059 0.7128,4.4258 0.01,0.061 0.01,0.059 0.019,0.1016 15.1543,-2.6699 1.0742,-0.1739 -0,-0.016 -0,-0.021 -0.6895,-4.2715 -0.6465,-4.3945 -0.01,-0.051 -0.01,-0.061 -0.5781,-4.3633 -0.01,-0.061 -0.01,-0.049 -0.5293,-4.4472 -0.01,-0.08 -0,-0.027 -0.4883,-4.6269 -0,-0.01 -0.4297,-4.6191 -0.3926,-4.8633 z m 79.8418,3.5527 0.4121,2.836 0.01,0.068 0.01,0.068 0.4961,3.0488 0.012,0.07 0.014,0.072 0.5351,2.9629 0.012,0.074 0.016,0.074 0.5742,2.877 0.016,0.08 0.018,0.078 0.6152,2.791 0.025,0.1152 0.029,0.1153 0.6543,2.6094 0.02,0.084 0.023,0.082 0.6934,2.5429 0.023,0.086 0.025,0.084 0.7324,2.4785 0.027,0.088 0.027,0.088 0.7734,2.4121 0.029,0.092 0.031,0.09 0.8125,2.3457 0.033,0.094 0.035,0.094 0.8516,2.2793 0.037,0.098 0.037,0.096 0.8926,2.2129 0.041,0.1015 0.043,0.1 0.1797,0.416 15.1172,-6.5585 -0.1348,-0.3067 -0.8027,-1.9941 -0.7852,-2.0918 -0.7656,-2.211 -0.7246,-2.2656 -0.01,-0.031 -0.6484,-2.1934 -0.6582,-2.4199 -0.5977,-2.375 -0.5742,-2.6113 -0.5528,-2.7657 -0.01,-0.031 -0.5039,-2.8008 -0,-0.014 -0.4511,-2.7695 -0.01,-0.043 -0.4063,-2.7929 z m 170.9687,42.0215 -10.6172,4.1719 6.0235,15.3359 1.7519,-0.6875 2.7363,11.7051 16.045,-3.7519 -4.9043,-20.9805 -2.17,-9.2754 z m -153.2949,7.7754 0.3887,0.541 0.084,0.1153 0.086,0.1133 1.248,1.6191 0.1719,0.2226 0.1875,0.209 1.2871,1.4532 0.092,0.1035 0.096,0.1015 1.3281,1.4004 0.096,0.1016 0.1,0.098 1.3671,1.3477 0.1,0.1 0.1055,0.096 1.4063,1.2949 0.1035,0.096 0.1094,0.092 1.4453,1.2422 0.1093,0.094 0.1114,0.088 1.4863,1.1894 0.1113,0.09 0.1153,0.086 1.5254,1.1348 0.1152,0.086 0.1172,0.082 1.5664,1.0821 0.1172,0.082 0.1191,0.076 1.6055,1.0312 0.1191,0.076 0.1231,0.072 1.6445,0.9785 0.1211,0.072 0.123,0.066 1.6836,0.9258 0.1231,0.066 0.125,0.064 1.7246,0.8711 0.123,0.062 0.125,0.059 1.7637,0.8183 0.1231,0.057 0.125,0.055 1.8027,0.7656 0.123,0.053 0.125,0.047 1.8438,0.7148 0.1211,0.047 0.125,0.043 1.289,0.4531 5.4551,-15.5488 -1.1445,-0.4004 -1.5918,-0.6152 -1.6055,-0.6817 -1.5058,-0.7012 -1.4844,-0.75 -1.4356,-0.791 -1.3945,-0.8301 -1.3652,-0.8769 -1.3399,-0.9258 -1.2578,-0.9375 -1.2871,-1.0293 -1.2539,-1.0781 -1.1387,-1.0488 -1.1738,-1.1543 -1.1973,-1.2618 -0.9707,-1.0957 -0.9961,-1.2929 -0.3027,-0.4219 z m -89.8711,-3.082 0.1348,0.5059 0.025,0.094 0.027,0.094 1.1504,3.9239 0.027,0.096 0.031,0.096 1.2285,3.8457 0.031,0.098 0.033,0.098 1.3086,3.7656 0.035,0.1 0.037,0.098 1.3867,3.6875 0.039,0.1016 0.041,0.1 1.4648,3.6074 0.043,0.1015 0.043,0.1016 1.5469,3.5274 0.045,0.1035 0.049,0.1015 1.625,3.4492 0.049,0.1036 0.051,0.1035 1.7051,3.3691 0.053,0.1035 0.057,0.1036 0.5,0.9218 14.4843,-7.8535 -0.4316,-0.7949 -1.6055,-3.1738 -1.5273,-3.2403 -1.4609,-3.332 -1.3692,-3.3652 -1.3496,-3.5879 -0.016,-0.041 -1.211,-3.4922 -1.166,-3.6524 -1.0898,-3.7187 -0.1074,-0.4024 z m 212.916,7.0723 -2.4609,0.8378 -2.5176,0.7715 -2.6777,0.7364 -2.8262,0.6933 -2.9492,0.6406 -3.0977,0.5938 -3.1992,0.5352 -3.332,0.4824 -0.033,0 -2.5586,0.3164 2.0273,16.3515 2.7266,-0.3378 0.084,-0.012 0.084,-0.012 3.4864,-0.5058 0.088,-0.012 0.09,-0.016 3.373,-0.5644 0.094,-0.016 0.094,-0.017 3.2597,-0.625 0.1016,-0.02 0.098,-0.021 3.1485,-0.6836 0.1054,-0.023 0.1055,-0.025 3.0352,-0.7422 0.1113,-0.027 0.1113,-0.031 2.9219,-0.8027 0.1191,-0.031 0.1153,-0.037 2.8125,-0.8613 0.123,-0.039 0.1231,-0.041 2.6992,-0.9218 0.1543,-0.053 0.1523,-0.059 4.4551,-1.7207 -5.9375,-15.3711 z m -75.2695,22.0371 1.0801,0.1757 0.164,0.027 0.1621,0.019 4.5196,0.5547 0.1543,0.019 0.1543,0.014 4.6777,0.3965 0.1445,0.012 0.1465,0.01 4.834,0.2364 0.1387,0.01 0.1367,0 4.9941,0.078 0.092,0 0.094,0 4.3828,-0.029 0.059,-0 0.059,0 4.2715,-0.09 0.061,-0 0.06,-0 4.1192,-0.1465 -0.5899,-16.4668 -3.9961,0.1445 -0.029,0 -4.2403,0.088 -4.1367,0.029 -4.7695,-0.076 -4.586,-0.2246 -4.4082,-0.375 -4.1699,-0.5118 -0.918,-0.1504 z m -115.6817,18.1035 0.5274,0.748 0.072,0.1035 0.076,0.1 2.1797,2.8925 0.08,0.1055 0.082,0.1035 2.2637,2.8106 0.086,0.1074 0.09,0.1055 2.3496,2.7246 0.09,0.1054 0.096,0.1016 2.4336,2.6406 0.094,0.1016 0.098,0.1 2.5215,2.5527 0.098,0.1 0.1015,0.096 2.6055,2.4668 0.1016,0.096 0.1035,0.094 2.6933,2.3808 0.1036,0.092 0.1054,0.088 2.7793,2.295 0.1055,0.088 0.1094,0.084 2.5703,1.9844 10.0644,-13.0449 -2.4648,-1.9043 -2.5508,-2.1055 -2.4902,-2.2031 -2.4102,-2.2832 -2.3027,-2.3301 -2.2774,-2.4707 -2.123,-2.4648 -2.1348,-2.6485 -2.0156,-2.6758 -0.4551,-0.6425 z m 224.8457,-5.3379 6.5664,28.0859 3.961,-0.9277 3.5293,8.3711 0.4941,-0.209 0.1524,-0.064 0.1484,-0.068 3.2363,-1.5195 6.041,-2.836 -1.5195,-6.498 -6.5644,-28.084 z m -185.2578,40.2109 2.043,1.1035 0.1113,0.061 0.1133,0.057 3.3789,1.6953 0.1113,0.055 0.1133,0.053 3.4649,1.6093 0.1093,0.051 0.1114,0.049 3.5508,1.5215 0.246,0.1055 0.252,0.09 3.7578,1.3301 0.1152,0.041 0.1172,0.037 3.877,1.2461 0.1113,0.035 0.1133,0.033 3.9961,1.1582 0.1074,0.031 0.1074,0.029 4.1172,1.0722 0.1035,0.027 0.1036,0.025 2.625,0.6113 3.7421,-16.0469 -2.4921,-0.5801 -3.9122,-1.0195 -3.8066,-1.1055 -3.6504,-1.1718 -3.3984,-1.2032 -3.1817,-1.3652 -3.2617,-1.5156 -3.1094,-1.5606 -1.9511,-1.0527 z m 175.6094,-13.4609 -0.06,0.019 -0.065,0.022 -5.7793,1.8418 -0.027,0.01 -0.078,0.025 -6.4609,1.9609 0,0 -7.0293,2.0469 -0.039,0.01 -0.037,0.012 -3.5547,1.0742 -0.039,0.01 -3.6465,1.0137 -1.6816,0.4277 4.0546,15.9707 1.7422,-0.4433 0.088,-0.021 0.088,-0.025 3.7988,-1.0527 0.088,-0.025 0.09,-0.027 3.7324,-1.125 7.0449,-2.0527 0.045,-0.014 0.045,-0.014 6.5683,-1.9942 0.053,-0.016 0.053,-0.018 6.0117,-1.916 0.062,-0.019 0.065,-0.022 2.582,-0.8691 -5.2559,-15.6172 z m -45.9687,12.0508 -4.045,0.5957 -4.1484,0.5312 -0.051,0.01 -4.0273,0.4394 -0.033,0 -4.2871,0.3907 -4.3887,0.3203 -4.2481,0.2383 -4.498,0.1797 0.6504,16.4628 4.5,-0.1777 0.068,-0 0.066,-0 4.5254,-0.2539 0.07,-0.01 0.07,-0 4.4589,-0.3282 0.072,-0 0.072,-0.01 4.3926,-0.3984 0.074,-0.01 0.074,-0.01 4.3262,-0.4727 0.076,-0.01 0.076,-0.01 4.2598,-0.5449 0.078,-0.01 0.076,-0.012 4.1953,-0.6172 0.08,-0.012 0.078,-0.014 2.1211,-0.3535 -2.7188,-16.2519 z m -79.8301,16.6601 3.539,0.4844 0.084,0.012 0.086,0.01 4.8281,0.5566 0.082,0.01 0.082,0.01 4.9473,0.4727 0.078,0.01 0.078,0.01 5.0683,0.3868 0.074,0.01 0.074,0 5.1855,0.3008 0.072,0 0.072,0 5.3047,0.2148 0.068,0 0.068,0 3.9649,0.094 0.3926,-16.4726 -3.8282,-0.09 -0.039,-0 -5.2324,-0.211 -0.033,-0 -4.9493,-0.2871 -4.9453,-0.377 -4.7969,-0.459 -4.6406,-0.5371 -3.4531,-0.4726 z"
           style="color:#000000;font-style:normal;font-variant:normal;font-weight:normal;font-stretch:normal;font-size:medium;line-height:125%;font-family:Ubuntu;text-indent:0;text-align:start;text-decoration:none;text-decoration-line:none;text-decoration-style:solid;text-decoration-color:#000000;letter-spacing:-60px;word-spacing:0px;text-transform:none;direction:ltr;block-progression:tb;writing-mode:lr-tb;baseline-shift:baseline;text-anchor:start;white-space:normal;clip-rule:nonzero;display:inline;overflow:visible;visibility:visible;opacity:1;isolation:auto;mix-blend-mode:normal;color-interpolation:sRGB;color-interpolation-filters:linearRGB;solid-color:#000000;solid-opacity:1;fill:#b8c8f0;fill-opacity:1;fill-rule:nonzero;stroke:none;stroke-width:16.47699928;stroke-linecap:butt;stroke-linejoin:miter;stroke-miterlimit:4;stroke-dasharray:32.95405428, 16.47702713000000000;stroke-dashoffset:0;stroke-opacity:1;color-rendering:auto;image-rendering:auto;shape-rendering:auto;text-rendering:auto;enable-background:accumulate" />
      </g>
    </g>
  </g>
</svg>
